<svg width="314" height="120" viewBox="0 0 314 120" fill="none" xmlns="http://www.w3.org/2000/svg">
<path d="M86.2025 51.5452C86.0458 51.0868 85.782 50.6724 85.433 50.3363C85.3042 50.2168 85.1648 50.1092 85.0166 50.0148C83.8352 49.227 82.0699 49.0504 80.9473 50.0148C80.8343 50.1129 80.7298 50.2205 80.635 50.3363C80.3 50.7483 79.956 51.1513 79.603 51.5452C79.0236 52.2063 78.4306 52.8447 77.8105 53.4651C77.634 53.6371 77.4574 53.8137 77.2764 53.9858C77.1723 54.0899 77.0682 54.1895 76.9641 54.2891C76.5657 54.6695 76.1583 55.0362 75.7464 55.3985C75.5292 55.5932 75.3119 55.7833 75.0901 55.969C74.7597 56.2452 74.4292 56.5214 74.0943 56.7885C74.0626 56.8112 74.0309 56.8338 73.9992 56.861C73.9902 56.8655 73.9856 56.8746 73.9766 56.8791C73.9721 56.8791 73.9675 56.8791 73.963 56.8881C73.9508 56.893 73.9399 56.9008 73.9313 56.9108C73.8317 56.9787 73.7639 57.024 73.7141 57.0647C73.7322 57.0557 73.7503 57.0421 73.7684 57.033C73.6869 57.0964 73.6009 57.1598 73.5194 57.2232C72.7273 57.8073 71.9171 58.3687 71.0887 58.894C69.0393 60.206 66.8867 61.3493 64.6521 62.3125C64.5027 62.3714 64.3488 62.4348 64.1949 62.4936C58.3443 64.8913 51.9977 65.8269 45.7044 65.2194C45.0616 65.1696 44.4188 65.1017 43.7761 65.0156C43.0338 64.907 42.296 64.7757 41.5627 64.6263C38.771 64.0691 36.0395 63.2442 33.406 62.1631C30.1117 60.6541 26.9785 58.8154 24.0543 56.6753C23.6017 56.3538 23.1445 56.0324 22.6874 55.72C23.2079 54.4431 23.7194 53.1662 24.2173 51.8803C24.4663 51.26 24.7062 50.6397 24.9415 50.0148C26.7929 45.2017 28.531 40.3433 30.1967 35.4668C31.8806 30.5269 33.4694 25.5583 34.9631 20.561C35.117 20.0539 35.2664 19.5468 35.4112 19.0397C36.1943 16.3999 36.9457 13.7542 37.6654 11.1023C37.7333 10.8443 37.8057 10.5907 37.8691 10.3326C38.0773 9.57191 38.281 8.81123 38.4802 8.05054C38.9328 6.33448 37.9098 4.28337 36.1083 3.87133C35.2409 3.64886 34.3211 3.77187 33.5426 4.21446C32.764 4.65704 32.1877 5.38464 31.9349 6.24393C31.7403 6.97744 31.5456 7.70643 31.3465 8.43995C30.3914 11.9852 29.3865 15.5185 28.3318 19.0397C28.1779 19.5468 28.024 20.0539 27.8701 20.561C25.5436 28.2313 22.9891 35.8245 20.2069 43.3407C19.8719 44.2509 19.5324 45.1579 19.1884 46.062C19.0209 46.5057 18.8534 46.9495 18.6814 47.3932C18.351 48.2671 18.0115 49.1409 17.6721 50.0148C17.4774 50.5265 17.2782 51.0381 17.0791 51.5452C16.9478 51.8667 16.8211 52.1882 16.6943 52.5051C15.4038 52.0416 14.0666 51.7197 12.7065 51.5452L12.4893 51.5181C11.4348 51.3912 10.3684 51.4003 9.31621 51.5452C7.74149 51.729 6.22635 52.2566 4.8779 53.0907C3.52945 53.9247 2.38062 55.0449 1.51261 56.372C-0.64651 59.7724 -0.619353 64.6353 2.40884 67.5241C5.52757 70.4989 10.2487 70.4763 13.9196 68.6153C15.865 67.5625 17.5053 66.0246 18.6814 64.1508C19.132 63.4716 19.546 62.7688 19.9217 62.0454C20.0168 62.1088 20.1118 62.1721 20.2069 62.2401C20.569 62.4936 20.9311 62.7517 21.2887 63.0053C23.3722 64.5152 25.5679 65.8639 27.8566 67.0396C32.7777 69.4869 38.075 71.0894 43.5271 71.7803C43.6494 71.7939 43.767 71.812 43.8893 71.8256C44.4913 71.9025 45.0978 71.9614 45.7044 72.0112C54.4052 72.6671 63.1167 70.886 70.8624 66.8676C71.5187 66.528 72.169 66.1718 72.8133 65.799C73.8136 65.2194 74.7914 64.6036 75.7464 63.9516C76.267 63.5984 76.7739 63.2407 77.2764 62.8649C79.472 61.2473 81.5185 59.4365 83.3916 57.4541C84.1022 56.707 84.7827 55.9358 85.433 55.1403C86.048 54.4897 86.4024 53.6356 86.4289 52.7406C86.4253 52.3318 86.3487 51.927 86.2025 51.5452ZM11.249 62.3306C11.3441 62.2627 11.4391 62.1903 11.5297 62.1178C11.5025 62.1857 11.3712 62.2627 11.249 62.3306H11.249ZM12.702 60.8681C12.5979 60.9859 12.5028 61.1036 12.3987 61.2213C12.082 61.5759 11.7417 61.9087 11.3803 62.2174C11.3305 62.2627 11.2762 62.308 11.2219 62.3487C11.2213 62.3487 11.2207 62.3488 11.2201 62.3491C11.2195 62.3493 11.219 62.3496 11.2186 62.35C11.2182 62.3504 11.2179 62.351 11.2176 62.3515C11.2174 62.3521 11.2173 62.3527 11.2173 62.3533C11.1519 62.3825 11.0884 62.4158 11.0272 62.4529C10.8326 62.5706 10.6334 62.6793 10.4297 62.7789C10.0309 62.9258 9.62062 63.0393 9.20306 63.1185C8.8822 63.1419 8.56017 63.1449 8.23892 63.1275H8.22986C8.00816 63.0783 7.78911 63.0179 7.57354 62.9464C7.4649 62.8921 7.36079 62.8287 7.25668 62.7653C7.21594 62.7291 7.1797 62.6929 7.15709 62.6702C7.11287 62.6298 7.07202 62.5859 7.03491 62.5389C7.03493 62.5383 7.03481 62.5377 7.03458 62.5371C7.03436 62.5366 7.03404 62.5361 7.03362 62.5357C7.03319 62.5353 7.03268 62.5349 7.03212 62.5347C7.03157 62.5345 7.03098 62.5344 7.03038 62.5344C6.98057 62.4438 6.92625 62.3533 6.87648 62.2627C6.8739 62.2603 6.87228 62.2571 6.87195 62.2537C6.83574 62.1405 6.80406 62.0227 6.7769 61.905C6.76708 61.6983 6.76859 61.4912 6.78142 61.2847C6.84216 60.9954 6.92386 60.7109 7.02585 60.4334C7.1175 60.2367 7.22183 60.0461 7.33818 59.8629C7.34723 59.8448 7.3925 59.7724 7.44229 59.6909C7.44682 59.6863 7.44681 59.6864 7.44681 59.6818C7.51471 59.6049 7.58261 59.5234 7.65504 59.4509C7.77725 59.3151 7.90852 59.1973 8.03979 59.0751C8.29507 58.908 8.55953 58.7553 8.83192 58.6178C9.26403 58.4642 9.70745 58.3446 10.1582 58.2601C10.8228 58.2073 11.4908 58.2133 12.1543 58.2782C12.7828 58.3873 13.4029 58.5401 14.0102 58.7355C13.6421 59.45 13.2231 60.1369 12.7563 60.7911C12.7382 60.8183 12.7201 60.8455 12.702 60.8681ZM7.66859 59.3784C7.62871 59.4425 7.58163 59.5017 7.52827 59.555C7.56418 59.4883 7.6117 59.4285 7.66859 59.3784Z" fill="#003736"/>
<path d="M72.5965 5.30212C72.5558 6.72387 72.5151 8.14563 72.4743 9.56738C72.3883 12.7233 72.2993 15.8807 72.2072 19.0397C72.1122 22.5941 72.0126 26.1469 71.9085 29.6983C71.8587 31.5321 71.8074 33.3659 71.7546 35.1996C71.6143 40.1395 71.4755 45.0779 71.3382 50.0148C71.3246 50.5265 71.3065 51.0336 71.2929 51.5452C71.225 53.9948 71.1571 56.4444 71.0892 58.894C71.0123 61.5518 70.9368 64.2097 70.8629 66.8675C70.8086 68.8598 70.7527 70.8535 70.6954 72.8488C70.288 87.3063 69.8807 101.764 69.4733 116.221C69.4561 117.117 69.0929 117.97 68.4599 118.604C67.8269 119.237 66.9734 119.6 66.0784 119.617C65.1803 119.61 64.321 119.25 63.6859 118.615C63.0508 117.979 62.6908 117.12 62.6836 116.221C62.9099 108.089 63.1393 99.9572 63.3716 91.8251C63.5753 84.4719 63.782 77.1186 63.9917 69.7654C64.0596 67.343 64.1275 64.919 64.1954 62.4936C64.2995 58.8442 64.4021 55.1947 64.5032 51.5452C64.5168 51.0336 64.5349 50.5265 64.5485 50.0148C64.5575 49.5666 64.5711 49.1228 64.5847 48.6746C64.7839 41.5885 64.983 34.5008 65.1822 27.4117C65.2637 24.6225 65.3421 21.8319 65.4176 19.0397C65.5081 15.8566 65.5986 12.675 65.6892 9.49493C65.7299 8.09582 65.7661 6.70123 65.8068 5.30212C65.8241 4.40686 66.1872 3.55307 66.8202 2.9199C67.4532 2.28674 68.3067 1.92343 69.2017 1.90622C70.0998 1.91346 70.9591 2.27357 71.5942 2.90886C72.2293 3.54416 72.5893 4.40371 72.5965 5.30212Z" fill="#003736"/>
<path d="M258.826 6.24448C255.266 19.7283 251.012 33.0189 246.079 46.0631C244.718 49.6611 243.326 53.252 241.837 56.7995L242.18 55.9883C241.515 57.6781 240.667 59.2894 239.65 60.7932C239.58 60.8902 239.51 60.9862 239.438 61.0814C239.79 60.6315 239.857 60.5426 239.639 60.8147C239.524 60.9508 239.41 61.0874 239.291 61.2201C238.974 61.5749 238.634 61.9082 238.273 62.2177C238.182 62.2955 238.09 62.3716 237.996 62.4461L238.421 62.116C238.372 62.2322 238.026 62.3865 237.918 62.4523C237.569 62.6628 237.205 62.8472 236.829 63.0041L237.64 62.6617C237.024 62.91 236.382 63.0863 235.725 63.1873L236.628 63.066C235.983 63.1551 235.329 63.1621 234.682 63.0868L235.585 63.2081C235.056 63.1352 234.538 62.9957 234.044 62.7929L234.855 63.1352C234.591 63.0203 234.337 62.8846 234.095 62.7295C233.972 62.6494 233.594 62.3634 234.088 62.7406C234.601 63.1327 234.154 62.7743 234.048 62.6701C233.96 62.5833 233.881 62.4889 233.795 62.4006C233.396 61.9911 234.246 63.1055 233.974 62.6264C233.829 62.3863 233.697 62.139 233.577 61.8853L233.919 62.6965C233.763 62.3104 233.653 61.9076 233.59 61.496L233.711 62.3988C233.646 61.8869 233.646 61.369 233.709 60.8571L233.588 61.7598C233.671 61.1884 233.822 60.629 234.039 60.0935L233.696 60.9047C233.847 60.5446 234.025 60.1967 234.23 59.864C234.324 59.6921 234.434 59.5296 234.559 59.3789C234.581 59.3861 233.985 60.0639 234.302 59.7217C234.384 59.6322 234.462 59.5379 234.546 59.4491C234.68 59.307 234.823 59.177 234.964 59.0425C235.437 58.5923 234.303 59.4799 234.848 59.1236C235.244 58.8635 235.66 58.6365 236.093 58.4448L235.282 58.7871C236.007 58.4893 236.766 58.2855 237.543 58.1804L236.64 58.3017C237.613 58.1898 238.595 58.2015 239.565 58.3364L238.662 58.2151C239.89 58.4013 241.09 58.7389 242.234 59.2202L241.424 58.8779C243.863 59.9256 246.024 61.4811 248.181 63.0064C250.264 64.5154 252.459 65.8635 254.747 67.0391C259.668 69.4868 264.966 71.09 270.418 71.7815C278.238 72.7397 286.173 71.7182 293.495 68.8106C300.818 65.9031 307.293 61.2027 312.327 55.1407C312.941 54.4891 313.295 53.6346 313.321 52.7394C313.315 51.8401 312.958 50.9787 312.327 50.3382C311.081 49.1945 308.729 48.8716 307.526 50.3382C306.386 51.7303 305.16 53.05 303.856 54.2896C303.248 54.8674 302.623 55.4273 301.981 55.9694C301.615 56.279 301.244 56.5826 300.867 56.88C300.689 57.0208 300.135 57.3953 300.987 56.7906C300.791 56.9292 300.604 57.0806 300.411 57.2229C297.561 59.3251 294.471 61.0828 291.208 62.4593L292.019 62.117C288.517 63.5864 284.84 64.5943 281.078 65.1156L281.981 64.9943C278.111 65.5034 274.191 65.4976 270.323 64.977L271.226 65.0983C267.359 64.567 263.577 63.5366 259.974 62.0328L260.785 62.3752C257.309 60.8366 254.01 58.925 250.947 56.6741C249.352 55.493 247.67 54.4344 245.916 53.5072C243.873 52.4631 241.66 51.7903 239.381 51.5202C235.109 51.0172 230.755 52.6818 228.406 56.3742C226.244 59.7723 226.272 64.6347 229.299 67.5241C232.417 70.5001 237.139 70.4749 240.813 68.6134C244.351 66.8206 246.477 63.096 247.971 59.584C251.335 51.6805 254.313 43.5944 257.088 35.4672C259.833 27.4266 262.322 19.3046 264.556 11.1012C264.832 10.0852 265.105 9.06818 265.373 8.05005C265.827 6.33458 264.803 4.28287 263.002 3.87269C262.135 3.64927 261.214 3.77173 260.435 4.21424C259.656 4.65676 259.079 5.3847 258.826 6.24452L258.826 6.24448Z" fill="#003736"/>
<path d="M292.7 5.30196L291.478 48.6758L290.263 91.8238L289.575 116.222C289.583 117.12 289.943 117.979 290.578 118.614C291.213 119.25 292.072 119.61 292.97 119.617C293.865 119.6 294.718 119.237 295.351 118.604C295.984 117.971 296.348 117.117 296.365 116.222L297.587 72.8477L298.802 29.6997L299.49 5.30196C299.482 4.40368 299.122 3.54435 298.487 2.90915C297.852 2.27394 296.993 1.9137 296.095 1.90606C295.2 1.92336 294.346 2.2867 293.714 2.91984C293.081 3.55298 292.717 4.40673 292.7 5.30196Z" fill="#003736"/>
<path d="M175.194 104.112H176.248V56.0973H200.839V55.0455H176.248V34.7859H195.239C194.96 34.4317 194.674 34.082 194.379 33.7368H176.248V20.3556C175.899 20.2069 175.548 20.0636 175.194 19.9284V33.7368H154.529V16.5919C154.175 16.6081 153.827 16.6325 153.475 16.6622V33.7368H136.99V20.9451C136.636 21.1019 136.287 21.2668 135.941 21.4399V33.7368H122.083V34.7859H135.941V55.0455H122.083V56.0973H135.941V104.112H136.99V56.0973C139.155 56.0969 141.299 56.5231 143.299 57.3517C145.299 58.1803 147.117 59.395 148.648 60.9263C150.179 62.4577 151.393 64.2758 152.221 66.2767C153.05 68.2776 153.476 70.4222 153.475 72.5879V104.112H154.529V56.0973H175.194V104.112ZM136.99 55.0455V34.7859H153.475V55.0455H136.99ZM154.529 55.0455V34.7859H154.943C157.602 34.786 160.236 35.3102 162.693 36.3285C165.15 37.3467 167.382 38.8391 169.263 40.7204C171.143 42.6016 172.635 44.835 173.653 47.2929C174.67 49.7508 175.194 52.3852 175.194 55.0455H154.529Z" fill="#003736" fill-opacity="0.2"/>
<path d="M168.756 89.7151C167.428 95.637 164.25 100.982 159.68 104.974C159.345 105.264 159.01 105.545 158.662 105.821C157.815 105.898 156.975 105.976 156.14 106.056C155.448 106.12 154.764 106.188 154.085 106.251L153.963 106.265L153.877 105.522L153.533 102.515C152.199 100.336 151.371 97.8842 151.113 95.3415C150.854 92.7989 151.171 90.2306 152.039 87.827C153.234 84.6032 155.398 81.7552 157.525 78.9298C160.463 75.0268 163.319 71.169 163.423 66.4102C164.869 68.2606 166.071 70.2891 166.999 72.4459C166.123 72.8585 165.336 73.4384 164.682 74.1529C164.496 74.3566 164.311 74.6419 164.437 74.8864C164.546 75.0947 164.818 75.1445 165.053 75.1716C165.619 75.2305 166.189 75.2894 166.755 75.3482C167.208 75.398 167.66 75.4433 168.113 75.4931C168.66 77.2911 169.032 79.1381 169.222 81.008C169.527 83.9168 169.369 86.8556 168.756 89.7151Z" fill="#003736"/>
<path d="M183.783 77.8477C181.113 79.7901 179.551 82.5838 178.338 85.6628C177.095 86.0608 175.976 86.7754 175.093 87.7365C174.907 87.9403 174.722 88.2255 174.848 88.4701C174.957 88.6783 175.228 88.7281 175.464 88.7553C176.03 88.8141 176.6 88.873 177.166 88.9319C175.953 92.5723 174.839 96.3395 172.694 99.4139C171.267 101.444 169.407 103.131 167.248 104.354C166.66 104.689 166.052 104.99 165.429 105.255C163.129 105.431 160.874 105.62 158.662 105.821C157.815 105.898 156.975 105.976 156.14 106.056C155.448 106.12 154.764 106.188 154.085 106.251C154.081 106.002 154.081 105.753 154.085 105.504C154.229 98.8699 156.668 92.4912 160.988 87.4558C161.192 87.2203 161.4 86.9894 161.613 86.7585C163.801 84.4201 166.375 82.4751 169.222 81.0081C173.707 78.6752 178.735 77.584 183.783 77.8477Z" fill="#1C9B9A"/>
<path d="M156.925 103.733L156.404 105.273L156.142 106.056C155.449 106.12 154.766 106.188 154.087 106.251L153.964 106.265C153.213 106.342 152.466 106.419 151.719 106.495C151.525 106.269 151.33 106.038 151.14 105.803C146.415 100.08 144.147 92.7184 144.832 85.3278C145.516 77.9371 149.097 71.1179 154.793 66.3604C154.195 69.4892 154.892 72.4866 156.037 75.4614C155.915 75.5113 155.798 75.5611 155.684 75.6154C154.808 76.028 154.021 76.6079 153.367 77.3224C153.181 77.5261 152.996 77.8114 153.122 78.0559C153.231 78.2642 153.503 78.314 153.738 78.3411C154.304 78.4 154.874 78.4589 155.44 78.5177C155.893 78.5675 156.345 78.6128 156.798 78.6626C157.011 78.6853 157.223 78.7079 157.436 78.7306C157.468 78.7985 157.495 78.8619 157.527 78.9298C158.817 81.728 160.206 84.5398 160.989 87.4557C161.186 88.1874 161.34 88.9297 161.451 89.679C161.8 92.2112 161.574 94.7896 160.79 97.2226C160.007 99.6556 158.685 101.881 156.925 103.733Z" fill="#1C9B9A"/>
<path d="M202.486 38.0615C198.59 30.4583 192.553 24.061 185.452 19.3598C178.329 14.6652 170.156 11.8062 161.66 11.0376C160.547 10.9364 159.43 10.8771 158.311 10.8598C156.989 10.84 137.097 16.5793 130.434 21.2658C123.774 25.8952 118.296 32.0258 114.441 39.1631C110.592 46.3394 108.699 54.4023 108.952 62.542C109.282 70.7307 111.564 78.7219 115.607 85.8495C119.595 92.9541 125.258 98.9765 132.103 103.393C139.046 107.824 146.02 119.574 154.217 119.988C162.476 120.406 171.895 109.323 179.427 105.958C186.96 102.565 193.472 97.2561 198.314 90.561C203.02 83.9998 206.064 76.3947 207.186 68.398C208.351 60.2102 207.808 51.766 205.012 43.9402C204.295 41.9294 203.451 39.9659 202.486 38.0615C201.681 36.4744 199.32 35.89 197.842 36.8433C197.08 37.3123 196.529 38.0569 196.302 38.9222C196.075 39.7875 196.19 40.707 196.624 41.4895C197.097 42.4215 197.537 43.369 197.943 44.3319L197.601 43.5207C199.14 47.2222 200.187 51.1099 200.714 55.084L200.592 54.1812C201.153 58.4928 201.143 62.8594 200.563 67.1683L200.684 66.2655C200.097 70.5741 198.947 74.7869 197.264 78.796L197.606 77.9848C196.741 80.0304 195.732 82.0122 194.587 83.9156C194.006 84.8772 193.391 85.8162 192.74 86.7327C192.454 87.1348 192.159 87.53 191.862 87.924C191.474 88.4381 192.39 87.2524 191.99 87.7567C191.921 87.8426 191.854 87.9288 191.785 88.0145C191.58 88.2716 191.371 88.5263 191.16 88.7787C189.748 90.4629 188.208 92.0349 186.553 93.4802C186.141 93.8401 185.722 94.1919 185.296 94.5357C185.084 94.707 184.874 94.8856 184.653 95.045C184.661 95.0389 185.368 94.5019 184.95 94.8136C184.818 94.9116 184.688 95.0111 184.556 95.1087C183.678 95.7595 182.776 96.3771 181.852 96.9615C179.723 98.3032 177.489 99.4712 175.173 100.454L175.984 100.112C171.988 101.794 167.788 102.944 163.492 103.531L164.395 103.41C160.101 103.99 155.749 103.998 151.454 103.432L152.356 103.554C148.452 103.029 144.633 101.997 140.997 100.482L141.808 100.824C139.702 99.9346 137.671 98.876 135.735 97.6588C134.777 97.055 133.844 96.414 132.936 95.7356C132.807 95.6389 132.678 95.5407 132.549 95.4433C132.135 95.1305 132.847 95.6741 132.853 95.6778C132.612 95.505 132.38 95.3199 132.158 95.1233C131.719 94.766 131.288 94.4005 130.863 94.0267C129.163 92.5291 127.575 90.9084 126.113 89.1776C125.747 88.7448 125.389 88.3055 125.038 87.8598C124.887 87.6667 124.61 87.2755 125.221 88.0992C125.141 87.9908 125.058 87.8846 124.976 87.7767C124.781 87.5179 124.589 87.2571 124.399 86.9944C123.734 86.0743 123.102 85.1316 122.503 84.1663C121.15 81.9813 119.968 79.6941 118.97 77.3255L119.312 78.1367C117.679 74.2488 116.562 70.1636 115.99 65.9853L116.111 66.888C115.595 63.0365 115.588 59.1339 116.089 55.2805L115.968 56.1832C116.482 52.4516 117.486 48.8041 118.953 45.3348L118.611 46.1461C119.534 43.9742 120.623 41.8767 121.867 39.8721C122.491 38.869 123.151 37.8902 123.849 36.9359C124.008 36.7191 124.168 36.5036 124.33 36.2894C124.477 36.0957 124.88 35.6133 124.192 36.4653C124.259 36.3818 124.324 36.2958 124.391 36.2116C124.773 35.7263 125.166 35.2486 125.567 34.7785C127.087 32.9987 128.734 31.331 130.494 29.7884C130.938 29.3985 131.39 29.0168 131.849 28.6433C132.058 28.4736 132.267 28.3057 132.479 28.1394C132.563 28.073 132.649 28.0078 132.733 27.9409C131.829 28.6606 132.482 28.1367 132.687 27.9829C133.633 27.2741 134.604 26.6007 135.6 25.9629C137.814 24.5461 140.144 23.3181 142.564 22.2917L141.754 22.6341C145.266 21.1587 160.828 17.6764 163.659 18.0565L162.756 17.9352C166.917 18.5162 170.983 19.6399 174.851 21.2778L174.04 20.9355C176 21.7681 177.905 22.7253 179.743 23.8013C180.662 24.3398 181.562 24.9077 182.445 25.5049C182.862 25.7876 183.275 26.0766 183.684 26.372C183.888 26.5196 184.091 26.6689 184.293 26.8197C184.406 26.9035 184.517 26.9884 184.629 27.0724C185.099 27.4251 183.981 26.5616 184.474 26.9517C186.124 28.2487 187.692 29.648 189.167 31.1414C189.892 31.8795 190.591 32.6409 191.266 33.4258C191.612 33.8285 191.951 34.2372 192.283 34.6517C192.448 34.8577 193.009 35.603 192.321 34.69C192.489 34.9132 192.659 35.1348 192.825 35.3596C194.256 37.2964 195.526 39.3465 196.624 41.4895C197.435 43.0732 199.786 43.6637 201.269 42.7078C202.03 42.239 202.582 41.4944 202.809 40.6289C203.036 39.7635 202.92 38.8439 202.486 38.0615Z" fill="#003736"/>
<path d="M162.93 93.4804C162.58 93.4965 162.233 93.4045 161.937 93.2168C161.64 93.029 161.409 92.7547 161.273 92.431C161.138 92.1072 161.105 91.7497 161.18 91.4068C161.255 91.0639 161.433 90.7522 161.69 90.514C161.733 90.3425 161.764 90.2193 161.808 90.0478C161.792 90.0105 161.777 89.9732 161.761 89.9359C160.186 86.1788 150.135 96.6522 149.7 100.183C149.509 101.744 149.59 103.326 149.939 104.859C146.683 97.7553 144.993 90.0339 144.982 82.2188C144.981 80.2577 145.09 78.2981 145.308 76.3492C145.488 74.7515 145.738 73.1651 146.058 71.5902C147.803 63.0446 151.549 55.0349 156.99 48.2189C160.101 48.3926 162.828 47.9185 163.091 41.8865C163.138 40.8136 163.934 39.8845 164.109 38.8275C163.812 38.8665 163.51 38.8909 163.213 38.9103C163.121 38.9152 163.023 38.9201 162.931 38.9249L162.896 38.9265C162.569 38.9411 162.246 38.8611 161.964 38.696C161.682 38.5309 161.453 38.2877 161.306 37.9958C161.159 37.7039 161.1 37.3757 161.135 37.0507C161.17 36.7257 161.298 36.4178 161.504 36.164C161.632 36.0061 161.76 35.8483 161.889 35.6906C162.083 35.447 162.283 35.2083 162.478 34.9648C162.5 34.9416 162.522 34.9172 162.541 34.8917C162.765 34.614 162.989 34.3412 163.213 34.0636C162.804 33.4288 162.254 32.897 161.606 32.5098C159.361 31.1946 156.264 32.1055 154.643 34.1367C153.016 36.1679 152.71 39.0175 153.274 41.5553C153.83 43.7147 154.749 45.7639 155.992 47.6149C155.87 47.7708 155.743 47.9218 155.622 48.0777C153.396 50.9401 151.457 54.0138 149.831 57.2548C150.291 53.6603 144.665 40.6792 142.49 37.9296C139.877 34.6269 134.518 36.0683 134.058 40.2549C134.053 40.2955 134.049 40.336 134.045 40.3765C134.368 40.5588 134.684 40.7524 134.994 40.9572C135.382 41.217 135.684 41.5883 135.858 42.0223C136.032 42.4563 136.071 42.9329 135.97 43.3896C135.869 43.8462 135.632 44.2617 135.291 44.5815C134.95 44.9013 134.52 45.1105 134.058 45.1818L134.011 45.1891C129.685 51.3668 143.551 67.4457 147.022 63.8355C145.388 68.4665 144.364 73.2903 143.974 78.1856C143.753 81.0737 143.766 83.9749 144.013 86.8609L143.998 86.7586C143.227 80.4729 129.997 71.1272 126.134 71.9057C123.908 72.3541 121.716 72.2522 122.054 74.4978C122.06 74.5337 122.065 74.5695 122.071 74.6054C122.67 74.8497 123.254 75.1311 123.819 75.448C124.142 75.6304 124.458 75.824 124.768 76.0287C125.156 76.2885 125.458 76.6598 125.632 77.0938C125.806 77.5279 125.845 78.0044 125.744 78.4611C125.643 78.9178 125.406 79.3332 125.065 79.653C124.724 79.9728 124.294 80.1821 123.832 80.2533L123.785 80.2606C123.751 80.2655 123.721 80.2704 123.687 80.2753C121.718 87.0518 136.319 97.9883 145.196 94.5084H145.201C146.08 98.3322 147.355 102.054 149.004 105.614H162.59C162.639 105.463 162.682 105.308 162.726 105.157C161.469 105.236 160.206 105.16 158.967 104.933C159.975 103.695 160.983 102.448 161.991 101.211C162.013 101.188 162.035 101.163 162.054 101.138C162.566 100.505 163.082 99.8764 163.593 99.2431L163.593 99.2424C163.621 97.3013 163.398 95.3648 162.931 93.4807L162.93 93.4804ZM147.373 62.8661L147.38 62.8565L147.373 62.8759V62.8661ZM144.363 90.0027L144.246 89.7397C144.251 89.5497 144.251 89.3598 144.246 89.1649C144.246 89.1113 144.237 89.0578 144.237 89.0042C144.28 89.3403 144.319 89.6764 144.368 90.0125L144.363 90.0027Z" fill="#003736"/>
<path d="M10.275 65.2013C13.0249 65.2013 15.2541 62.9714 15.2541 60.2206C15.2541 57.4699 13.0249 55.24 10.275 55.24C7.52512 55.24 5.2959 57.4699 5.2959 60.2206C5.2959 62.9714 7.52512 65.2013 10.275 65.2013Z" fill="#003736"/>
<path d="M70.024 119.536C72.7739 119.536 75.0031 117.306 75.0031 114.555C75.0031 111.804 72.7739 109.574 70.024 109.574C67.2741 109.574 65.0449 111.804 65.0449 114.555C65.0449 117.306 67.2741 119.536 70.024 119.536Z" fill="#003736"/>
<path d="M296.799 119.536C299.549 119.536 301.778 117.306 301.778 114.555C301.778 111.804 299.549 109.574 296.799 109.574C294.05 109.574 291.82 111.804 291.82 114.555C291.82 117.306 294.05 119.536 296.799 119.536Z" fill="#003736"/>
<path d="M309.021 56.1456C311.771 56.1456 314 53.9157 314 51.1649C314 48.4142 311.771 46.1843 309.021 46.1843C306.271 46.1843 304.042 48.4142 304.042 51.1649C304.042 53.9157 306.271 56.1456 309.021 56.1456Z" fill="#003736"/>
<path d="M294.536 9.96129C297.286 9.96129 299.515 7.73138 299.515 4.98064C299.515 2.22991 297.286 0 294.536 0C291.786 0 289.557 2.22991 289.557 4.98064C289.557 7.73138 291.786 9.96129 294.536 9.96129Z" fill="#003736"/>
<path d="M86.7734 51.1649C86.7704 52.4371 86.2785 53.6595 85.3996 54.5791C84.5207 55.4987 83.322 56.0451 82.0516 56.1053C80.7812 56.1654 79.5363 55.7347 78.5745 54.9022C77.6127 54.0697 77.0077 52.8992 76.8846 51.633C76.7615 50.3667 77.1298 49.1016 77.9133 48.0994C78.6968 47.0972 79.8354 46.4346 81.0936 46.2488C82.3519 46.0631 83.6333 46.3682 84.6728 47.1013C85.7124 47.8343 86.4304 48.939 86.6783 50.1869C86.7422 50.5089 86.774 50.8366 86.7734 51.1649Z" fill="#003736"/>
<path d="M186.354 24.4505C189.104 24.4505 191.333 22.2206 191.333 19.4698C191.333 16.7191 189.104 14.4892 186.354 14.4892C183.604 14.4892 181.375 16.7191 181.375 19.4698C181.375 22.2206 183.604 24.4505 186.354 24.4505Z" fill="#003736"/>
<path d="M137.016 19.4698C137.013 20.7421 136.521 21.9645 135.642 22.8841C134.763 23.8037 133.564 24.3501 132.294 24.4102C131.023 24.4703 129.778 24.0396 128.817 23.2071C127.855 22.3747 127.25 21.2042 127.127 19.9379C127.004 18.6716 127.372 17.4065 128.155 16.4043C128.939 15.4021 130.078 14.7395 131.336 14.5538C132.594 14.368 133.876 14.6732 134.915 15.4062C135.955 16.1392 136.673 17.244 136.921 18.4918C136.984 18.8139 137.016 19.1415 137.016 19.4698Z" fill="#003736"/>
<path d="M72.7411 4.98066C72.7381 6.25291 72.2463 7.47531 71.3674 8.39491C70.4885 9.3145 69.2898 9.86091 68.0194 9.92104C66.749 9.98118 65.504 9.55044 64.5423 8.71797C63.5805 7.8855 62.9754 6.71502 62.8524 5.44875C62.7293 4.18247 63.0976 2.91732 63.8811 1.91512C64.6645 0.912917 65.8032 0.250371 67.0614 0.0645881C68.3196 -0.121195 69.6011 0.184007 70.6406 0.917033C71.6801 1.65006 72.3982 2.7548 72.6461 4.00264C72.7099 4.32471 72.7418 4.65232 72.7411 4.98066Z" fill="#003736"/>
<path d="M238.409 67.0124C241.159 67.0124 243.388 64.7825 243.388 62.0318C243.388 59.2811 241.159 57.0511 238.409 57.0511C235.659 57.0511 233.43 59.2811 233.43 62.0318C233.43 64.7825 235.659 67.0124 238.409 67.0124Z" fill="#003736"/>
<path d="M160.102 21.7338C164.102 21.7338 167.344 18.4903 167.344 14.4892C167.344 10.4881 164.102 7.24458 160.102 7.24458C156.102 7.24458 152.859 10.4881 152.859 14.4892C152.859 18.4903 156.102 21.7338 160.102 21.7338Z" fill="#003736"/>
</svg>
