<svg width="66" height="30" viewBox="0 0 66 30" fill="none" xmlns="http://www.w3.org/2000/svg">
<g clip-path="url(#clip0)">
<path d="M5.62868 7.1465H4.04891V12.9171C4.43477 12.9967 5.1217 13.0589 5.71 13.0589C7.85558 13.0589 8.80725 11.9048 8.80725 10.0413C8.80725 8.32138 7.87634 7.1465 5.62868 7.1465ZM5.71 6.57896C7.24824 6.57896 8.16011 5.5875 8.16011 3.82605C8.16011 1.90368 6.86411 1.21502 5.56812 1.21502C5.00058 1.21502 4.43477 1.25482 4.04891 1.33614V6.57896H5.71ZM6.51978 13.585H0V13.2406L2.02446 12.8755V1.3967L0 1.03161V0.68901H5.99377C8.80725 0.68901 10.2642 1.96424 10.2642 3.58381C10.2642 4.94037 9.37479 6.17407 7.35033 6.59973V6.70181C9.91983 6.98385 11.1155 8.40097 11.1155 9.88038C11.1155 11.8633 9.43535 13.585 6.51978 13.585Z" fill="#231F20"/>
<path d="M21.3581 12.9771V13.1795L18.5239 13.8889L18.4426 13.8474L18.4841 12.2486L18.4028 12.2071C17.1881 13.3421 16.034 13.908 14.9405 13.908C13.1184 13.908 12.4505 12.5324 12.4505 11.0945V5.78938L11.1338 5.08168V4.9L14.0909 4.16981L14.1705 4.23037V10.2241C14.1705 11.7831 14.7172 12.5116 16.0548 12.5116C16.9043 12.5116 17.5117 12.3299 18.3215 11.8645V5.78938L16.9857 5.08168V4.9L19.941 4.16981L20.0223 4.23037V12.451L21.3581 12.9771Z" fill="#231F20"/>
<path d="M24.3948 13.8882C23.3825 13.8882 22.552 13.7463 21.6211 13.3414V10.7909L22.0467 10.7494C22.7146 12.6129 23.6455 13.3829 24.7391 13.3829C25.8119 13.3829 26.5005 12.7548 26.5005 11.682C26.5005 10.5885 25.4277 10.1628 24.2927 9.69739C23.059 9.17138 21.763 8.5848 21.763 7.00504C21.763 5.40624 22.9984 4.1708 24.9415 4.1708C25.7306 4.1708 26.7843 4.35248 27.3311 4.55493L27.3916 6.84239L27.0265 6.94448C26.2375 5.32491 25.4675 4.67605 24.5764 4.67605C23.6663 4.67605 23.059 5.20379 23.059 6.05337C23.059 7.14692 24.1525 7.57085 25.3049 8.05706C26.5611 8.5848 27.8969 9.17138 27.8969 10.8117C27.8969 12.6943 26.3794 13.8882 24.3948 13.8882Z" fill="#231F20"/>
<path d="M30.7716 0.000103951C31.3997 0.000103951 31.8651 0.465556 31.8651 1.09366C31.8651 1.74079 31.3391 2.32736 30.6505 2.32736C30.0224 2.32736 29.5777 1.86191 29.5777 1.21478C29.5777 0.586678 30.1037 0.000103951 30.7716 0.000103951ZM28.5239 5.08201V4.89859L31.481 4.17014L31.5606 4.2307V12.9566L32.9172 13.3217V13.5847H28.4443V13.3217L29.8615 12.9566V5.93158L28.5239 5.08201Z" fill="#231F20"/>
<path d="M42.129 12.9571L43.4648 13.3222V13.5852H39.1529V13.3222L40.4282 12.9571V7.8752C40.4282 6.33696 39.8814 5.60851 38.5248 5.60851C37.6752 5.60851 37.0679 5.76942 36.2581 6.23488V12.9571L37.5126 13.3222V13.5852H33.2007V13.3222L34.5365 12.9571V5.93207L33.2214 5.08249V4.89908L36.0557 4.17062L36.137 4.23118L36.0955 5.85075L36.1768 5.89228C37.3915 4.7572 38.5456 4.19139 39.6391 4.19139C41.4611 4.19139 42.129 5.56698 42.129 7.00486V12.9571Z" fill="#231F20"/>
<path d="M49.9026 7.55156C49.7607 5.81087 49.1949 4.63599 47.9387 4.63599C46.6427 4.63599 45.5906 5.85067 45.4695 7.69344L49.9026 7.55156ZM45.4487 8.1191C45.4487 10.8114 46.3606 12.6525 48.6481 12.6525C49.6396 12.6525 50.4701 12.431 51.6242 11.8427L51.7453 12.0867C50.4891 13.2806 49.3558 13.9087 48.0407 13.9087C45.4487 13.9087 43.606 12.0054 43.606 9.19188C43.606 6.33688 45.5699 4.19131 48.0805 4.19131C50.5912 4.19131 51.8457 5.87143 51.8457 8.1191H45.4487Z" fill="#231F20"/>
<path d="M55.3279 13.8882C54.3156 13.8882 53.4851 13.7463 52.5542 13.3414V10.7909L52.9799 10.7494C53.6477 12.6129 54.5786 13.3829 55.6722 13.3829C56.745 13.3829 57.4336 12.7548 57.4336 11.682C57.4336 10.5885 56.3609 10.1628 55.2258 9.69739C53.9921 9.17138 52.6961 8.5848 52.6961 7.00504C52.6961 5.40624 53.9315 4.1708 55.8746 4.1708C56.6637 4.1708 57.7174 4.35248 58.2642 4.55493L58.3247 6.84239L57.9596 6.94448C57.1706 5.32491 56.4006 4.67605 55.5095 4.67605C54.5994 4.67605 53.9921 5.20379 53.9921 6.05337C53.9921 7.14692 55.0856 7.57085 56.2397 8.05706C57.4942 8.5848 58.83 9.17138 58.83 10.8117C58.83 12.6943 57.3125 13.8882 55.3279 13.8882Z" fill="#231F20"/>
<path d="M62.3118 13.8882C61.2995 13.8882 60.469 13.7463 59.5381 13.3414V10.7909L59.9637 10.7494C60.6316 12.6129 61.5626 13.3829 62.6561 13.3829C63.7289 13.3829 64.4176 12.7548 64.4176 11.682C64.4176 10.5885 63.3448 10.1628 62.2114 9.69739C60.976 9.17138 59.68 8.5848 59.68 7.00504C59.68 5.40624 60.9154 4.1708 62.8586 4.1708C63.6476 4.1708 64.7013 4.35248 65.2481 4.55493L65.3087 6.84239L64.9436 6.94448C64.1546 5.32491 63.3846 4.67605 62.4935 4.67605C61.5833 4.67605 60.976 5.20379 60.976 6.05337C60.976 7.14692 62.0695 7.57085 63.2237 8.05706C64.4781 8.5848 65.8139 9.17138 65.8139 10.8117C65.8139 12.6943 64.2964 13.8882 62.3118 13.8882Z" fill="#231F20"/>
<path d="M5.44626 17.3063C4.93928 17.3063 4.45479 17.3461 4.0499 17.4275V23.4005C4.41327 23.461 4.79912 23.5008 5.40646 23.5008C7.26827 23.5008 8.2407 22.4886 8.2407 20.3845C8.2407 18.4604 7.24751 17.3063 5.44626 17.3063ZM6.17472 24.0684C5.50682 24.0684 4.69704 23.987 4.0499 23.8867V28.9686L6.0536 29.3319V29.6763H0.0200195V29.3319L2.02544 28.9686V17.488L0.0200195 17.1246V16.7803H5.87191C8.96916 16.7803 10.5074 18.3393 10.5074 20.3222C10.5074 22.1252 9.11105 24.0684 6.17472 24.0684Z" fill="#231F20"/>
<path d="M21.0754 29.0691V29.2715L18.2412 29.981L18.1599 29.9394L18.2014 28.3406L18.1201 28.2991C16.9054 29.4342 15.7513 30 14.6577 30C12.8357 30 12.1678 28.6244 12.1678 27.1865V21.8814L10.8511 21.1737V20.992L13.8064 20.2619L13.8878 20.3224V26.3162C13.8878 27.8752 14.4345 28.6036 15.7703 28.6036C16.6216 28.6036 17.229 28.422 18.0387 27.9548V21.8814L16.703 21.1737V20.992L19.6583 20.2619L19.7396 20.3224V28.5431L21.0754 29.0691Z" fill="#231F20"/>
<path d="M30.0841 29.0489L31.4199 29.414V29.677H27.108V29.414L28.3832 29.0489V23.967C28.3832 22.4288 27.8365 21.7003 26.4799 21.7003C25.6303 21.7003 25.023 21.8612 24.2132 22.3267V29.0489L25.4677 29.414V29.677H21.1558V29.414L22.4916 29.0489V22.0239L21.1765 21.1726V20.9909L24.0108 20.2624L24.0921 20.323L24.0506 21.9426L24.1319 21.9841C25.3465 20.849 26.5007 20.2832 27.5942 20.2832C29.4162 20.2832 30.0841 21.6588 30.0841 23.0967V29.0489Z" fill="#231F20"/>
<path d="M40.0445 28.9881L41.1779 29.4138V29.6768H37.2103V29.4138L38.0201 28.9881L35.3675 25.2628H34.5577V29.0487L35.6911 29.4138V29.6768H31.4207V29.4138L32.8378 29.0487V16.5368L31.3584 15.6665V15.464L34.4764 14.675L34.5577 14.7148V24.6554H35.4696L38.1204 21.5166L37.0477 20.809V20.6065H40.773V20.8695L39.4164 21.3955L36.5009 24.3526L40.0445 28.9881Z" fill="#231F20"/>
</g>
<defs>
<clipPath id="clip0">
<rect width="65.814" height="30" fill="white"/>
</clipPath>
</defs>
</svg>
