<svg width="255" height="30" viewBox="0 0 255 30" fill="none" xmlns="http://www.w3.org/2000/svg">
<path d="M156.832 24.7383H145.884V5.38897H156.832V8.69872H149.788V12.8996H156.365V16.3366H149.788V21.3013H156.832V24.7383ZM205.417 24.7383H191.033V22.0226L200.325 8.69872H191.33V5.38897H205.12V7.93494L195.827 21.2588H205.417V24.7383ZM220.099 24.7383H208.854V5.38897H220.099V8.69872H212.885V12.8996H219.462V16.3366H212.885V21.3013H220.099V24.7383ZM243.522 5.38897V24.7383H254.597V21.3013H247.553V16.3366H254.13V12.8996H247.553V8.69872H254.597V5.38897H243.522ZM98.1895 5.38897H102.221V9.42009H98.1895V5.38897ZM92.5035 5.38897H96.5346V9.42009H92.5035V5.38897ZM38.232 0L31.9519 30H35.983L42.4328 0H38.232ZM44.3847 0L38.1047 30H42.1358L48.5856 0H44.3847ZM0 0V30H30L36.2801 0H0ZM58.7694 13.7907H66.4073V23.8472C65.2192 24.1443 64.1584 24.4413 62.9703 24.7383C61.7822 24.9081 60.7214 25.0354 59.5332 24.9081C56.9873 25.0778 54.5686 24.1443 52.7864 22.3621C51.1315 20.2829 50.3677 17.5672 50.5375 15.0212C50.3677 12.3055 51.4286 9.63225 53.2532 7.68034C55.3324 5.89816 57.9208 4.96464 60.5941 5.13437C62.546 5.13437 64.4979 5.60114 66.2801 6.3225L64.9222 9.63225C63.5643 8.86846 62.0792 8.57143 60.5941 8.57143C58.9392 8.57143 57.454 9.1655 56.2659 10.3536C55.0778 11.7115 54.611 13.3663 54.611 15.1485C54.4413 16.8034 54.9081 18.5856 55.9689 19.9434C56.86 21.1315 58.2178 21.7256 59.703 21.5983C60.5941 21.5983 61.4851 21.4286 62.2489 21.3013V17.2702H58.5148V13.8331H58.7694V13.7907ZM74.215 13.918H75.5728C76.6337 13.918 77.5247 13.7482 78.4158 13.3239C79.0099 12.8572 79.3069 12.1358 79.3069 11.372C79.3069 10.6082 79.0099 9.88685 78.4158 9.42009C77.5247 8.95333 76.4639 8.82603 75.5728 8.82603H74.3847L74.215 13.918ZM74.215 17.2277V24.5686H70.1839V5.38897H75.7426C77.8218 5.21924 79.7737 5.68601 81.5983 6.74683C82.9561 7.80765 83.5502 9.46252 83.5502 11.075C83.5502 12.1358 83.2532 13.1542 82.6591 14.0877C82.0651 15.0212 81.0042 15.7426 79.9434 16.1669C82.7864 20.495 84.7383 23.2108 85.6294 24.5686H81.1315L76.4639 17.2277H74.215ZM123.267 24.7383H118.006L109.604 10.1839H109.434C109.604 12.7298 109.731 14.512 109.731 15.7426V24.9081H106.124V5.43141H111.386L119.788 19.9859H119.958C119.788 17.4399 119.788 15.6577 119.788 14.7242V5.43141H123.522L123.267 24.7383ZM138.713 14.8091C138.713 10.7779 136.931 8.6563 133.154 8.6563H130.905V21.2588H132.687C136.761 21.2588 138.713 19.1796 138.713 14.8091ZM142.871 14.8091C143.041 17.5248 142.107 20.198 140.156 22.1499C137.907 23.9321 135.191 24.8656 132.348 24.6959H126.789V5.34654H132.942C135.658 5.17681 138.204 6.11033 140.283 7.8925C142.15 9.71712 143.041 12.1358 142.871 14.8091ZM164.173 13.918H165.53C166.591 13.918 167.482 13.7482 168.373 13.3239C168.967 12.8572 169.264 12.1358 169.264 11.372C169.264 10.6082 168.967 9.88685 168.373 9.42009C167.482 8.95333 166.421 8.82603 165.53 8.82603H164.342L164.173 13.918ZM164.173 17.2277V24.5686H160.141V5.38897H165.7C167.779 5.21924 169.731 5.68601 171.556 6.74683C172.914 7.80765 173.508 9.46252 173.508 11.075C173.508 12.1358 173.211 13.1542 172.617 14.0877C172.023 14.9788 170.962 15.7426 169.901 16.1669C172.744 20.495 174.696 23.2108 175.587 24.5686H171.089L166.421 17.2277H164.173ZM189.208 19.3069C189.378 20.9618 188.614 22.447 187.426 23.338C185.941 24.3989 184.116 24.9929 182.164 24.8232C180.212 24.8232 178.43 24.5262 176.605 23.6351V19.901C177.666 20.3678 178.685 20.7921 179.915 21.0891C180.679 21.2588 181.57 21.3861 182.461 21.5559C183.225 21.5559 183.946 21.3861 184.54 21.0891C185.007 20.7921 185.304 20.198 185.304 19.604C185.304 19.3069 185.134 18.8402 185.007 18.5431L184.116 17.6521C183.352 17.1853 182.461 16.761 181.57 16.2942C180.679 15.8274 179.788 15.4031 178.854 14.6393C178.26 14.1726 177.793 13.5785 177.496 12.8571C177.03 12.0934 176.902 11.372 177.03 10.4385C177.03 8.95332 177.624 7.42574 178.685 6.40736C180.042 5.34654 181.697 4.75248 183.479 4.92221C184.54 4.92221 185.431 5.09194 186.322 5.38897C187.383 5.686 188.274 5.98303 189.165 6.44979L187.808 9.58982C186.917 9.29279 186.153 8.99576 185.262 8.69872C184.668 8.52899 183.904 8.4017 183.31 8.4017C182.716 8.4017 182.122 8.57144 181.528 8.86847C181.061 9.1655 180.933 9.75955 180.933 10.2263C180.933 10.5233 181.103 10.8204 181.231 11.1174C181.4 11.4144 181.697 11.7115 181.994 11.8812C182.885 12.3479 183.649 12.942 184.54 13.239C185.898 13.8331 187.256 14.7242 188.274 15.785C189.081 16.9307 189.378 18.1188 189.208 19.3069Z" fill="black"/>
<path d="M98.1894 11.2446V17.2277C98.3591 18.4158 98.0197 19.6463 97.2983 20.5374C96.5345 21.3012 95.5161 21.5983 94.4553 21.5983C93.3945 21.768 92.2064 21.3012 91.4426 20.5374C90.6788 19.6463 90.3818 18.4582 90.5515 17.2277V5.38892H86.5204V17.8217C86.3506 19.7736 87.1144 21.7256 88.5996 23.0834C90.2545 24.4413 92.3337 25.1626 94.4553 25.0353C95.9405 25.0353 97.468 24.7383 98.7835 24.1442C99.9716 23.5502 100.863 22.7864 101.626 21.5983C102.221 20.4101 102.687 19.1796 102.687 17.8642V11.1173L98.1894 11.2446ZM240.212 24.7383H234.95L226.549 10.1838H226.379C226.549 12.7298 226.676 14.512 226.676 15.7425V24.908H222.942V5.43135H228.204L236.605 19.9858H236.775C236.605 17.4398 236.605 15.6577 236.605 14.7241V5.43135H240.339L240.212 24.7383Z" fill="black"/>
</svg>
