<svg width="120" height="148" viewBox="0 0 120 148" fill="none" xmlns="http://www.w3.org/2000/svg">
<path d="M36.2649 143.423H41.0355L43.3051 125.208L36.2643 125.209L36.2649 143.423Z" fill="#FFB7B7"/>
<path d="M35.048 141.881L44.443 141.88H44.4434C46.0313 141.881 47.5541 142.505 48.6769 143.616C49.7997 144.728 50.4305 146.235 50.4306 147.807V147.999L35.0483 148L35.048 141.881Z" fill="#2F2E41"/>
<path d="M10.4353 143.423H15.2059L17.4752 125.208L10.4343 125.209L10.4353 143.423Z" fill="#FFB7B7"/>
<path d="M9.21851 141.881L18.6135 141.88H18.6139C20.2018 141.881 21.7246 142.505 22.8474 143.616C23.9702 144.728 24.6011 146.235 24.6012 147.807V147.999L9.21879 148L9.21851 141.881Z" fill="#2F2E41"/>
<path d="M8.49146 60.8721V108.963L9.72146 140.009H19.8689L23.2512 81.5696L30.0161 105.615L34.3212 139.401L46.621 138.792L38.3187 60.8721H8.49146Z" fill="#2F2E41"/>
<path d="M20.2876 17.651C24.3634 17.651 27.6675 14.3804 27.6675 10.346C27.6675 6.31157 24.3634 3.04102 20.2876 3.04102C16.2118 3.04102 12.9077 6.31157 12.9077 10.346C12.9077 14.3804 16.2118 17.651 20.2876 17.651Z" fill="#FFB8B8"/>
<path d="M17.2213 19.554L15.2565 21.6078L13.4116 62.6985L35.2436 62.0896L30.0162 26.1736L25.4039 21.7982L23.0635 19.554H17.2213Z" fill="#1C9B9A"/>
<path d="M13.7189 24.0427L15.3761 21.3804L15.8714 27.0865C15.8714 27.0865 19.8688 39.8702 19.5613 51.132C19.2538 62.3939 21.0988 88.8744 18.6388 89.1788C16.1789 89.4832 5.724 90.0919 5.724 87.9613C5.724 85.8307 5.10901 29.2171 5.10901 29.2171L13.7189 24.0427Z" fill="#3F3D56"/>
<path d="M24.9085 21.3804L29.0937 24.6515L38.3186 27.9996C38.3186 27.9996 38.3186 66.9595 40.1635 76.0907C42.0085 85.222 45.391 86.1351 41.086 86.4395C36.7811 86.7438 37.0886 85.222 37.0886 85.222C37.0886 85.222 40.1635 70.0032 36.1661 66.9595C32.1687 63.9158 24.4813 46.2621 25.0963 36.5221C25.7112 26.7821 24.2935 21.3804 24.9085 21.3804Z" fill="#3F3D56"/>
<path d="M13.3059 12.6313C13.3059 12.6313 13.933 11.5414 13.7872 7.90014C13.6414 4.25891 19.243 6.31834 23.9237 5.97099C28.6044 5.62363 27.6136 12.0501 27.6136 12.0501C27.6136 12.0501 27.9513 11.6681 28.6742 8.56649C29.3972 5.46488 27.7557 2.37401 27.7557 2.37401C27.2722 -0.885197 24.6667 0.159383 24.6667 0.159383C25.9215 0.6429 25.6805 1.67677 25.6805 1.67677C24.6184 -0.166541 22.0128 0.878044 22.0128 0.878044C18.5378 -1.28047 15.0159 1.56202 15.0159 1.56202C10.8179 2.50509 13.2799 5.8097 13.2799 5.8097C9.05812 7.92154 13.3059 12.6313 13.3059 12.6313Z" fill="#F1F1FF"/>
<path d="M5.73421 83.5601C6.04701 83.2329 6.28352 82.8417 6.42709 82.4143C6.57065 81.9868 6.61778 81.5333 6.56515 81.0859C6.51252 80.6384 6.36141 80.2078 6.12247 79.8244C5.88353 79.441 5.56257 79.1141 5.18219 78.8667L6.51159 71.9491L2.46169 70.1241L0.722933 79.9193C0.34551 80.5793 0.225812 81.3535 0.386512 82.0951C0.547211 82.8367 0.977146 83.4942 1.59485 83.9429C2.21256 84.3917 2.97511 84.6006 3.73802 84.5301C4.50093 84.4595 5.21119 84.1144 5.73421 83.5601V83.5601Z" fill="#FFB7B7"/>
<path d="M6.64658 29.217L5.8301 28.7837C5.8301 28.7837 1.41915 30.4345 1.72665 31.652C2.03414 32.8695 -0.733317 75.4819 0.18917 77.0038C1.11166 78.5256 8.49156 77.3081 8.49156 77.3081L6.64658 29.217Z" fill="#3F3D56"/>
<path d="M41.7498 80.6912C41.3943 80.41 41.1054 80.055 40.9034 79.6513C40.7015 79.2476 40.5914 78.8049 40.581 78.3546C40.5706 77.9042 40.6601 77.457 40.8431 77.0446C41.0262 76.6321 41.2984 76.2644 41.6405 75.9674L39.3569 69.2984L43.1128 66.9363L46.204 76.3991C46.67 77.0011 46.8968 77.7514 46.8413 78.5079C46.7858 79.2643 46.4519 79.9744 45.9029 80.5034C45.3539 81.0325 44.6278 81.3438 43.8624 81.3784C43.097 81.413 42.3453 81.1685 41.7498 80.6912V80.6912Z" fill="#FFB7B7"/>
<path d="M38.1454 74.8771C38.1454 74.8771 45.6246 75.0721 46.3254 73.4385C47.0263 71.805 38.3291 29.9815 38.4635 28.7336C38.5978 27.4857 33.9985 26.4548 33.9985 26.4548L33.2505 26.9958L38.1454 74.8771Z" fill="#3F3D56"/>
<path d="M88.349 76.759L83.7187 54.3002L81.6846 37.7122L77.1783 40.5977L77.8009 58.8778L84.9933 77.8177C84.7621 78.2535 84.6671 78.7475 84.7203 79.2369C84.7736 79.7263 84.9726 80.1889 85.2922 80.5661C85.6117 80.9432 86.0374 81.2177 86.515 81.3548C86.9926 81.4918 87.5006 81.4852 87.9744 81.3357C88.4481 81.1862 88.8663 80.9007 89.1757 80.5153C89.4851 80.13 89.6718 79.6623 89.7119 79.1717C89.7521 78.6811 89.644 78.1897 89.4013 77.7601C89.1586 77.3305 88.7923 76.982 88.349 76.759H88.349Z" fill="#FFB7B7"/>
<path d="M45.0415 78.4953L46.3232 55.6088L45.8986 38.9043L51.8561 41.1106L52.8506 59.2859L48.5171 79.0597C48.8098 79.4576 48.9764 79.9327 48.9956 80.4246C49.0148 80.9164 48.8859 81.4028 48.6251 81.8219C48.3643 82.2411 47.9836 82.5739 47.5312 82.7783C47.0788 82.9826 46.5752 83.0492 46.0845 82.9695C45.5938 82.8898 45.1381 82.6675 44.7754 82.3308C44.4127 81.9941 44.1593 81.5582 44.0475 81.0786C43.9357 80.599 43.9705 80.0973 44.1475 79.6373C44.3245 79.1773 44.6356 78.7798 45.0415 78.4953V78.4953Z" fill="#FFB7B7"/>
<path d="M57.5184 145.035H60.5624L62.0107 133.413L57.5181 133.413L57.5184 145.035Z" fill="#FFB7B7"/>
<path d="M56.7421 144.051L62.7369 144.051H62.7372C63.7504 144.051 64.7221 144.449 65.4385 145.159C66.155 145.868 66.5575 146.83 66.5576 147.832V147.955L56.7422 147.956L56.7421 144.051Z" fill="#2F2E41"/>
<path d="M69.0481 143.702L72.0564 144.162L75.283 132.896L70.8428 132.216L69.0481 143.702Z" fill="#FFB7B7"/>
<path d="M68.4328 142.612L74.3572 143.519L74.3575 143.519C75.3587 143.672 76.2575 144.213 76.856 145.022C77.4544 145.832 77.7036 146.843 77.5488 147.834L77.5298 147.956L67.8298 146.471L68.4328 142.612Z" fill="#2F2E41"/>
<path d="M56.6243 141.565L56.6085 141.481L45.5885 82.5038C44.7137 77.7692 45.4114 72.8814 47.5773 68.5721L54.2473 55.3677L74.1499 58.0366L76.4987 74.848L84.8691 106.918L84.8608 106.944L74.1365 140.664L67.108 141.121L73.334 111.022L61.9339 85.3916L62.738 141.106L56.6243 141.565Z" fill="#2F2E41"/>
<path d="M74.6131 60.1882L74.4818 59.9844C74.4582 59.9477 72.0406 56.3423 65.4619 58.7496C58.7461 61.2074 53.5424 56.4603 53.4906 56.4121L53.4648 56.388L51.9439 42.9697L50.1484 32.0766L55.8637 31.0841L58.6736 29.4154L69.847 29.2185L72.7873 31.5076L77.6147 32.0284L78.0566 41.9539L78.0546 41.9647L74.6131 60.1882Z" fill="#F1F1FF"/>
<path d="M76.2145 42.9138V34.4149L77.572 31.9626L77.6272 31.9609C78.6958 32.0004 79.7058 32.4546 80.4388 33.2254C81.8042 34.5986 82.4227 36.8865 82.2772 40.0255L82.2745 40.0829L76.2145 42.9138Z" fill="#F1F1FF"/>
<path d="M52.5536 41.99L45.6347 41.1681L45.6292 41.0893C45.3932 37.674 45.9954 35.1389 47.4192 33.5544C48.1338 32.7069 49.1475 32.1606 50.2543 32.0263L50.2943 32.0244L52.1673 33.7098L52.5536 41.99Z" fill="#F1F1FF"/>
<path d="M72.5824 25.7939H54.3759C54.0014 25.7935 53.6424 25.6461 53.3776 25.3839C53.1128 25.1218 52.9638 24.7664 52.9634 24.3957V17.8706C52.9611 16.5022 53.2314 15.1468 53.7588 13.8819C54.2862 12.617 55.0605 11.4674 56.0372 10.499C57.0139 9.53059 58.1739 8.7623 59.4509 8.2381C60.7279 7.71391 62.0968 7.44409 63.4792 7.44409C64.8616 7.44409 66.2305 7.71391 67.5075 8.2381C68.7845 8.7623 69.9445 9.53059 70.9212 10.499C71.898 11.4674 72.6722 12.617 73.1996 13.8819C73.7271 15.1468 73.9973 16.5022 73.995 17.8706V24.3957C73.9946 24.7664 73.8456 25.1218 73.5808 25.3839C73.316 25.6461 72.957 25.7935 72.5824 25.7939V25.7939Z" fill="#2F2E41"/>
<path d="M63.9017 25.7297C68.1597 25.7297 71.6116 22.3129 71.6116 18.0981C71.6116 13.8833 68.1597 10.4666 63.9017 10.4666C59.6437 10.4666 56.1919 13.8833 56.1919 18.0981C56.1919 22.3129 59.6437 25.7297 63.9017 25.7297Z" fill="#FFB7B7"/>
<path d="M85.5053 77.4727C85.8934 77.3368 86.2466 77.1182 86.5401 76.8325C86.8337 76.5468 87.0603 76.2008 87.2042 75.819C87.348 75.4372 87.4055 75.0288 87.3727 74.6227C87.3398 74.2165 87.2174 73.8223 87.014 73.468L93.6131 66.0217L88.4617 65.3182L82.9849 72.4973C82.4063 72.8749 81.9877 73.4496 81.8085 74.1123C81.6292 74.775 81.7018 75.4798 82.0125 76.0931C82.3232 76.7064 82.8503 77.1856 83.4941 77.4398C84.1378 77.6941 84.8534 77.7058 85.5053 77.4727V77.4727Z" fill="#9F616A"/>
<path d="M93.4637 143.466L88.8613 143.466L86.6716 125.894L93.4647 125.894L93.4637 143.466Z" fill="#9F616A"/>
<path d="M94.6374 147.882L79.7971 147.882V147.696C79.7972 146.18 80.4058 144.725 81.4891 143.653C82.5723 142.581 84.0414 141.978 85.5734 141.978H85.5737L94.6377 141.979L94.6374 147.882Z" fill="#2F2E41"/>
<path d="M117.556 139.654L113.161 141.005L105.805 124.865L112.293 122.872L117.556 139.654Z" fill="#9F616A"/>
<path d="M120 143.527L105.827 147.882L105.771 147.705C105.317 146.257 105.463 144.689 106.176 143.347C106.889 142.005 108.112 140.999 109.575 140.549L109.575 140.549L118.232 137.889L120 143.527Z" fill="#2F2E41"/>
<path d="M89.939 62.4514L83.1227 70.1787L88.459 70.654L89.939 62.4514Z" fill="#1C9B9A"/>
<path d="M87.2758 72.4115C87.2758 72.4115 84.9081 73.5832 84.6121 78.8565C84.3161 84.1297 85.5001 97.8994 85.5001 97.8994C85.5001 97.8994 84.3164 104.051 85.5001 109.617C86.6838 115.183 84.3164 135.396 85.7961 135.396C87.2757 135.396 94.9705 136.275 95.2665 135.396C95.5625 134.517 95.8585 121.334 95.8585 121.334C95.8585 121.334 98.2261 114.596 95.8585 110.496C95.8585 110.496 104.125 124.785 109.472 135.69C110.642 138.076 119.535 135.397 118.055 132.76C116.575 130.124 113.024 118.113 113.024 118.113C113.024 118.113 110.36 109.324 105.625 105.516L107.993 86.7669C107.993 86.7669 113.024 74.17 110.065 72.4124C107.106 70.6547 87.2758 72.4115 87.2758 72.4115Z" fill="#2F2E41"/>
<path d="M96.1541 24.6605C100.404 24.6605 103.849 21.2504 103.849 17.0439C103.849 12.8373 100.404 9.42725 96.1541 9.42725C91.9044 9.42725 88.4594 12.8373 88.4594 17.0439C88.4594 21.2504 91.9044 24.6605 96.1541 24.6605Z" fill="#A0616A"/>
<path d="M104.737 25.2463L95.171 30.8123C95.171 30.8123 91.5082 32.8541 90.1399 36.3783C88.6815 40.1342 89.5292 45.4224 90.1399 46.6315C91.3236 48.9752 89.6434 54.8341 89.6434 54.8341L88.1638 68.3097C88.1638 68.3097 82.8367 73.2897 86.98 73.8757C91.1234 74.4617 98.5221 73.5827 102.962 73.8757C107.401 74.1687 112.432 74.7546 110.952 71.8245C109.473 68.8943 107.697 66.8442 109.473 60.9863C110.862 56.4016 110.802 39.2594 110.71 32.02C110.697 31.0259 110.428 30.0514 109.927 29.1894C109.427 28.3274 108.712 27.6065 107.851 27.0952L104.737 25.2463Z" fill="#1C9B9A"/>
<path opacity="0.1" d="M100.447 34.4746L101.334 52.3445L92.7301 69.5921L91.2709 69.0424L100.15 52.9302L100.447 34.4746Z" fill="black"/>
<path opacity="0.1" d="M110.212 56.1525V54.1013L100.151 70.5071L110.212 56.1525Z" fill="black"/>
<path d="M90.6929 9.98791L89.4218 9.48453C89.4218 9.48453 92.0821 6.58596 95.7822 6.83792L94.7413 5.70366C94.7413 5.70366 97.2854 4.69552 99.5985 7.34185C100.814 8.73307 102.221 10.3685 103.099 12.2104H104.461L103.893 13.4497L105.883 14.689L103.84 14.4673C104.034 15.5372 103.967 16.6373 103.647 17.6769L103.703 18.6565C103.703 18.6565 101.334 15.0283 101.334 14.5249V15.7853C101.334 15.7853 100.062 14.6511 100.062 13.8949L99.368 14.7772L99.0211 13.3912L94.7422 14.7772L95.4355 13.6424L92.7752 14.0205L93.8161 12.6345C93.8161 12.6345 90.8094 14.2727 90.6937 15.6592C90.5781 17.0457 89.0749 18.8097 89.0749 18.8097L88.3809 17.5494C88.3809 17.5494 87.3403 11.8783 90.6929 9.98791Z" fill="#2F2E41"/>
<path d="M95.6714 78.3016C96.0289 78.0997 96.3374 77.8225 96.575 77.4898C96.8126 77.157 96.9737 76.7767 97.0468 76.3757C97.1199 75.9747 97.1033 75.5627 96.9981 75.1687C96.8929 74.7748 96.7017 74.4084 96.4381 74.0955L101.597 65.6079L96.4013 65.8207L92.2989 73.848C91.7971 74.3214 91.4882 74.9604 91.4307 75.6441C91.3731 76.3278 91.571 77.0086 91.9867 77.5576C92.4024 78.1066 93.0071 78.4855 93.6862 78.6227C94.3653 78.7598 95.0717 78.6456 95.6714 78.3016V78.3016Z" fill="#9F616A"/>
<path d="M107.401 29.0553L109.62 28.616C109.62 28.616 116.279 33.4496 114.208 43.1169C112.136 52.7841 102.961 67.4317 102.961 67.4317C102.961 67.4317 100.889 70.0683 100.298 70.654C99.7064 71.2397 98.5221 70.654 99.1141 71.533C99.7061 72.4119 98.2261 72.9976 98.2261 72.9976C98.2261 72.9976 91.7151 72.9976 92.3071 70.654C92.8991 68.3104 102.961 51.6111 102.961 51.6111L101.482 36.0848C101.482 36.0848 100.298 28.4693 107.401 29.0553Z" fill="#1C9B9A"/>
<path d="M71.2303 18.3366H61.0514C60.8602 18.3363 60.6756 18.2671 60.5322 18.1418C60.3889 18.0165 60.2966 17.8438 60.2727 17.656L60.1409 16.6125C60.1282 16.5121 60.0829 16.4186 60.0119 16.3459C59.9408 16.2733 59.8478 16.2255 59.7469 16.2098C59.646 16.1941 59.5426 16.2113 59.4525 16.2588C59.3623 16.3063 59.2902 16.3815 59.247 16.4732L58.5797 17.8884C58.5162 18.0221 58.4157 18.1352 58.2898 18.2146C58.1639 18.2939 58.0178 18.3362 57.8686 18.3366H56.3224C56.2131 18.3366 56.1049 18.314 56.0048 18.2702C55.9048 18.2264 55.8151 18.1624 55.7416 18.0823C55.668 18.0022 55.6122 17.9077 55.5777 17.805C55.5432 17.7023 55.5307 17.5935 55.5412 17.4857L56.1508 11.1825C56.1639 11.0476 56.2121 10.9184 56.2907 10.8075C56.3693 10.6966 56.4756 10.6078 56.5993 10.5498C61.2609 8.39571 65.9881 8.39844 70.6497 10.558C70.768 10.613 70.8705 10.6963 70.948 10.8005C71.0256 10.9046 71.0757 11.0262 71.0938 11.1543L72.007 17.4494C72.0231 17.5596 72.015 17.6719 71.9833 17.7788C71.9516 17.8856 71.8971 17.9845 71.8234 18.0686C71.7497 18.1528 71.6586 18.2202 71.5563 18.2665C71.4539 18.3127 71.3427 18.3366 71.2302 18.3366H71.2303Z" fill="#2F2E41"/>
</svg>
