<svg width="142" height="148" viewBox="0 0 142 148" fill="none" xmlns="http://www.w3.org/2000/svg">
<path d="M100.946 64.8062C109.173 64.8062 115.843 58.1365 115.843 49.909C115.843 41.6814 109.173 35.0117 100.946 35.0117C92.7181 35.0117 86.0483 41.6814 86.0483 49.909C86.0483 58.1365 92.7181 64.8062 100.946 64.8062Z" fill="#1C9B9A"/>
<path d="M141.81 61.0161C141.842 61.0101 141.867 60.9872 141.905 60.993C141.889 60.9286 141.867 60.8655 141.84 60.8044C141.793 60.8691 141.744 60.935 141.702 60.9928L141.81 61.0161Z" fill="white"/>
<path d="M41.8911 85.1678C41.9781 88.418 42.5226 91.6397 43.5083 94.738C43.5309 94.8099 43.5545 94.8807 43.5781 94.9527H49.6134C49.607 94.8883 49.6005 94.8164 49.5941 94.738C49.1917 90.1117 46.8715 61.9548 49.6456 57.1396C49.4031 57.5303 41.4232 70.468 41.8911 85.1678Z" fill="#F1F1FF"/>
<path d="M42.3441 94.738C42.3946 94.8099 42.4471 94.8818 42.5008 94.9527H47.0284C46.994 94.8915 46.9543 94.8196 46.9082 94.738C46.1602 93.388 43.9463 89.352 41.8913 85.1678C39.6827 80.6714 37.6567 76.0043 37.8273 74.3152C37.7747 74.6961 36.2465 86.3096 42.3441 94.738Z" fill="#F1F1FF"/>
<path d="M89.3918 95.512C89.316 98.3456 88.8413 101.154 87.9819 103.855C87.9623 103.918 87.9417 103.98 87.9211 104.043H82.6594C82.665 103.986 82.6707 103.924 82.6763 103.855C83.0271 99.8222 85.0498 75.2746 82.6313 71.0767C82.8428 71.4172 89.7997 82.6965 89.3918 95.512Z" fill="#F1F1FF"/>
<path d="M88.9969 103.855C88.9529 103.918 88.9071 103.981 88.8603 104.043H84.9131C84.943 103.989 84.9776 103.927 85.0179 103.855C85.67 102.679 87.6001 99.1598 89.3917 95.512C91.3171 91.592 93.0835 87.5231 92.9347 86.0505C92.9806 86.3827 94.3128 96.5075 88.9969 103.855Z" fill="#F1F1FF"/>
<path d="M29.2308 12.0918L31.6846 10.1293C29.7784 9.91899 28.9951 10.9586 28.6746 11.7814C27.1854 11.1631 25.5642 11.9735 25.5642 11.9735L30.4737 13.7558C30.226 13.0943 29.7949 12.517 29.2308 12.0918Z" fill="#003736"/>
<path d="M103.135 1.99001L105.589 0.0274843C103.683 -0.182822 102.9 0.85678 102.579 1.67963C101.09 1.06126 99.4688 1.87167 99.4688 1.87167L104.378 3.65398C104.131 2.99244 103.699 2.41523 103.135 1.99001Z" fill="#003736"/>
<path d="M139.238 79.5985C139.238 81.2246 139.181 82.8374 139.068 84.437C138.194 97.0564 133.818 109.182 126.432 119.452C125.467 120.799 124.454 122.108 123.392 123.38C120.641 126.679 117.587 129.713 114.269 132.442L99.7265 123.908L91.0315 103.615C91.0315 103.615 104.005 77.3471 139.215 77.8234C139.229 78.413 139.237 79.0047 139.238 79.5985Z" fill="#003736"/>
<path d="M139.068 84.437C138.399 93.8671 135.782 103.056 131.384 111.424C126.985 119.793 120.9 127.158 113.512 133.057L100.001 125.13L92.2903 107.131C92.2903 107.131 104.785 81.8331 139.068 84.437Z" fill="#1C9B9A"/>
<path d="M126.432 119.452C125.467 120.799 124.454 122.108 123.392 123.38C116.278 131.927 107.188 138.612 96.9086 142.855C94.8272 143.713 92.6968 144.47 90.5174 145.125C74.7811 149.31 58.1095 148.252 43.0288 142.11C28.1141 135.453 16.0615 123.697 9.03575 108.952C8.09156 106.967 7.24248 104.932 6.48853 102.847C19.638 93.2137 45.5487 79.4201 73.7885 92.8234C81.6001 96.531 88.5752 99.9105 94.7138 102.962C110.291 110.683 120.658 116.25 126.432 119.452Z" fill="#003736"/>
<path d="M123.392 123.38C116.038 132.193 106.586 139.016 95.9047 143.22C85.2237 147.423 73.657 148.874 62.2687 147.437C50.8804 146 40.0363 141.723 30.734 134.998C21.4318 128.273 13.9702 119.316 9.03564 108.952C20.0176 100.268 45.3472 84.6615 73.1442 97.8529C80.2928 101.246 86.6748 104.338 92.2903 107.131C108.661 115.245 118.744 120.759 123.392 123.38Z" fill="#1C9B9A"/>
<path d="M104.009 139.433C101.709 140.708 99.3386 141.851 96.9086 142.855C88.6392 146.263 79.7803 148.011 70.8363 148C60.2529 147.996 49.8145 145.538 40.341 140.82C30.8675 136.102 22.6168 129.252 16.2368 120.807C32.5734 119.085 77.731 116.762 104.009 139.433Z" fill="#003736"/>
<path d="M96.9085 142.855C84.0857 148.128 69.9645 149.384 56.4125 146.457C42.8605 143.53 30.5162 136.558 21.0122 126.464C26.9543 125.591 73.6058 119.597 96.9085 142.855Z" fill="#1C9B9A"/>
<path d="M127.765 41.6672V41.6693C78.9229 5.5571 22.9637 30.9748 22.5315 31.1699V31.1678C28.8742 24.8259 36.4057 19.7975 44.6946 16.3706C52.9835 12.9437 61.867 11.1856 70.8364 11.1971C94.5818 11.1971 115.501 23.2974 127.765 41.6672Z" fill="#F1F1FF"/>
<path d="M26.4489 80.9246C34.7113 79.4349 38.9453 64.5605 35.9057 47.7017C32.8661 30.8429 23.704 18.3837 15.4415 19.8735C7.17903 21.3632 2.94504 36.2376 5.98464 53.0964C9.02424 69.9552 18.1864 82.4143 26.4489 80.9246Z" fill="#003736"/>
<path d="M28.5721 100.613C28.0823 63.5831 15.6925 28.8325 15.5674 28.4861L14.4375 28.8937C14.5619 29.2384 26.8838 63.807 27.371 100.63L28.5721 100.613Z" fill="#1C9B9A"/>
<path d="M6.59038 46.2099L6.2207 47.353L21.0537 52.15L21.4234 51.0069L6.59038 46.2099Z" fill="#1C9B9A"/>
<path d="M34.4924 44.922L22.271 54.6011L23.0169 55.5429L35.2383 45.8639L34.4924 44.922Z" fill="#1C9B9A"/>
<path d="M66.178 75.5859C75.2629 75.5859 82.6277 60.5588 82.6277 42.0218C82.6277 23.4849 75.2629 8.45776 66.178 8.45776C57.0931 8.45776 49.7283 23.4849 49.7283 42.0218C49.7283 60.5588 57.0931 75.5859 66.178 75.5859Z" fill="#003736"/>
<path d="M64.6589 96.9608C71.2472 57.4323 64.7252 18.0467 64.6586 17.6538L63.377 17.8709C63.4434 18.2619 69.9279 57.4406 63.3767 96.7475L64.6589 96.9608Z" fill="#1C9B9A"/>
<path d="M51.6954 34.8046L51.0823 35.9509L65.9573 43.9073L66.5704 42.761L51.6954 34.8046Z" fill="#1C9B9A"/>
<path d="M81.6565 38.7901L66.7832 46.751L67.3967 47.8971L82.2699 39.9362L81.6565 38.7901Z" fill="#1C9B9A"/>
<path d="M137.631 64.7894C131.595 61.4009 125.289 58.5179 118.778 56.1699C82.7751 43.1422 47.0741 48.1632 33.1001 66.8078C43.9751 43.9668 82.7793 36.7846 121.938 50.9538C126.496 52.6015 130.956 54.5069 135.297 56.6609C136.243 59.3193 137.022 62.034 137.631 64.7894Z" fill="#F1F1FF"/>
<path d="M89.0059 28.0337L91.4597 26.0712C89.5535 25.8609 88.7703 26.9005 88.4497 27.7233C86.9605 27.105 85.3394 27.9154 85.3394 27.9154L90.2488 29.6977C90.0011 29.0362 89.57 28.4589 89.0059 28.0337Z" fill="#003736"/>
</svg>
