<svg width="133" height="148" viewBox="0 0 133 148" fill="none" xmlns="http://www.w3.org/2000/svg">
<path d="M107.73 99.6436C121.216 99.6436 132.148 77.3376 132.148 49.8218C132.148 22.306 121.216 0 107.73 0C94.2449 0 83.3127 22.306 83.3127 49.8218C83.3127 77.3376 94.2449 99.6436 107.73 99.6436Z" fill="#1C9B9A"/>
<path d="M107.434 50.3322C108.652 28.6416 111.107 13.9905 111.131 13.845L110.742 13.7791C110.717 13.9247 108.26 28.593 107.04 50.304C105.914 70.3421 105.643 100.651 110.742 131.246L111.131 131.181C106.038 100.624 106.31 70.3488 107.434 50.3322Z" fill="#3F3D56"/>
<path d="M129.588 39.7821L107.511 51.5986L107.697 51.9466L129.775 40.1301L129.588 39.7821Z" fill="#3F3D56"/>
<path d="M84.3908 45.7044L84.2046 46.0525L106.285 57.863L106.471 57.515L84.3908 45.7044Z" fill="#3F3D56"/>
<path d="M78.3113 113.137C83.3498 113.137 87.4343 104.803 87.4343 94.5227C87.4343 84.2421 83.3498 75.908 78.3113 75.908C73.2728 75.908 69.1882 84.2421 69.1882 94.5227C69.1882 104.803 73.2728 113.137 78.3113 113.137Z" fill="#1C9B9A"/>
<path d="M78.3031 95.3247L78.3571 95.4256L86.6058 91.0106L86.4196 90.6625L78.3203 94.9976C78.7685 86.7483 79.6852 81.2105 79.7037 81.1014L79.3146 81.0355C79.2944 81.1546 78.2052 87.7308 77.8187 97.2465L69.6498 92.8742L69.4636 93.2222L77.7123 97.6373L77.8108 97.4532C77.5015 105.307 77.6748 115.127 79.3145 124.965L79.7038 124.901C77.9161 114.174 77.8767 103.468 78.3031 95.3247Z" fill="#3F3D56"/>
<path d="M124.66 135.38C98.9308 120.011 75.6003 120.829 60.5592 124.223C44.264 127.899 33.9238 135.302 33.8213 135.376L33.7463 135.008C33.8491 134.933 44.2136 127.513 60.5344 123.831C70.1346 121.668 79.8208 121.2 89.4671 122.434C101.442 123.964 113.278 128.184 124.723 135.004L124.66 135.38Z" fill="#3F3D56"/>
<path d="M66.2124 131.578C66.2124 131.578 66.3487 128.723 69.1424 129.055L66.2124 131.578Z" fill="#3F3D56"/>
<path d="M65.4229 128.861C66.1951 128.861 66.8212 128.235 66.8212 127.462C66.8212 126.69 66.1951 126.064 65.4229 126.064C64.6507 126.064 64.0247 126.69 64.0247 127.462C64.0247 128.235 64.6507 128.861 65.4229 128.861Z" fill="#1C9B9A"/>
<path d="M65.5902 129.817H65.1956V132.58H65.5902V129.817Z" fill="#3F3D56"/>
<path d="M57.7266 128.223C57.7266 128.223 57.8628 125.368 60.6566 125.7L57.7266 128.223Z" fill="#3F3D56"/>
<path d="M56.9368 125.506C57.7091 125.506 58.3351 124.88 58.3351 124.108C58.3351 123.335 57.7091 122.709 56.9368 122.709C56.1646 122.709 55.5386 123.335 55.5386 124.108C55.5386 124.88 56.1646 125.506 56.9368 125.506Z" fill="#1C9B9A"/>
<path d="M57.1042 126.462H56.7095V129.225H57.1042V126.462Z" fill="#3F3D56"/>
<path d="M118.411 122.499L126.533 134.542L118.971 142.105L117.991 140.144L119.671 136.223C119.671 136.223 119.391 132.582 118.411 131.602C117.43 130.621 113.089 124.739 113.089 124.739L118.411 122.499Z" fill="#FFB8B8"/>
<path d="M108.048 83.5671C108.048 83.5671 109.588 86.0048 106.367 96.508C106.367 96.508 121.391 121.865 119.01 123.545C116.629 125.226 110.187 128.945 108.507 127.824C106.826 126.704 94.6036 88.7487 94.6036 88.7487L108.048 83.5671Z" fill="#2F2E41"/>
<path d="M125.063 132.372L127.514 134.823C128.774 136.083 129.614 137.903 127.233 139.444C124.853 140.984 116.59 146.726 113.789 144.906C110.989 143.085 117.15 141.405 117.15 141.405C117.15 141.405 118.169 137.627 118.71 138.465C119.251 139.304 119.251 140.984 119.251 140.984L125.063 132.372Z" fill="#2F2E41"/>
<path d="M95.4437 129.081C95.4437 129.081 90.9624 137.343 90.9624 138.324C90.9624 139.304 91.2425 142.105 91.2425 142.105L82.6999 144.205L79.759 142.805L80.7393 140.284C80.7393 140.284 86.0609 138.464 87.1813 134.963C88.3016 131.462 89.562 127.82 89.562 127.82L95.4437 129.081Z" fill="#FFB8B8"/>
<path d="M100.626 46.8761C103.874 46.8761 106.507 44.2427 106.507 40.9943C106.507 37.7459 103.874 35.1125 100.626 35.1125C97.3771 35.1125 94.7438 37.7459 94.7438 40.9943C94.7438 44.2427 97.3771 46.8761 100.626 46.8761Z" fill="#FFB8B8"/>
<path d="M99.0848 46.0358L101.893 54.1043L108.048 51.3574C108.048 51.3574 103.846 44.9154 103.846 44.0752L99.0848 46.0358Z" fill="#FFB8B8"/>
<path d="M98.2449 74.7444H105.667C105.667 74.7444 110.989 82.8669 107.908 91.4095C107.436 92.7176 106.968 94.5501 106.5 96.7166C105.425 101.699 104.355 108.448 103.258 114.65C101.717 123.361 100.124 130.993 98.392 131.131C94.891 131.411 88.0829 131.364 88.0829 129.964C88.0829 128.564 92.6432 88.0484 92.6432 88.0484L93.6235 86.3679L93.8087 79.0479C93.838 77.8927 94.3189 76.7951 95.1483 75.9905C95.9776 75.186 97.0894 74.7386 98.2449 74.7444Z" fill="#2F2E41"/>
<path d="M90.8925 138.254C90.8925 138.254 92.503 140.984 92.0829 142.945C91.6627 144.906 90.9625 144.625 87.8816 144.906C84.8007 145.186 74.2975 145.186 74.2975 143.225C74.2975 141.264 82.4909 138.718 82.5254 139.501C82.56 140.284 82.8401 141.825 81.9998 142.105C81.1596 142.385 81.9298 142.175 81.9298 142.175L90.8925 138.254Z" fill="#2F2E41"/>
<path d="M99.0861 92.224C99.0861 92.224 98.4769 102.172 94.4137 99.2105C90.3506 96.249 95.9972 90.8993 95.9972 90.8993L99.0861 92.224Z" fill="#FFB7B7"/>
<path d="M107.196 79.1222C107.391 79.2102 107.606 79.2435 107.819 79.2183C108.032 79.1931 108.234 79.1105 108.403 78.9793C108.649 78.7863 108.812 78.5076 108.861 78.1989C109.449 74.8124 110.164 65.4238 110.576 60.6764C111.093 54.7193 108.511 50.1054 108.489 50.0773L106.967 47.9851C106.809 47.7665 106.582 47.6078 106.322 47.5349C106.062 47.462 105.786 47.4792 105.537 47.5836C105.537 47.5836 100.787 52.5123 100.769 52.7026C100.695 53.5197 100.129 55.3305 97.1823 58.2774C93.9579 61.5018 93.94 64.316 94.0114 65.1018C94.0161 65.1534 94.0185 65.205 94.0186 65.2566C94.0125 65.6091 94.0603 65.9605 94.1606 66.2985C95.5111 70.5564 94.4535 75.654 92.7551 80.975C92.6907 81.2154 92.7027 81.4699 92.7893 81.7033C92.876 81.9366 93.0331 82.1372 93.2388 82.2773C93.7348 82.6148 93.14 82.114 93.3169 82.3308C94.4875 83.7651 96.1719 81.7661 98.0987 79.5848C98.7699 78.825 99.5307 77.9637 100.427 77.0671C101.66 75.8343 104.016 78.6475 105.111 78.6475C105.831 78.6562 106.542 78.818 107.196 79.1222Z" fill="#003736"/>
<path d="M107.849 52.2497C107.849 52.2497 110.925 54.8441 109.177 58.2088C107.43 61.5734 107.662 64.055 107.662 64.055C107.662 64.055 107.197 87.1692 101.736 86.0462L99.2515 92.9045L94.7651 91.2852L97.3594 85.236C97.3594 85.236 95.2815 85.1068 95.8887 83.691C96.3151 82.6966 98.6126 71.9058 99.9425 65.5703C100.506 62.8856 100.896 61.0009 100.896 61.0009C100.896 61.0009 102.663 51.5497 107.849 52.2497Z" fill="#003736"/>
<path opacity="0.2" d="M108.494 63.9957L106.764 75.3449L107.698 63.2095L108.494 63.9957Z" fill="black"/>
<path d="M94.2082 38.3882C94.2082 38.3882 93.2194 30.6926 101.288 33.2162C101.288 33.2162 107.05 32.1589 108.94 39.3668L110.853 46.9224L109.921 46.4148L109.486 47.3651L107.975 47.7478L107.328 46.4643L107.015 48.023L94.6384 49.2568C94.6384 49.2568 100.182 45.9785 100.27 40.103L99.2138 41.2188L94.2082 38.3882Z" fill="#2F2E41"/>
<path opacity="0.2" d="M103.412 115.092L106.172 96.7024L103.928 116.555L103.412 115.092Z" fill="black"/>
<path d="M107.923 36.4038C109.642 36.4038 111.035 35.0104 111.035 33.2916C111.035 31.5728 109.642 30.1794 107.923 30.1794C106.204 30.1794 104.811 31.5728 104.811 33.2916C104.811 35.0104 106.204 36.4038 107.923 36.4038Z" fill="#2F2E41"/>
<path d="M104.716 32.5296C104.767 31.74 105.118 30.9996 105.695 30.4592C106.273 29.9187 107.036 29.6189 107.827 29.6208C107.763 29.6127 107.699 29.6028 107.633 29.5986C107.225 29.5721 106.816 29.6263 106.429 29.7581C106.042 29.8898 105.685 30.0965 105.378 30.3664C105.071 30.6362 104.82 30.964 104.639 31.3309C104.459 31.6977 104.353 32.0966 104.326 32.5046C104.3 32.9125 104.355 33.3217 104.486 33.7087C104.618 34.0956 104.825 34.4528 105.095 34.7598C105.365 35.0667 105.693 35.3175 106.06 35.4977C106.427 35.6779 106.826 35.7841 107.234 35.8101C107.3 35.8143 107.364 35.8127 107.429 35.8128C106.644 35.7134 105.926 35.3184 105.422 34.7084C104.918 34.0984 104.666 33.3193 104.716 32.5296Z" fill="#2F2E41"/>
<path opacity="0.2" d="M99.0413 67.5324L96.3031 82.2081L99.8522 65.9987L99.0413 67.5324Z" fill="black"/>
<path d="M99.2123 45.233L97.6163 46.4363C95.9727 45.6092 94.74 43.6955 94.292 41.8689L96.0311 40.9915C96.1678 42.8544 97.4902 44.093 99.2123 45.233Z" fill="white"/>
<path d="M99.8748 41.2566H95.8983C95.8631 41.2566 95.8294 41.2426 95.8046 41.2177C95.7797 41.1929 95.7657 41.1592 95.7657 41.124C95.7657 41.0889 95.7797 41.0551 95.8046 41.0303C95.8294 41.0054 95.8631 40.9915 95.8983 40.9915H99.8748C99.9099 40.9915 99.9437 41.0054 99.9685 41.0303C99.9934 41.0551 100.007 41.0889 100.007 41.124C100.007 41.1592 99.9934 41.1929 99.9685 41.2177C99.9437 41.2426 99.9099 41.2566 99.8748 41.2566Z" fill="white"/>
<path d="M99.0796 45.2328C99.058 45.2328 99.0366 45.2275 99.0175 45.2174C98.9984 45.2072 98.982 45.1925 98.9699 45.1746C98.9578 45.1567 98.9502 45.136 98.9479 45.1145C98.9456 45.0929 98.9486 45.0712 98.9567 45.0511L100.017 42.4001C100.023 42.3839 100.033 42.3691 100.045 42.3566C100.057 42.3441 100.072 42.3341 100.088 42.3272C100.104 42.3203 100.121 42.3166 100.138 42.3164C100.156 42.3162 100.173 42.3194 100.189 42.3259C100.206 42.3324 100.22 42.342 100.233 42.3541C100.245 42.3663 100.255 42.3809 100.262 42.3969C100.269 42.4129 100.272 42.4301 100.273 42.4476C100.273 42.465 100.27 42.4823 100.263 42.4985L99.2026 45.1495C99.1928 45.1741 99.1758 45.1952 99.1539 45.21C99.132 45.2249 99.1061 45.2328 99.0796 45.2328Z" fill="white"/>
<path d="M100.143 42.8225C100.68 42.8225 101.115 42.2129 101.115 41.4609C101.115 40.709 100.68 40.0994 100.143 40.0994C99.6055 40.0994 99.17 40.709 99.17 41.4609C99.17 42.2129 99.6055 42.8225 100.143 42.8225Z" fill="#FFB8B8"/>
<path d="M24.3094 51.9286L41.2854 61.0369L41.0894 61.4039L24.1134 52.2957L24.3094 51.9286Z" fill="#3F3D56"/>
<path d="M3.10742 125.47C3.10742 125.47 2.97147 122.615 0.184546 122.947L3.10742 125.47Z" fill="#3F3D56"/>
<path d="M3.89496 122.753C3.12462 122.753 2.50012 122.127 2.50012 121.355C2.50012 120.582 3.12462 119.956 3.89496 119.956C4.66531 119.956 5.28979 120.582 5.28979 121.355C5.28979 122.127 4.66531 122.753 3.89496 122.753Z" fill="#1C9B9A"/>
<path d="M3.72797 123.709H4.1217V126.472H3.72797V123.709Z" fill="#3F3D56"/>
<path d="M35.9839 121.129C35.9839 121.129 35.8479 118.273 33.061 118.605L35.9839 121.129Z" fill="#3F3D56"/>
<path d="M36.7714 118.411C36.0011 118.411 35.3766 117.785 35.3766 117.013C35.3766 116.241 36.0011 115.615 36.7714 115.615C37.5418 115.615 38.1663 116.241 38.1663 117.013C38.1663 117.785 37.5418 118.411 36.7714 118.411Z" fill="#1C9B9A"/>
<path d="M36.6046 119.368H36.9983V122.13H36.6046V119.368Z" fill="#3F3D56"/>
<path d="M14.5254 117.379C14.5254 117.379 14.3894 114.524 11.6025 114.855L14.5254 117.379Z" fill="#3F3D56"/>
<path d="M15.3132 114.662C14.5428 114.662 13.9183 114.036 13.9183 113.263C13.9183 112.491 14.5428 111.865 15.3132 111.865C16.0835 111.865 16.708 112.491 16.708 113.263C16.708 114.036 16.0835 114.662 15.3132 114.662Z" fill="#1C9B9A"/>
<path d="M15.1461 115.618H15.5398V118.381H15.1461V115.618Z" fill="#3F3D56"/>
<path d="M36.9315 112.835C36.9315 112.835 36.9315 131.674 41.2447 136.616C41.2447 136.616 42.1689 139.087 42.477 140.013C42.6493 140.54 42.8551 141.056 43.0932 141.557V142.793C43.0932 142.793 51.4114 141.866 52.3357 139.704L50.7953 137.851C50.7953 137.851 50.4872 137.542 50.7953 136.616C51.1034 135.689 50.1791 135.689 50.1791 135.689L48.0225 130.748L48.3306 110.365L46.7902 82.2605L33.5426 81.6428L36.9315 112.835Z" fill="#2F2E41"/>
<path d="M43.7097 140.94C43.7097 140.94 41.5531 147.425 43.7097 147.734C45.8662 148.043 64.6593 148.352 64.3512 145.881C64.0432 143.41 57.8815 143.719 57.8815 143.719L51.4117 139.704L43.7097 140.94Z" fill="#2F2E41"/>
<path d="M24.6084 82.2605C24.6084 82.2605 23.9923 86.2754 26.4569 90.5991C28.9216 94.9228 27.3812 109.438 27.3812 109.438L5.50727 128.586C5.50727 128.586 9.82043 135.998 11.3608 135.689C12.9012 135.381 37.2398 115.615 37.2398 115.615L46.7904 83.4958L24.6084 82.2605Z" fill="#2F2E41"/>
<path d="M5.80778 127.768C5.80778 127.768 -0.811294 129.414 0.0830097 131.405C0.977312 133.397 10.7779 149.474 12.6947 147.89C14.6115 146.307 11.0527 141.255 11.0527 141.255L10.9719 133.628L5.80778 127.768Z" fill="#2F2E41"/>
<path d="M29.538 24.8173C29.5356 26.4443 30.0935 28.0223 31.1176 29.2846C31.9273 30.2906 32.9962 31.0554 34.2084 31.4962C35.4206 31.9369 36.73 32.0368 37.9949 31.7851C38.6282 31.6624 39.2411 31.451 39.8156 31.157C40.7281 30.696 41.5303 30.0425 42.167 29.2413C42.8037 28.4402 43.2599 27.5104 43.5043 26.5158C43.642 25.9602 43.7111 25.3898 43.7102 24.8173C43.7102 22.9334 42.9636 21.1266 41.6347 19.7944C40.3058 18.4623 38.5035 17.7139 36.6241 17.7139C34.7448 17.7139 32.9424 18.4623 31.6135 19.7944C30.2846 21.1266 29.538 22.9334 29.538 24.8173Z" fill="#A0616A"/>
<path d="M31.0485 27.323L31.3619 36.4636L37.3242 38.8251C37.3242 38.8251 37.9089 29.4658 38.7343 28.9469C39.5596 28.428 31.0485 27.323 31.0485 27.323Z" fill="#A0616A"/>
<path d="M38.7801 39.9498C38.7801 39.9498 30.4619 31.6112 28.3053 31.92C26.1487 32.2288 26.1487 33.1553 26.1487 33.773C26.1487 34.3907 26.7649 34.6995 26.1487 35.0084C25.5326 35.3172 24.9164 35.0084 24.9164 35.9349C24.9164 36.8614 19.3709 46.1265 21.2194 56.3181C23.0679 66.5098 25.2245 71.4512 24.3002 77.0102C23.376 82.5693 23.9922 83.8047 23.9922 83.8047C23.9922 83.8047 47.0984 85.6577 47.4065 83.4958C47.7146 81.334 46.4822 82.5693 48.0226 81.0251C49.5631 79.4809 48.9469 79.4809 48.9469 78.5544C48.9469 77.6279 42.1691 39.9498 38.7801 39.9498Z" fill="#003736"/>
<path d="M34.4671 81.9517C34.4671 81.9517 38.1641 90.9079 40.9369 88.7461C43.7096 86.5842 39.7045 79.1721 39.7045 79.1721L34.4671 81.9517Z" fill="#A0616A"/>
<path d="M25.5325 40.5676C25.5325 40.5676 18.2941 41.3983 20.9891 54.7262C23.684 68.0541 34.1588 83.496 34.1588 83.496L41.2448 80.0987L32.0023 61.8773L34.1588 50.4504C34.1588 50.4504 35.3912 39.6411 25.5325 40.5676Z" fill="#003736"/>
<path opacity="0.2" d="M31.8483 62.0317L42.0151 79.0178L41.0909 79.9443L31.8483 62.0317Z" fill="black"/>
<path opacity="0.2" d="M26.4672 69.9473L34.6213 83.3414H31.8485L26.4672 69.9473Z" fill="black"/>
<path opacity="0.2" d="M44.8862 94.2882L45.2958 94.4448L37.1886 115.753L36.779 115.597L44.8862 94.2882Z" fill="black"/>
<path d="M38.7368 41.6455C38.4947 41.6455 38.2985 41.4488 38.2985 41.2062C38.2985 40.9635 38.4947 40.7668 38.7368 40.7668C38.9788 40.7668 39.175 40.9635 39.175 41.2062C39.175 41.4488 38.9788 41.6455 38.7368 41.6455Z" fill="#D0CDE1"/>
<path d="M42.4618 53.5077C42.415 53.5077 42.3694 53.4927 42.3317 53.4648C42.2941 53.4369 42.2663 53.3977 42.2525 53.3528L38.5272 41.271C38.5187 41.2434 38.5156 41.2144 38.5182 41.1857C38.5209 41.1569 38.5291 41.129 38.5425 41.1034C38.5559 41.0779 38.5743 41.0552 38.5964 41.0368C38.6186 41.0183 38.6441 41.0044 38.6717 40.9959C38.6992 40.9874 38.7281 40.9843 38.7568 40.987C38.7855 40.9897 38.8133 40.9981 38.8388 41.0116C38.8643 41.0251 38.8868 41.0434 38.9052 41.0657C38.9235 41.0879 38.9373 41.1136 38.9458 41.1412L42.6711 53.2232C42.6812 53.2561 42.6834 53.2909 42.6777 53.3247C42.6719 53.3586 42.6583 53.3907 42.638 53.4184C42.6176 53.446 42.5911 53.4685 42.5605 53.484C42.5299 53.4995 42.4961 53.5077 42.4618 53.5077V53.5077Z" fill="#D0CDE1"/>
<path d="M38.0449 30.2577L39.8157 31.9465C41.6394 31.0265 43.4009 28.5475 43.8981 26.5158L41.5747 25.5398C41.423 27.612 39.9557 28.9896 38.0449 30.2577Z" fill="white"/>
<path d="M37.6029 26.4244C37.6099 26.4245 37.6169 26.424 37.6239 26.423L41.742 25.8332C41.7611 25.8305 41.7795 25.8241 41.7962 25.8142C41.8128 25.8043 41.8273 25.7913 41.8389 25.7758C41.8505 25.7603 41.859 25.7427 41.8638 25.724C41.8686 25.7052 41.8697 25.6857 41.8669 25.6665C41.8642 25.6473 41.8578 25.6289 41.8479 25.6122C41.8381 25.5956 41.8251 25.581 41.8097 25.5694C41.7942 25.5577 41.7766 25.5493 41.7579 25.5444C41.7392 25.5396 41.7198 25.5385 41.7006 25.5413L37.5825 26.131C37.5457 26.1362 37.5122 26.1553 37.4888 26.1842C37.4654 26.2132 37.4538 26.25 37.4564 26.2872C37.459 26.3244 37.4756 26.3593 37.5027 26.3847C37.5299 26.4102 37.5657 26.4244 37.6029 26.4244Z" fill="white"/>
<path d="M38.1918 30.2578C38.2175 30.2578 38.2427 30.2511 38.265 30.2383C38.2873 30.2255 38.3058 30.207 38.3188 30.1848C38.3317 30.1626 38.3387 30.1373 38.3389 30.1116C38.3391 30.0858 38.3325 30.0605 38.3199 30.0381L36.9554 27.6031C36.946 27.5861 36.9333 27.5713 36.9181 27.5592C36.9029 27.5472 36.8855 27.5384 36.8669 27.5331C36.8483 27.5278 36.8288 27.5263 36.8096 27.5286C36.7904 27.5309 36.7718 27.537 36.755 27.5465C36.7381 27.556 36.7233 27.5688 36.7114 27.5841C36.6994 27.5993 36.6906 27.6168 36.6854 27.6355C36.6803 27.6542 36.6788 27.6737 36.6812 27.6929C36.6835 27.7122 36.6896 27.7308 36.6992 27.7476L38.0637 30.1826C38.0764 30.2054 38.095 30.2244 38.1175 30.2376C38.1401 30.2509 38.1657 30.2578 38.1918 30.2578Z" fill="white"/>
<path d="M33.4167 29.0851C33.9903 28.7811 34.6567 28.7184 35.2776 28.5294C37.499 27.8533 38.9871 25.3359 38.512 23.0579C38.4242 22.7657 38.3848 22.4611 38.3953 22.1562C38.4784 21.4815 39.1671 21.0462 39.8274 20.8916C40.4878 20.737 41.1904 20.7594 41.8216 20.5109C42.7961 20.1271 43.4435 19.1231 43.5838 18.083C43.7241 17.0428 43.4162 15.982 42.9155 15.0602L42.6769 15.7483C42.3132 15.4396 42.0431 15.0347 41.8976 14.5797C41.6265 14.6254 41.3716 14.7401 41.1574 14.9128C40.9432 15.0854 40.7768 15.3104 40.6741 15.566C40.2913 15.7923 40.2361 14.8629 39.8132 14.7257C39.6361 14.6683 39.454 14.7774 39.2853 14.8563C38.4331 15.2547 37.443 14.914 36.5288 14.6932C34.9459 14.3125 33.2958 14.3106 31.7119 14.6875C30.6596 14.9391 29.6181 15.3772 28.8651 16.1558C28.2467 16.7953 27.8615 17.6221 27.5334 18.4498C26.7258 20.4872 26.1923 22.6918 26.4589 24.8678C26.6809 26.6485 27.4241 28.3233 28.5946 29.6811C29.2044 30.3854 31.1938 32.8424 32.2846 32.4235C33.6552 31.8971 31.8017 29.9411 33.4167 29.0851Z" fill="#2F2E41"/>
</svg>
