<svg width="211" height="160" viewBox="0 0 211 160" fill="none" xmlns="http://www.w3.org/2000/svg">
<path d="M99.1893 19.5593C99.7366 19.5593 100.18 19.1173 100.18 18.572C100.18 18.0267 99.7366 17.5847 99.1893 17.5847C98.6421 17.5847 98.1985 18.0267 98.1985 18.572C98.1985 19.1173 98.6421 19.5593 99.1893 19.5593Z" fill="#CCCCCC"/>
<path d="M97.0766 59.165C98.1576 59.165 99.034 58.2917 99.034 57.2146C99.034 56.1374 98.1576 55.2642 97.0766 55.2642C95.9955 55.2642 95.1191 56.1374 95.1191 57.2146C95.1191 58.2917 95.9955 59.165 97.0766 59.165Z" fill="#CCCCCC"/>
<path d="M64.2978 51.6549C64.9225 51.6549 65.4289 51.1504 65.4289 50.5279C65.4289 49.9055 64.9225 49.4009 64.2978 49.4009C63.6731 49.4009 63.1667 49.9055 63.1667 50.5279C63.1667 51.1504 63.6731 51.6549 64.2978 51.6549Z" fill="#CCCCCC"/>
<path d="M81.4851 33.2008C82.1616 33.2008 82.71 32.6543 82.71 31.9803C82.71 31.3062 82.1616 30.7598 81.4851 30.7598C80.8087 30.7598 80.2603 31.3062 80.2603 31.9803C80.2603 32.6543 80.8087 33.2008 81.4851 33.2008Z" fill="#CCCCCC"/>
<path d="M141.777 104.658C142.324 104.658 142.767 104.216 142.767 103.671C142.767 103.126 142.324 102.684 141.777 102.684C141.229 102.684 140.786 103.126 140.786 103.671C140.786 104.216 141.229 104.658 141.777 104.658Z" fill="#CCCCCC"/>
<path d="M109.316 84.3569C110.397 84.3569 111.273 83.4836 111.273 82.4065C111.273 81.3293 110.397 80.4561 109.316 80.4561C108.235 80.4561 107.359 81.3293 107.359 82.4065C107.359 83.4836 108.235 84.3569 109.316 84.3569Z" fill="#CCCCCC"/>
<path d="M131.613 58.6818C132.238 58.6818 132.744 58.1772 132.744 57.5548C132.744 56.9323 132.238 56.4277 131.613 56.4277C130.989 56.4277 130.482 56.9323 130.482 57.5548C130.482 58.1772 130.989 58.6818 131.613 58.6818Z" fill="#CCCCCC"/>
<path d="M139.053 82.9046C139.73 82.9046 140.278 82.3582 140.278 81.6841C140.278 81.0101 139.73 80.4636 139.053 80.4636C138.377 80.4636 137.828 81.0101 137.828 81.6841C137.828 82.3582 138.377 82.9046 139.053 82.9046Z" fill="#CCCCCC"/>
<path d="M205.048 145.766C206.13 144.864 204.669 141.352 201.785 137.922C198.902 134.491 195.688 132.441 194.607 133.343C193.526 134.245 194.987 137.756 197.87 141.187C200.754 144.617 203.967 146.667 205.048 145.766Z" fill="#2F2E41"/>
<path d="M182.528 152.943C191.511 152.943 198.793 145.689 198.793 136.741C198.793 127.793 191.511 120.539 182.528 120.539C173.545 120.539 166.263 127.793 166.263 136.741C166.263 145.689 173.545 152.943 182.528 152.943Z" fill="#2F2E41"/>
<path d="M189.411 149.457H184.471V158.275H189.411V149.457Z" fill="#2F2E41"/>
<path d="M179.528 149.457H174.588V158.275H179.528V149.457Z" fill="#2F2E41"/>
<path d="M185.295 159.916C187.569 159.916 189.413 159.227 189.413 158.378C189.413 157.528 187.569 156.84 185.295 156.84C183.021 156.84 181.177 157.528 181.177 158.378C181.177 159.227 183.021 159.916 185.295 159.916Z" fill="#2F2E41"/>
<path d="M175.413 159.711C177.687 159.711 179.53 159.022 179.53 158.173C179.53 157.323 177.687 156.635 175.413 156.635C173.138 156.635 171.295 157.323 171.295 158.173C171.295 159.022 173.138 159.711 175.413 159.711Z" fill="#2F2E41"/>
<path d="M177.421 116.375C178.873 110.549 185.284 107.12 191.74 108.717C198.195 110.314 202.252 116.331 200.799 122.158C199.347 127.984 194.529 128.003 188.073 126.406C181.617 124.809 175.969 122.201 177.421 116.375Z" fill="#1C9B9A"/>
<path d="M167.16 133.908C166.703 132.579 162.896 132.696 158.656 134.169C154.416 135.642 151.35 137.913 151.807 139.242C152.265 140.571 156.072 140.455 160.312 138.982C164.552 137.509 167.618 135.237 167.16 133.908Z" fill="#2F2E41"/>
<path d="M180.096 138.725C183.091 138.725 185.519 136.306 185.519 133.323C185.519 130.34 183.091 127.921 180.096 127.921C177.101 127.921 174.674 130.34 174.674 133.323C174.674 136.306 177.101 138.725 180.096 138.725Z" fill="white"/>
<path d="M177.868 133.187C178.866 133.187 179.675 132.381 179.675 131.387C179.675 130.392 178.866 129.586 177.868 129.586C176.87 129.586 176.061 130.392 176.061 131.387C176.061 132.381 176.87 133.187 177.868 133.187Z" fill="#3F3D56"/>
<path d="M176.39 146.945C176.305 146.48 176.313 146.002 176.413 145.54C176.513 145.078 176.704 144.64 176.974 144.251C177.244 143.862 177.588 143.53 177.987 143.274C178.386 143.017 178.832 142.842 179.299 142.757C179.766 142.673 180.245 142.68 180.709 142.78C181.174 142.88 181.613 143.07 182.004 143.339C182.394 143.608 182.727 143.951 182.985 144.348C183.242 144.746 183.418 145.19 183.503 145.655L183.504 145.662C183.86 147.619 182.341 148.312 180.377 148.666C178.412 149.02 176.746 148.902 176.39 146.945Z" fill="white"/>
<path d="M50.8481 141.269C54.7573 143.449 58.4801 144.217 59.1632 142.985C59.8463 141.753 57.231 138.986 53.3217 136.806C49.4125 134.626 45.6897 133.858 45.0066 135.09C44.3235 136.322 46.9389 139.088 50.8481 141.269Z" fill="#2F2E41"/>
<path d="M31.3909 152.943C40.3737 152.943 47.6556 145.689 47.6556 136.741C47.6556 127.793 40.3737 120.539 31.3909 120.539C22.4082 120.539 15.1262 127.793 15.1262 136.741C15.1262 145.689 22.4082 152.943 31.3909 152.943Z" fill="#2F2E41"/>
<path d="M28.9188 149.457H23.979V158.275H28.9188V149.457Z" fill="#2F2E41"/>
<path d="M38.8018 149.457H33.8621V158.275H38.8018V149.457Z" fill="#2F2E41"/>
<path d="M28.0967 159.916C30.3708 159.916 32.2143 159.227 32.2143 158.378C32.2143 157.528 30.3708 156.84 28.0967 156.84C25.8225 156.84 23.979 157.528 23.979 158.378C23.979 159.227 25.8225 159.916 28.0967 159.916Z" fill="#2F2E41"/>
<path d="M37.9797 159.711C40.2538 159.711 42.0974 159.022 42.0974 158.173C42.0974 157.323 40.2538 156.635 37.9797 156.635C35.7056 156.635 33.8621 157.323 33.8621 158.173C33.8621 159.022 35.7056 159.711 37.9797 159.711Z" fill="#2F2E41"/>
<path d="M31.5563 136.93C34.5543 136.93 36.9846 135.107 36.9846 132.859C36.9846 130.61 34.5543 128.787 31.5563 128.787C28.5583 128.787 26.1279 130.61 26.1279 132.859C26.1279 135.107 28.5583 136.93 31.5563 136.93Z" fill="white"/>
<path d="M34.0746 132.58C35.0977 132.58 35.927 131.754 35.927 130.735C35.927 129.715 35.0977 128.889 34.0746 128.889C33.0515 128.889 32.2222 129.715 32.2222 130.735C32.2222 131.754 33.0515 132.58 34.0746 132.58Z" fill="#3F3D56"/>
<path d="M15.6137 121.674C14.3004 115.815 18.4985 109.895 24.9904 108.451C31.4823 107.007 37.8097 110.586 39.123 116.445C40.4363 122.304 36.1339 124.465 29.642 125.909C23.1501 127.353 16.927 127.533 15.6137 121.674Z" fill="#1C9B9A"/>
<path d="M18.7903 137.328C17.7727 136.359 14.4459 138.215 11.3596 141.473C8.27328 144.732 6.59625 148.159 7.61382 149.129C8.63139 150.099 11.9582 148.243 15.0445 144.984C18.1308 141.726 19.8079 138.298 18.7903 137.328Z" fill="#2F2E41"/>
<path d="M39.6987 145.232C39.6987 144.266 36.1943 142.358 32.3056 142.358C28.4169 142.358 24.7708 145.078 24.7708 146.044C24.7708 147.01 28.4169 145.856 32.3056 145.856C36.1942 145.856 39.6987 146.198 39.6987 145.232Z" fill="white"/>
<path d="M109.082 137.518C118.065 137.518 125.347 130.265 125.347 121.317C125.347 112.369 118.065 105.115 109.082 105.115C100.1 105.115 92.8176 112.369 92.8176 121.317C92.8176 130.265 100.1 137.518 109.082 137.518Z" fill="#2F2E41"/>
<path d="M106.611 134.032H101.671V142.851H106.611V134.032Z" fill="#2F2E41"/>
<path d="M116.492 134.032H111.552V142.851H116.492V134.032Z" fill="#2F2E41"/>
<path d="M105.789 144.492C108.063 144.492 109.906 143.803 109.906 142.954C109.906 142.104 108.063 141.416 105.789 141.416C103.514 141.416 101.671 142.104 101.671 142.954C101.671 143.803 103.514 144.492 105.789 144.492Z" fill="#2F2E41"/>
<path d="M115.67 144.287C117.944 144.287 119.788 143.598 119.788 142.749C119.788 141.899 117.944 141.211 115.67 141.211C113.396 141.211 111.552 141.899 111.552 142.749C111.552 143.598 113.396 144.287 115.67 144.287Z" fill="#2F2E41"/>
<path d="M93.3056 106.25C91.9923 100.391 96.1904 94.471 102.682 93.027C109.174 91.583 115.502 95.162 116.815 101.021C118.128 106.88 113.826 109.041 107.334 110.484C100.842 111.928 94.6189 112.109 93.3056 106.25Z" fill="#A5A6F6"/>
<path d="M125.343 132.116C129.173 135.29 133.081 136.885 134.073 135.679C135.065 134.473 132.764 130.922 128.935 127.748C125.105 124.575 121.197 122.98 120.205 124.186C119.213 125.392 121.514 128.942 125.343 132.116Z" fill="#2F2E41"/>
<path d="M95.9552 123.91C94.8027 122.856 91.1596 124.989 87.8182 128.673C84.4768 132.357 82.7024 136.198 83.8549 137.251C85.0074 138.304 88.6504 136.172 91.9918 132.488C95.3332 128.804 97.1077 124.963 95.9552 123.91Z" fill="#2F2E41"/>
<path d="M59.6698 160H0.377657C0.277496 160 0.181443 159.96 0.110619 159.89C0.0397942 159.819 0 159.724 0 159.624C0 159.524 0.0397942 159.428 0.110619 159.358C0.181443 159.287 0.277496 159.248 0.377657 159.248H59.6698C59.77 159.248 59.8661 159.287 59.9369 159.358C60.0077 159.428 60.0475 159.524 60.0475 159.624C60.0475 159.724 60.0077 159.819 59.9369 159.89C59.8661 159.96 59.77 160 59.6698 160Z" fill="#CCCCCC"/>
<path d="M210.355 160H151.062C150.962 160 150.866 159.96 150.795 159.89C150.725 159.819 150.685 159.724 150.685 159.624C150.685 159.524 150.725 159.428 150.795 159.358C150.866 159.287 150.962 159.248 151.062 159.248H210.355C210.455 159.248 210.551 159.287 210.622 159.358C210.692 159.428 210.732 159.524 210.732 159.624C210.732 159.724 210.692 159.819 210.622 159.89C210.551 159.96 210.455 160 210.355 160Z" fill="#CCCCCC"/>
<path d="M139.733 144.576H80.4409C80.3407 144.576 80.2447 144.536 80.1738 144.465C80.103 144.395 80.0632 144.299 80.0632 144.199C80.0632 144.1 80.103 144.004 80.1738 143.933C80.2447 143.863 80.3407 143.823 80.4409 143.823H139.733C139.833 143.823 139.929 143.863 140 143.933C140.071 144.004 140.111 144.1 140.111 144.199C140.111 144.299 140.071 144.395 140 144.465C139.929 144.536 139.833 144.576 139.733 144.576Z" fill="#CCCCCC"/>
<path d="M108.397 124.558C111.467 124.558 113.956 122.079 113.956 119.021C113.956 115.963 111.467 113.484 108.397 113.484C105.327 113.484 102.838 115.963 102.838 119.021C102.838 122.079 105.327 124.558 108.397 124.558Z" fill="white"/>
<path d="M106.297 119.247C107.32 119.247 108.149 118.421 108.149 117.401C108.149 116.382 107.32 115.556 106.297 115.556C105.274 115.556 104.445 116.382 104.445 117.401C104.445 118.421 105.274 119.247 106.297 119.247Z" fill="#3F3D56"/>
<path d="M106.251 132.026C106.089 131.61 106.287 131.18 106.799 130.832C107.311 130.484 108.097 130.246 108.983 130.17C109.869 130.094 110.782 130.187 111.523 130.428C112.263 130.669 112.77 131.038 112.931 131.455L112.932 131.458C113.266 132.325 111.314 133.043 109.589 132.18C107.863 131.317 106.585 132.894 106.251 132.026Z" fill="white"/>
<path d="M56.1812 82.3627C63.8906 82.3627 70.1403 76.113 70.1403 68.4036C70.1403 60.6943 63.8906 54.4446 56.1812 54.4446C48.4718 54.4446 42.2222 60.6943 42.2222 68.4036C42.2222 76.113 48.4718 82.3627 56.1812 82.3627Z" fill="#A5A6F6"/>
<path d="M49.4985 65.7961C49.3379 65.7961 49.2078 66.8379 49.2078 68.1224C49.2078 69.4068 49.3379 70.4495 49.4985 70.4495H63.2245C63.3851 70.4704 63.5178 69.4462 63.5205 68.1617C63.6096 67.3619 63.5116 66.5524 63.234 65.797H49.4985V65.7961Z" fill="white"/>
<path d="M157.293 55.696C165.002 55.696 171.252 49.4463 171.252 41.7369C171.252 34.0275 165.002 27.7778 157.293 27.7778C149.583 27.7778 143.333 34.0275 143.333 41.7369C143.333 49.4463 149.583 55.696 157.293 55.696Z" fill="#A5A6F6"/>
<path d="M150.61 39.1296C150.449 39.1296 150.319 40.1714 150.319 41.4559C150.319 42.7403 150.449 43.783 150.61 43.783H164.336C164.496 43.8039 164.629 42.7796 164.632 41.4952C164.721 40.6954 164.623 39.8859 164.345 39.1305H150.61V39.1296Z" fill="white"/>
<path d="M102.848 27.9181C110.557 27.9181 116.807 21.6684 116.807 13.9591C116.807 6.24968 110.557 0 102.848 0C95.1386 0 88.8889 6.24968 88.8889 13.9591C88.8889 21.6684 95.1386 27.9181 102.848 27.9181Z" fill="#A5A6F6"/>
<path d="M96.1651 11.3518C96.0044 11.3518 95.8743 12.3935 95.8743 13.678C95.8743 14.9625 96.0044 16.0051 96.1651 16.0051H109.891C110.052 16.0261 110.184 15.0018 110.187 13.7173C110.276 12.9176 110.178 12.108 109.901 11.3527H96.1651V11.3518Z" fill="white"/>
</svg>
