<svg width="179" height="160" viewBox="0 0 179 160" fill="none" xmlns="http://www.w3.org/2000/svg">
<path d="M44.1733 40.5864C41.1077 31.4579 31.6408 26.3845 25.4129 28.4599C19.185 30.5353 14.6884 40.2619 17.754 49.3904C20.5916 57.8399 29.1899 62.7178 35.105 61.8473C35.0623 61.9212 35.0342 62.0025 35.0222 62.0869L34.8414 63.5896C34.8276 63.7042 34.8434 63.8203 34.8874 63.9271C34.9313 64.0338 35.0019 64.1276 35.0925 64.1995C35.1831 64.2714 35.2906 64.319 35.4049 64.3379C35.5191 64.3568 35.6363 64.3462 35.7454 64.3073L38.7923 63.219C38.9013 63.1801 38.9985 63.114 39.0747 63.0271C39.1509 62.9402 39.2035 62.8354 39.2276 62.7225C39.2517 62.6096 39.2464 62.4925 39.2122 62.3823C39.1781 62.272 39.1162 62.1723 39.0325 62.0926L37.9342 61.0468C37.8952 61.0112 37.852 60.9803 37.8057 60.9548C43.0814 58.1227 47.0171 49.0543 44.1733 40.5864Z" fill="#003736"/>
<path d="M33.0751 33.8706C35.6209 35.1794 37.5652 37.412 38.5065 40.1074C39.4478 42.8028 39.3143 45.7553 38.1336 48.3555C37.8699 48.9534 38.8395 49.2678 39.1014 48.6738C40.3411 45.8604 40.4672 42.6841 39.4544 39.782C38.4416 36.8798 36.3648 34.4663 33.6405 33.0256C33.0655 32.7221 32.4958 33.5648 33.0751 33.8706Z" fill="white"/>
<path d="M168.289 27.2802C165.223 18.1518 155.756 13.0783 149.528 15.1537C143.3 17.2291 138.804 26.9557 141.869 36.0842C144.707 44.5337 153.305 49.4116 159.22 48.5411C159.178 48.615 159.149 48.6964 159.137 48.7808L158.957 50.2834C158.943 50.398 158.959 50.5142 159.003 50.6209C159.047 50.7276 159.117 50.8214 159.208 50.8933C159.298 50.9652 159.406 51.0129 159.52 51.0317C159.634 51.0506 159.752 51.0401 159.861 51.0011L162.908 49.9128C163.017 49.8739 163.114 49.8078 163.19 49.721C163.266 49.6341 163.319 49.5292 163.343 49.4163C163.367 49.3035 163.362 49.1864 163.327 49.0761C163.293 48.9659 163.231 48.8662 163.148 48.7864L162.049 47.7406C162.01 47.705 161.967 47.6742 161.921 47.6486C167.197 44.8165 171.132 35.7481 168.289 27.2802Z" fill="#1C9B9A"/>
<path d="M157.191 20.5645C159.737 21.8733 161.681 24.1058 162.622 26.8012C163.563 29.4966 163.43 32.4491 162.249 35.0493C161.986 35.6472 162.955 35.9616 163.217 35.3677C164.457 32.5542 164.583 29.378 163.57 26.4758C162.557 23.5736 160.481 21.1602 157.756 19.7194C157.181 19.4159 156.612 20.2587 157.191 20.5645Z" fill="white"/>
<path d="M96.2124 12.5883C93.1468 3.45989 83.6798 -1.61357 77.452 0.461818C71.2241 2.5372 66.7275 12.2639 69.7931 21.3923C72.6307 29.8418 81.229 34.7197 87.144 33.8492C87.1014 33.9231 87.0733 34.0045 87.0613 34.0889L86.8804 35.5916C86.8666 35.7061 86.8825 35.8223 86.9264 35.929C86.9704 36.0357 87.041 36.1295 87.1316 36.2014C87.2222 36.2733 87.3297 36.321 87.4439 36.3398C87.5582 36.3587 87.6754 36.3482 87.7844 36.3092L90.8313 35.2209C90.9403 35.182 91.0376 35.116 91.1138 35.0291C91.19 34.9422 91.2426 34.8373 91.2667 34.7244C91.2907 34.6116 91.2855 34.4945 91.2513 34.3842C91.2172 34.274 91.1553 34.1743 91.0716 34.0945L89.9733 33.0487C89.9342 33.0131 89.8911 32.9823 89.8448 32.9567C95.1204 30.1246 99.0561 21.0562 96.2124 12.5883Z" fill="#1C9B9A"/>
<path d="M85.1141 5.87256C87.66 7.18139 89.6042 9.41392 90.5455 12.1093C91.4868 14.8047 91.3533 17.7572 90.1726 20.3574C89.909 20.9553 90.8785 21.2697 91.1404 20.6758C92.3801 17.8623 92.5062 14.6861 91.4934 11.7839C90.4806 8.88174 88.4039 6.46829 85.6795 5.02755C85.1045 4.72402 84.5349 5.56678 85.1141 5.87256Z" fill="white"/>
<path d="M80.8371 56.5129C81.2403 56.5129 81.5672 56.1872 81.5672 55.7854C81.5672 55.3836 81.2403 55.0579 80.8371 55.0579C80.4338 55.0579 80.1069 55.3836 80.1069 55.7854C80.1069 56.1872 80.4338 56.5129 80.8371 56.5129Z" fill="#CCCCCC"/>
<path d="M79.2807 85.6972C80.0773 85.6972 80.7231 85.0537 80.7231 84.26C80.7231 83.4662 80.0773 82.8228 79.2807 82.8228C78.4841 82.8228 77.8384 83.4662 77.8384 84.26C77.8384 85.0537 78.4841 85.6972 79.2807 85.6972Z" fill="#CCCCCC"/>
<path d="M55.1264 80.1632C55.5867 80.1632 55.9599 79.7913 55.9599 79.3327C55.9599 78.874 55.5867 78.5022 55.1264 78.5022C54.6661 78.5022 54.293 78.874 54.293 79.3327C54.293 79.7913 54.6661 80.1632 55.1264 80.1632Z" fill="#CCCCCC"/>
<path d="M67.7918 66.5648C68.2902 66.5648 68.6943 66.1622 68.6943 65.6655C68.6943 65.1688 68.2902 64.7661 67.7918 64.7661C67.2933 64.7661 66.8892 65.1688 66.8892 65.6655C66.8892 66.1622 67.2933 66.5648 67.7918 66.5648Z" fill="#CCCCCC"/>
<path d="M112.218 119.22C112.622 119.22 112.949 118.894 112.949 118.493C112.949 118.091 112.622 117.765 112.218 117.765C111.815 117.765 111.488 118.091 111.488 118.493C111.488 118.894 111.815 119.22 112.218 119.22Z" fill="#CCCCCC"/>
<path d="M88.2993 104.261C89.0959 104.261 89.7417 103.617 89.7417 102.823C89.7417 102.03 89.0959 101.386 88.2993 101.386C87.5027 101.386 86.8569 102.03 86.8569 102.823C86.8569 103.617 87.5027 104.261 88.2993 104.261Z" fill="#CCCCCC"/>
<path d="M104.729 85.3411C105.19 85.3411 105.563 84.9693 105.563 84.5106C105.563 84.052 105.19 83.6802 104.729 83.6802C104.269 83.6802 103.896 84.052 103.896 84.5106C103.896 84.9693 104.269 85.3411 104.729 85.3411Z" fill="#CCCCCC"/>
<path d="M110.212 103.191C110.71 103.191 111.114 102.788 111.114 102.291C111.114 101.795 110.71 101.392 110.212 101.392C109.713 101.392 109.309 101.795 109.309 102.291C109.309 102.788 109.713 103.191 110.212 103.191Z" fill="#CCCCCC"/>
<path d="M158.842 149.511C159.639 148.847 158.562 146.259 156.438 143.731C154.313 141.203 151.945 139.693 151.148 140.357C150.352 141.022 151.428 143.609 153.553 146.137C155.678 148.665 158.046 150.176 158.842 149.511Z" fill="#2F2E41"/>
<path d="M142.247 154.8C148.866 154.8 154.232 149.455 154.232 142.861C154.232 136.267 148.866 130.922 142.247 130.922C135.628 130.922 130.262 136.267 130.262 142.861C130.262 149.455 135.628 154.8 142.247 154.8Z" fill="#2F2E41"/>
<path d="M147.319 152.231H143.679V158.729H147.319V152.231Z" fill="#2F2E41"/>
<path d="M140.037 152.231H136.397V158.729H140.037V152.231Z" fill="#2F2E41"/>
<path d="M144.287 159.938C145.962 159.938 147.321 159.431 147.321 158.805C147.321 158.179 145.962 157.671 144.287 157.671C142.611 157.671 141.252 158.179 141.252 158.805C141.252 159.431 142.611 159.938 144.287 159.938Z" fill="#2F2E41"/>
<path d="M137.004 159.787C138.68 159.787 140.038 159.279 140.038 158.653C140.038 158.027 138.68 157.52 137.004 157.52C135.328 157.52 133.97 158.027 133.97 158.653C133.97 159.279 135.328 159.787 137.004 159.787Z" fill="#2F2E41"/>
<path d="M138.484 127.854C139.555 123.561 144.278 121.034 149.036 122.211C153.793 123.387 156.781 127.822 155.711 132.115C154.641 136.408 151.091 136.422 146.334 135.245C141.577 134.068 137.414 132.147 138.484 127.854Z" fill="#1C9B9A"/>
<path d="M134.163 139.88C134.608 138.945 132.545 137.041 129.555 135.628C126.564 134.216 123.779 133.828 123.334 134.764C122.889 135.699 124.952 137.602 127.942 139.015C130.933 140.428 133.718 140.815 134.163 139.88Z" fill="#2F2E41"/>
<path d="M140.456 144.322C142.663 144.322 144.452 142.54 144.452 140.342C144.452 138.144 142.663 136.362 140.456 136.362C138.249 136.362 136.46 138.144 136.46 140.342C136.46 142.54 138.249 144.322 140.456 144.322Z" fill="white"/>
<path d="M138.813 140.242C139.548 140.242 140.145 139.648 140.145 138.915C140.145 138.182 139.548 137.588 138.813 137.588C138.078 137.588 137.481 138.182 137.481 138.915C137.481 139.648 138.078 140.242 138.813 140.242Z" fill="#3F3D56"/>
<path d="M142.962 148.635C143.025 148.978 143.019 149.33 142.945 149.67C142.871 150.011 142.731 150.334 142.532 150.62C142.333 150.907 142.079 151.152 141.785 151.34C141.491 151.529 141.162 151.659 140.818 151.721C140.474 151.783 140.121 151.778 139.779 151.704C139.437 151.631 139.113 151.491 138.825 151.292C138.538 151.094 138.292 150.841 138.102 150.548C137.913 150.256 137.783 149.928 137.72 149.586L137.719 149.58C137.457 148.138 138.577 147.628 140.024 147.367C141.472 147.106 142.7 147.193 142.962 148.635Z" fill="white"/>
<path d="M43.7121 134.514C44.8937 131.435 45.065 128.639 44.0947 128.27C43.1245 127.9 41.3801 130.097 40.1985 133.177C39.0169 136.256 38.8456 139.052 39.8159 139.421C40.7862 139.791 42.5306 137.594 43.7121 134.514Z" fill="#2F2E41"/>
<path d="M30.8786 154.8C37.4977 154.8 42.8636 149.455 42.8636 142.861C42.8636 136.267 37.4977 130.922 30.8786 130.922C24.2594 130.922 18.8936 136.267 18.8936 142.861C18.8936 149.455 24.2594 154.8 30.8786 154.8Z" fill="#2F2E41"/>
<path d="M29.057 152.231H25.417V158.729H29.057V152.231Z" fill="#2F2E41"/>
<path d="M36.3392 152.231H32.6992V158.729H36.3392V152.231Z" fill="#2F2E41"/>
<path d="M28.4512 159.938C30.1269 159.938 31.4854 159.431 31.4854 158.805C31.4854 158.179 30.1269 157.671 28.4512 157.671C26.7754 157.671 25.417 158.179 25.417 158.805C25.417 159.431 26.7754 159.938 28.4512 159.938Z" fill="#2F2E41"/>
<path d="M35.7334 159.787C37.4091 159.787 38.7676 159.279 38.7676 158.653C38.7676 158.027 37.4091 157.52 35.7334 157.52C34.0577 157.52 32.6992 158.027 32.6992 158.653C32.6992 159.279 34.0577 159.787 35.7334 159.787Z" fill="#2F2E41"/>
<path d="M31.1821 143.919C33.4443 143.919 35.2782 142.092 35.2782 139.839C35.2782 137.585 33.4443 135.758 31.1821 135.758C28.9198 135.758 27.0859 137.585 27.0859 139.839C27.0859 142.092 28.9198 143.919 31.1821 143.919Z" fill="white"/>
<path d="M31.1814 141.199C31.9353 141.199 32.5464 140.59 32.5464 139.839C32.5464 139.088 31.9353 138.479 31.1814 138.479C30.4275 138.479 29.8164 139.088 29.8164 139.839C29.8164 140.59 30.4275 141.199 31.1814 141.199Z" fill="#3F3D56"/>
<path d="M19.2524 131.758C18.2846 127.441 21.3781 123.079 26.1618 122.015C30.9455 120.951 35.608 123.588 36.5757 127.905C37.5435 132.222 34.3731 133.815 29.5894 134.879C24.8057 135.943 20.2201 136.076 19.2524 131.758Z" fill="#1C9B9A"/>
<path d="M22.7942 139.88C23.2394 138.945 21.1762 137.041 18.1859 135.628C15.1956 134.216 12.4106 133.828 11.9653 134.764C11.5201 135.699 13.5833 137.602 16.5736 139.015C19.5639 140.428 22.3489 140.815 22.7942 139.88Z" fill="#2F2E41"/>
<path d="M24.9917 147.168C24.9917 148.336 28.012 150.644 31.3635 150.644C34.715 150.644 37.8573 147.354 37.8573 146.186C37.8573 145.017 34.7149 146.412 31.3635 146.412C28.012 146.412 24.9917 145.999 24.9917 147.168Z" fill="white"/>
<path d="M88.1271 143.434C94.7463 143.434 100.112 138.089 100.112 131.495C100.112 124.902 94.7463 119.557 88.1271 119.557C81.508 119.557 76.1421 124.902 76.1421 131.495C76.1421 138.089 81.508 143.434 88.1271 143.434Z" fill="#2F2E41"/>
<path d="M86.3055 140.865H82.6655V147.364H86.3055V140.865Z" fill="#2F2E41"/>
<path d="M93.5877 140.865H89.9478V147.364H93.5877V140.865Z" fill="#2F2E41"/>
<path d="M85.6997 148.573C87.3754 148.573 88.7339 148.065 88.7339 147.439C88.7339 146.813 87.3754 146.306 85.6997 146.306C84.024 146.306 82.6655 146.813 82.6655 147.439C82.6655 148.065 84.024 148.573 85.6997 148.573Z" fill="#2F2E41"/>
<path d="M92.982 148.421C94.6577 148.421 96.0161 147.914 96.0161 147.288C96.0161 146.662 94.6577 146.155 92.982 146.155C91.3062 146.155 89.9478 146.662 89.9478 147.288C89.9478 147.914 91.3062 148.421 92.982 148.421Z" fill="#2F2E41"/>
<path d="M76.5014 120.393C75.5337 116.076 78.6271 111.713 83.4109 110.649C88.1946 109.585 92.8571 112.223 93.8248 116.54C94.7925 120.857 91.6222 122.449 86.8385 123.513C82.0547 124.577 77.4691 124.71 76.5014 120.393Z" fill="#A5A6F6"/>
<path d="M101.042 126.279C103.638 123.691 105.081 120.936 104.266 120.124C103.45 119.312 100.685 120.752 98.0893 123.34C95.4938 125.927 94.0507 128.683 94.8662 129.494C95.6816 130.306 98.4468 128.866 101.042 126.279Z" fill="#2F2E41"/>
<path d="M78.4667 130.326C79.2822 129.514 77.8391 126.759 75.2435 124.171C72.648 121.584 69.8828 120.144 69.0673 120.956C68.2519 121.767 69.6949 124.523 72.2905 127.11C74.8861 129.698 77.6513 131.138 78.4667 130.326Z" fill="#2F2E41"/>
<path d="M160.99 55.725C160.593 43.4835 152.176 33.8208 142.191 34.1428C119.969 34.7987 119.426 75.3921 140.881 78.308L140.427 81.9049L147.053 81.6912L146.366 78.1311C154.997 76.2309 161.351 66.8234 160.99 55.725Z" fill="#003736"/>
<path d="M131.139 62.5124L128.637 62.5931C127.656 57.946 127.501 53.1634 128.178 48.4628L130.68 48.3821C129.756 53.3026 129.909 58.0127 131.139 62.5124Z" fill="white"/>
<path d="M147.377 78.0754L139.868 78.3176L139.922 79.98L147.431 79.7378L147.377 78.0754Z" fill="#3F3D56"/>
<path d="M125.565 141.73L124.809 141.378L143.401 78.5696L144.158 78.9225L125.565 141.73Z" fill="#3F3D56"/>
<path d="M176.379 66.0768C180.92 54.6946 177.075 42.4884 167.791 38.8134C147.153 30.5788 130.389 67.5821 148.892 78.7865L147.034 81.9038L153.195 84.3427L153.992 80.8054C162.667 82.4949 172.263 76.396 176.379 66.0768Z" fill="#A5A6F6"/>
<path d="M146.29 60.4306L143.962 59.5092C144.925 54.8582 146.699 50.4114 149.204 46.3708L151.531 47.2922C148.712 51.4361 146.965 55.8156 146.29 60.4306Z" fill="white"/>
<path d="M147.959 78.3923L147.342 79.938L154.325 82.702L154.941 81.1563L147.959 78.3923Z" fill="#3F3D56"/>
<path d="M125.417 140.077L124.692 139.665L150.65 80.6562L151.375 81.0674L125.417 140.077Z" fill="#3F3D56"/>
<path d="M35.2844 56.5161C30.3719 45.2882 18.9654 39.4095 9.80742 43.3855C-10.597 52.178 3.96317 90.0957 24.9801 84.9045L25.8929 88.4139L31.9704 85.7753L30.011 82.7203C37.3251 77.7765 39.7383 66.6955 35.2844 56.5161Z" fill="#A5A6F6"/>
<path d="M10.0676 73.8142L7.77163 74.8111C5.13527 70.8545 3.216 66.4679 2.10107 61.8508L4.39705 60.854C5.36401 65.7665 7.2542 70.0865 10.0676 73.8142Z" fill="white"/>
<path d="M30.9304 82.2959L24.0425 85.2864L24.7096 86.8111L31.5975 83.8207L30.9304 82.2959Z" fill="#3F3D56"/>
<path d="M46.8662 141.891C46.7588 141.917 46.6452 141.9 46.5504 141.843C46.4555 141.787 46.3873 141.694 46.3606 141.587L28.2144 84.3112L29.0246 84.1111L47.1709 141.387C47.1841 141.44 47.1867 141.495 47.1785 141.549C47.1703 141.603 47.1516 141.655 47.1233 141.702C47.095 141.749 47.0577 141.789 47.0136 141.822C46.9695 141.854 46.9194 141.878 46.8662 141.891Z" fill="#3F3D56"/>
<path d="M51.7162 160H8.02536C7.95155 160 7.88077 159.971 7.82858 159.919C7.77639 159.867 7.74707 159.796 7.74707 159.723C7.74707 159.649 7.77639 159.579 7.82858 159.527C7.88077 159.475 7.95155 159.446 8.02536 159.446H51.7162C51.79 159.446 51.8608 159.475 51.913 159.527C51.9652 159.579 51.9945 159.649 51.9945 159.723C51.9945 159.796 51.9652 159.867 51.913 159.919C51.8608 159.971 51.79 160 51.7162 160Z" fill="#CCCCCC"/>
<path d="M162.752 160H119.061C118.987 160 118.916 159.971 118.864 159.919C118.812 159.867 118.783 159.796 118.783 159.723C118.783 159.649 118.812 159.579 118.864 159.527C118.916 159.475 118.987 159.446 119.061 159.446H162.752C162.826 159.446 162.896 159.475 162.949 159.527C163.001 159.579 163.03 159.649 163.03 159.723C163.03 159.796 163.001 159.867 162.949 159.919C162.896 159.971 162.826 160 162.752 160Z" fill="#CCCCCC"/>
<path d="M110.713 148.634H67.0219C66.9481 148.634 66.8773 148.605 66.8251 148.553C66.773 148.501 66.7437 148.431 66.7437 148.357C66.7437 148.284 66.773 148.213 66.8251 148.161C66.8773 148.109 66.9481 148.08 67.0219 148.08H110.713C110.787 148.08 110.857 148.109 110.91 148.161C110.962 148.213 110.991 148.284 110.991 148.357C110.991 148.431 110.962 148.501 110.91 148.553C110.857 148.605 110.787 148.634 110.713 148.634Z" fill="#CCCCCC"/>
<path d="M87.6225 133.884C89.8848 133.884 91.7187 132.057 91.7187 129.803C91.7187 127.55 89.8848 125.723 87.6225 125.723C85.3603 125.723 83.5264 127.55 83.5264 129.803C83.5264 132.057 85.3603 133.884 87.6225 133.884Z" fill="white"/>
<path d="M87.6228 131.164C88.3767 131.164 88.9878 130.555 88.9878 129.804C88.9878 129.053 88.3767 128.444 87.6228 128.444C86.8689 128.444 86.2578 129.053 86.2578 129.804C86.2578 130.555 86.8689 131.164 87.6228 131.164Z" fill="#3F3D56"/>
<path d="M90.874 137.35C91.0006 138.043 90.8458 138.757 90.4438 139.335C90.0417 139.914 89.4254 140.31 88.7303 140.436C88.0353 140.562 87.3184 140.408 86.7374 140.007C86.1564 139.607 85.759 138.993 85.6324 138.301L85.6315 138.296C85.3694 136.853 86.4887 136.343 87.9364 136.082C89.3841 135.821 90.612 135.908 90.874 137.35Z" fill="white"/>
</svg>
