<svg width="186" height="160" viewBox="0 0 186 160" fill="none" xmlns="http://www.w3.org/2000/svg">
<path d="M40.8761 127.954C42.3597 124.073 42.5746 120.548 41.356 120.083C40.1375 119.617 37.9469 122.386 36.4632 126.268C34.9796 130.149 34.7647 133.674 35.9833 134.139C37.2018 134.605 39.3924 131.836 40.8761 127.954Z" fill="#2F2E41"/>
<path d="M39.6146 140.885C40.9459 132.682 35.3746 124.952 27.1709 123.621C18.9671 122.289 11.2374 127.861 9.90612 136.064C8.57483 144.268 14.1461 151.998 22.3498 153.329C30.5536 154.661 38.2833 149.089 39.6146 140.885Z" fill="#2F2E41"/>
<path d="M22.4745 150.285H17.9028V158.476H22.4745V150.285Z" fill="#2F2E41"/>
<path d="M31.6181 150.285H27.0464V158.476H31.6181V150.285Z" fill="#2F2E41"/>
<path d="M21.7126 160C23.8167 160 25.5224 159.36 25.5224 158.571C25.5224 157.782 23.8167 157.143 21.7126 157.143C19.6085 157.143 17.9028 157.782 17.9028 158.571C17.9028 159.36 19.6085 160 21.7126 160Z" fill="#2F2E41"/>
<path d="M30.8561 159.809C32.9602 159.809 34.6659 159.17 34.6659 158.381C34.6659 157.592 32.9602 156.952 30.8561 156.952C28.7521 156.952 27.0464 157.592 27.0464 158.381C27.0464 159.17 28.7521 159.809 30.8561 159.809Z" fill="#2F2E41"/>
<path d="M25.2922 139.806C28.1315 139.723 30.3655 137.353 30.2821 134.514C30.1987 131.675 27.8294 129.441 24.9901 129.524C22.1508 129.608 19.9168 131.977 20.0002 134.816C20.0836 137.656 22.453 139.89 25.2922 139.806Z" fill="white"/>
<path d="M25.1412 136.379C26.088 136.379 26.8556 135.612 26.8556 134.665C26.8556 133.718 26.088 132.951 25.1412 132.951C24.1943 132.951 23.4268 133.718 23.4268 134.665C23.4268 135.612 24.1943 136.379 25.1412 136.379Z" fill="#3F3D56"/>
<path d="M10.1629 124.48C8.94781 119.038 12.832 113.54 18.8385 112.199C24.845 110.857 30.6992 114.182 31.9143 119.623C33.1294 125.065 29.1487 127.072 23.1422 128.413C17.1357 129.755 11.378 129.922 10.1629 124.48Z" fill="#A5A6F6"/>
<path d="M14.609 134.717C15.1681 133.538 12.5775 131.139 8.82285 129.358C5.0682 127.578 1.57127 127.089 1.01223 128.268C0.45319 129.447 3.04375 131.846 6.7984 133.627C10.5531 135.407 14.05 135.896 14.609 134.717Z" fill="#2F2E41"/>
<path d="M17.3687 143.904C17.3687 145.377 21.161 148.285 25.3691 148.285C29.5773 148.285 33.5229 144.138 33.5229 142.666C33.5229 141.193 29.5773 142.951 25.3691 142.951C21.161 142.951 17.3687 142.431 17.3687 143.904Z" fill="white"/>
<path d="M130.596 97.5801L114.25 113.713L77.3092 150.164L76.5616 150.901L72.3966 155.011L63.6645 146.383L62.8957 145.625L46.9308 129.856H46.9274L41.8118 124.8L38.7894 121.812L29.7882 112.923L28.5725 111.721L14.2253 97.5486C11.375 94.6993 8.95909 91.4464 7.0552 87.8942C6.88049 87.5762 6.71619 87.2547 6.55547 86.9333C3.1531 80.1497 1.69734 72.556 2.34981 64.9951C3.00227 57.4342 5.73744 50.2021 10.2516 44.1018C14.7658 38.0014 20.8824 33.2715 27.9222 30.4371C34.9621 27.6028 42.6497 26.7751 50.1315 28.0457H50.1351C50.2678 28.0667 50.3972 28.0876 50.5299 28.1156C51.9335 28.3633 53.3227 28.6864 54.6915 29.0835C58.2732 30.1188 61.6965 31.6389 64.8665 33.6014C65.1985 33.8076 65.527 34.0173 65.8519 34.2304C68.1755 35.7658 70.3377 37.5324 72.3056 39.5031L72.4279 39.3808L72.5503 39.5031C73.7424 38.3114 75.0062 37.1935 76.3345 36.1557C76.6244 35.9286 76.918 35.705 77.2115 35.4883C81.7052 32.1749 86.8278 29.8133 92.2657 28.548C97.7037 27.2827 103.343 27.1403 108.837 28.1295C110.243 28.3771 111.633 28.7014 113.003 29.1009C113.46 29.2302 113.915 29.37 114.365 29.5202C114.729 29.639 115.092 29.7613 115.452 29.8941C118.448 30.9653 121.309 32.3843 123.974 34.1221C124.558 34.5029 125.133 34.9013 125.7 35.3171C130.502 38.8074 134.49 43.297 137.389 48.4766C140.289 53.6562 142.031 59.4027 142.497 65.3205C142.962 71.2382 142.139 77.1865 140.084 82.7556C138.03 88.3247 134.793 93.3823 130.596 97.5801Z" fill="#1C9B9A"/>
<path opacity="0.15" d="M114.25 113.713L77.3091 150.164L76.5615 150.901L72.3965 155.01L63.6644 146.383L62.8956 145.625L46.9307 129.856C49.4955 129.258 53.4369 130.079 54.8799 130.792C58.3008 132.48 61.1137 135.251 64.5869 136.83C67.6885 138.23 71.1536 138.613 74.486 137.924C80.7126 136.617 85.5311 131.802 89.78 127.064C94.0289 122.322 98.3722 117.235 104.344 115.037C107.492 113.877 110.874 113.615 114.25 113.713Z" fill="black"/>
<path d="M141.106 40.1775C136.023 35.0799 129.695 31.3999 122.751 29.5027C122.29 29.3734 121.832 29.2581 121.367 29.1498C119.369 28.6724 117.338 28.3465 115.291 28.1749C114.935 28.14 114.578 28.1155 114.218 28.0981C112.423 27.9845 110.621 27.9915 108.827 28.119C98.9963 28.7768 89.7233 32.9214 82.6763 39.8071L82.5504 39.6813L82.4247 39.8071C77.8205 35.3145 72.2339 31.9553 66.1069 29.9954C65.7609 29.8836 65.4115 29.7753 65.0621 29.6739C60.3434 28.3053 55.4205 27.779 50.5192 28.119C50.383 28.126 50.2467 28.1365 50.114 28.1505C41.127 28.8395 32.6114 32.447 25.8643 38.4234C25.2283 38.9825 24.6028 39.5695 23.9949 40.1775C18.283 45.8999 14.361 53.1618 12.708 61.0764C11.0549 68.9909 11.7424 77.2155 14.6863 84.7459C14.8086 85.0743 14.9414 85.3993 15.0811 85.7242C17.1605 90.6827 20.1885 95.1872 23.9949 98.9847L37.5942 112.409L38.6635 113.468L68.0914 142.515L68.8497 143.267L76.5788 150.898L82.5504 156.793L141.106 98.9812C148.893 91.1774 153.266 80.6035 153.266 69.5793C153.266 58.5552 148.893 47.9812 141.106 40.1775ZM140.369 98.2369L82.5504 155.318L77.3267 150.161L69.7618 142.694L69.0036 141.946L40.1485 113.458L39.0967 112.42L24.7355 98.2404C21.0489 94.5634 18.1108 90.206 16.084 85.4098C15.9443 85.0848 15.8114 84.7598 15.6892 84.4349C12.8005 77.0876 12.1178 69.0573 13.7246 61.3279C15.3314 53.5984 19.158 46.5055 24.7355 40.9182C25.3856 40.2683 26.0506 39.6464 26.7307 39.0523H26.7343C33.2254 33.372 41.3673 29.9232 49.9637 29.2127C51.1063 29.1149 52.25 29.0659 53.3949 29.0659C53.8247 29.0659 54.251 29.0729 54.6808 29.0869C58.1923 29.195 61.6748 29.7588 65.041 30.7641C65.3871 30.8655 65.7329 30.9738 66.0753 31.0891C69.7169 32.276 73.1685 33.9812 76.3238 36.1522C78.378 37.5607 80.2975 39.1562 82.0578 40.9182L82.4282 41.2886L82.5504 41.1663L82.6727 41.2886L83.0431 40.9182C86.9579 36.9992 91.6365 33.9266 96.7884 31.8914C101.94 29.8561 107.456 28.9015 112.992 29.0869C113.436 29.1009 113.879 29.1218 114.323 29.1533C114.68 29.1743 115.036 29.1987 115.389 29.2337C117.641 29.4357 119.873 29.8272 122.059 30.4042C122.527 30.523 122.992 30.6523 123.453 30.7956C130.157 32.8229 136.221 36.5534 141.054 41.6231C145.886 46.6928 149.322 52.9285 151.026 59.7219C152.73 66.5154 152.644 73.6345 150.776 80.3847C148.908 87.1349 145.322 93.2856 140.369 98.2369Z" fill="#3F3D56"/>
<path opacity="0.15" d="M59.1811 30.6699C56.9379 32.4414 54.5303 34.0767 53.0733 36.4982C52.0006 38.2872 51.5359 40.3663 51.1899 42.4208C50.519 46.4182 50.2325 50.5134 48.9186 54.3465C47.6083 58.1796 45.0506 61.8415 41.2594 63.2707C38.9078 64.1547 36.3152 64.1058 33.8098 63.9345C27.6286 63.5152 21.4055 62.4076 15.8427 59.6856C12.7329 58.1621 9.71733 56.1076 6.2617 55.8804C5.55844 55.8352 4.8523 55.8739 4.1582 55.9957C7.17342 46.5834 13.4829 38.5748 21.9281 33.4404C30.3733 28.306 40.3873 26.3905 50.1312 28.0457H50.1348C50.2675 28.0667 50.3969 28.0877 50.5296 28.1156C51.9332 28.3633 53.3224 28.6864 54.6912 29.0835C56.2173 29.525 57.7164 30.0547 59.1811 30.6699Z" fill="black"/>
<path d="M35.1447 41.6222C43.4558 41.6222 50.1933 34.8848 50.1933 26.5737C50.1933 18.2626 43.4558 11.5251 35.1447 11.5251C26.8337 11.5251 20.0962 18.2626 20.0962 26.5737C20.0962 34.8848 26.8337 41.6222 35.1447 41.6222Z" fill="#2F2E41"/>
<path d="M32.8588 38.3838H28.2871V46.5748H32.8588V38.3838Z" fill="#2F2E41"/>
<path d="M42.0024 38.3838H37.4307V46.5748H42.0024V38.3838Z" fill="#2F2E41"/>
<path d="M32.0969 48.0988C34.2009 48.0988 35.9066 47.4591 35.9066 46.6701C35.9066 45.8811 34.2009 45.2415 32.0969 45.2415C29.9928 45.2415 28.2871 45.8811 28.2871 46.6701C28.2871 47.4591 29.9928 48.0988 32.0969 48.0988Z" fill="#2F2E41"/>
<path d="M41.2404 47.9083C43.3445 47.9083 45.0502 47.2687 45.0502 46.4797C45.0502 45.6907 43.3445 45.051 41.2404 45.051C39.1364 45.051 37.4307 45.6907 37.4307 46.4797C37.4307 47.2687 39.1364 47.9083 41.2404 47.9083Z" fill="#2F2E41"/>
<path d="M35.5255 27.907C38.366 27.907 40.6687 25.6043 40.6687 22.7638C40.6687 19.9233 38.366 17.6206 35.5255 17.6206C32.685 17.6206 30.3823 19.9233 30.3823 22.7638C30.3823 25.6043 32.685 27.907 35.5255 27.907Z" fill="white"/>
<path d="M38.4885 25.0281C39.1554 24.3615 39.1518 23.2767 38.4805 22.6052C37.8092 21.9336 36.7244 21.9295 36.0576 22.596C35.3907 23.2626 35.3943 24.3474 36.0656 25.019C36.7369 25.6906 37.8217 25.6947 38.4885 25.0281Z" fill="#3F3D56"/>
<path d="M20.5472 12.5789C19.3321 7.13711 23.2163 1.63843 29.2228 0.297226C35.2293 -1.04398 41.0835 2.28022 42.2986 7.722C43.5137 13.1638 39.533 15.1708 33.5265 16.512C27.52 17.8532 21.7623 18.0207 20.5472 12.5789Z" fill="#A5A6F6"/>
<path d="M156.156 129.107C157.162 128.277 155.835 125.005 153.191 121.799C150.547 118.593 147.588 116.667 146.581 117.497C145.575 118.327 146.902 121.599 149.546 124.805C152.19 128.011 155.149 129.937 156.156 129.107Z" fill="#2F2E41"/>
<path d="M166.879 153.176C175.083 151.844 180.654 144.115 179.323 135.911C177.992 127.707 170.262 122.136 162.058 123.467C153.855 124.798 148.283 132.528 149.615 140.732C150.946 148.936 158.676 154.507 166.879 153.176Z" fill="#2F2E41"/>
<path d="M171.326 150.132H166.754V158.323H171.326V150.132Z" fill="#2F2E41"/>
<path d="M162.183 150.132H157.611V158.323H162.183V150.132Z" fill="#2F2E41"/>
<path d="M167.516 159.847C169.62 159.847 171.326 159.207 171.326 158.418C171.326 157.629 169.62 156.989 167.516 156.989C165.412 156.989 163.707 157.629 163.707 158.418C163.707 159.207 165.412 159.847 167.516 159.847Z" fill="#2F2E41"/>
<path d="M158.373 159.656C160.477 159.656 162.183 159.017 162.183 158.227C162.183 157.438 160.477 156.799 158.373 156.799C156.269 156.799 154.563 157.438 154.563 158.227C154.563 159.017 156.269 159.656 158.373 159.656Z" fill="#2F2E41"/>
<path d="M169.737 130.292C164.993 126.372 162.356 122.777 165.908 118.479C169.46 114.181 176.185 113.875 180.929 117.795C185.673 121.715 186.64 128.378 183.088 132.676C179.537 136.974 174.482 134.213 169.737 130.292Z" fill="#1C9B9A"/>
<path d="M159.417 135.654C162.256 135.57 164.49 133.201 164.407 130.362C164.323 127.522 161.954 125.288 159.115 125.372C156.275 125.455 154.041 127.824 154.125 130.664C154.208 133.503 156.577 135.737 159.417 135.654Z" fill="white"/>
<path d="M157.458 130.953C158.405 130.953 159.172 130.186 159.172 129.239C159.172 128.292 158.405 127.524 157.458 127.524C156.511 127.524 155.744 128.292 155.744 129.239C155.744 130.186 156.511 130.953 157.458 130.953Z" fill="#3F3D56"/>
<path d="M151.492 134.749C150.45 135.79 149.714 139.167 151.179 140.632C152.644 142.097 156.949 140.538 157.991 139.497C159.032 138.455 156.415 138.325 154.95 136.86C153.485 135.395 152.533 133.707 151.492 134.749Z" fill="white"/>
<path d="M178.753 158.445C179.972 157.98 179.757 154.455 178.273 150.574C176.789 146.692 174.599 143.923 173.38 144.389C172.162 144.854 172.377 148.379 173.86 152.26C175.344 156.142 177.534 158.911 178.753 158.445Z" fill="#2F2E41"/>
</svg>
