<svg width="161" height="160" viewBox="0 0 161 160" fill="none" xmlns="http://www.w3.org/2000/svg">
<path d="M96.1488 37.0478C96.1488 37.0478 98.0824 32.9571 94.9577 31.8935C91.833 30.83 92.0578 35.1143 92.0578 35.1143L95.8588 37.3699" fill="#3F3D56"/>
<path d="M30.4914 49.0837L24.0151 54.3332C24.0151 54.3332 121.171 86.982 132.252 93.4587L131.159 84.3101L121.979 73.1307L104.198 61.7886L75.4959 52.8606L44.2165 41.6128L30.4914 49.0837Z" fill="#1C9B9A"/>
<path d="M79.9719 62.1384L57.9911 116.993C57.9911 116.993 54.478 126.076 62.2416 127.817C66.9094 128.864 69.3769 126.032 70.6026 123.608C71.9117 121.018 68.358 118.741 66.5819 121.036C66.5531 121.073 66.5242 121.111 66.4953 121.15C66.4518 121.208 61.7948 124.821 61.7975 119.876C61.809 118.736 62.0454 117.609 62.4933 116.561L84.095 64.684L79.9719 62.1384Z" fill="#3F3D56"/>
<path d="M93.9176 34.7196C93.9176 34.7196 87.7323 33.8165 84.2534 31.8509C84.2534 31.8509 46.0794 23.7265 24.0386 54.0347C24.0386 54.0347 127.801 78.0517 132.276 93.1602C132.276 93.1602 138.788 65.2008 104.29 39.3923C104.29 39.3923 95.8502 36.4594 93.9176 34.7196Z" fill="#3F3D56"/>
<path d="M78.4104 30.4472C77.5667 33.9797 76.501 34.8205 75.4916 34.5795C74.4822 34.3385 73.9114 33.1069 74.7551 29.5744C75.5987 26.0419 78.5468 21.7871 78.5468 21.7871C78.5468 21.7871 79.254 26.9146 78.4104 30.4472Z" fill="#A5A6F6"/>
<path d="M82.1032 5.28434C81.5884 7.43986 80.9381 7.9529 80.3221 7.80584C79.7062 7.65877 79.3579 6.90726 79.8727 4.75173C80.3875 2.59621 82.1864 0 82.1864 0C82.1864 0 82.618 3.12883 82.1032 5.28434Z" fill="#A5A6F6"/>
<path d="M66.0089 15.7304C65.4941 17.8859 64.8438 18.399 64.2279 18.2519C63.612 18.1048 63.2637 17.3533 63.7785 15.1978C64.2933 13.0423 66.0921 10.446 66.0921 10.446C66.0921 10.446 66.5237 13.5749 66.0089 15.7304Z" fill="#A5A6F6"/>
<path d="M33.7985 141.12C32.9549 144.652 31.8891 145.493 30.8798 145.252C29.8704 145.011 29.2996 143.779 30.1432 140.247C30.9869 136.714 33.9349 132.459 33.9349 132.459C33.9349 132.459 34.6422 137.587 33.7985 141.12Z" fill="#A5A6F6"/>
<path d="M37.4913 115.957C36.9765 118.112 36.3262 118.625 35.7103 118.478C35.0944 118.331 34.7461 117.58 35.2609 115.424C35.7757 113.269 37.5746 110.673 37.5746 110.673C37.5746 110.673 38.0061 113.801 37.4913 115.957Z" fill="#A5A6F6"/>
<path d="M21.3976 126.403C20.8828 128.559 20.2325 129.072 19.6166 128.924C19.0007 128.777 18.6524 128.026 19.1672 125.87C19.682 123.715 21.4808 121.119 21.4808 121.119C21.4808 121.119 21.9124 124.247 21.3976 126.403Z" fill="#A5A6F6"/>
<path d="M17.1394 35.8112C16.2957 39.3437 15.23 40.1845 14.2206 39.9435C13.2112 39.7025 12.6404 38.4709 13.4841 34.9384C14.3277 31.4059 17.2758 27.1511 17.2758 27.1511C17.2758 27.1511 17.983 32.2787 17.1394 35.8112Z" fill="#A5A6F6"/>
<path d="M14.8806 97.3588C14.0369 100.891 12.9712 101.732 11.9618 101.491C10.9524 101.25 10.3816 100.019 11.2253 96.486C12.0689 92.9535 15.017 88.6987 15.017 88.6987C15.017 88.6987 15.7242 93.8263 14.8806 97.3588Z" fill="#A5A6F6"/>
<path d="M18.5739 72.196C18.0591 74.3515 17.4088 74.8645 16.7928 74.7175C16.1769 74.5704 15.8286 73.8189 16.3434 71.6634C16.8582 69.5078 18.6571 66.9116 18.6571 66.9116C18.6571 66.9116 19.0887 70.0405 18.5739 72.196Z" fill="#A5A6F6"/>
<path d="M2.47962 82.6423C1.96482 84.7978 1.31452 85.3108 0.698603 85.1638C0.0826859 85.0167 -0.265607 84.2652 0.249188 82.1097C0.763983 79.9541 2.56285 77.3579 2.56285 77.3579C2.56285 77.3579 2.99442 80.4867 2.47962 82.6423Z" fill="#A5A6F6"/>
<path d="M60.3395 38.3522C59.4959 41.8847 58.4301 42.7255 57.4208 42.4845C56.4114 42.2435 55.8406 41.0119 56.6843 37.4794C57.5279 33.9469 60.476 29.6921 60.476 29.6921C60.476 29.6921 61.1832 34.8197 60.3395 38.3522Z" fill="#A5A6F6"/>
<path d="M58.0808 99.8998C57.2371 103.432 56.1714 104.273 55.162 104.032C54.1526 103.791 53.5818 102.56 54.4255 99.027C55.2691 95.4945 58.2172 91.2397 58.2172 91.2397C58.2172 91.2397 58.9244 96.3673 58.0808 99.8998Z" fill="#A5A6F6"/>
<path d="M61.7736 74.737C61.2588 76.8925 60.6085 77.4055 59.9925 77.2585C59.3766 77.1114 59.0283 76.3599 59.5431 74.2044C60.0579 72.0488 61.8568 69.4526 61.8568 69.4526C61.8568 69.4526 62.2884 72.5815 61.7736 74.737Z" fill="#A5A6F6"/>
<path d="M100.434 50.2099C99.5901 53.7424 98.5244 54.5832 97.515 54.3422C96.5056 54.1012 95.9348 52.8696 96.7785 49.3371C97.6222 45.8046 100.57 41.5498 100.57 41.5498C100.57 41.5498 101.277 46.6773 100.434 50.2099Z" fill="#A5A6F6"/>
<path d="M88.0329 35.4933C87.5181 37.6489 86.8677 38.1619 86.2518 38.0148C85.6359 37.8678 85.2876 37.1162 85.8024 34.9607C86.3172 32.8052 88.1161 30.209 88.1161 30.209C88.1161 30.209 88.5477 33.3378 88.0329 35.4933Z" fill="#A5A6F6"/>
<path d="M120.481 33.5527C119.637 37.0852 118.571 37.926 117.562 37.6849C116.552 37.4439 115.982 36.2123 116.825 32.6798C117.669 29.1473 120.617 24.8926 120.617 24.8926C120.617 24.8926 121.324 30.0201 120.481 33.5527Z" fill="#A5A6F6"/>
<path d="M118.222 95.1003C117.378 98.6328 116.312 99.4736 115.303 99.2326C114.294 98.9915 113.723 97.76 114.567 94.2275C115.41 90.6949 118.358 86.4402 118.358 86.4402C118.358 86.4402 119.066 91.5677 118.222 95.1003Z" fill="#A5A6F6"/>
<path d="M121.915 69.9374C121.4 72.0929 120.75 72.606 120.134 72.4589C119.518 72.3118 119.17 71.5603 119.685 69.4048C120.2 67.2493 121.998 64.6531 121.998 64.6531C121.998 64.6531 122.43 67.7819 121.915 69.9374Z" fill="#A5A6F6"/>
<path d="M160.575 45.4106C159.731 48.9431 158.666 49.7839 157.656 49.5429C156.647 49.3018 156.076 48.0703 156.92 44.5377C157.763 41.0052 160.711 36.7505 160.711 36.7505C160.711 36.7505 161.419 41.878 160.575 45.4106Z" fill="#A5A6F6"/>
<path d="M148.174 30.694C147.659 32.8495 147.009 33.3626 146.393 33.2155C145.777 33.0684 145.429 32.3169 145.944 30.1614C146.458 28.0059 148.257 25.4097 148.257 25.4097C148.257 25.4097 148.689 28.5385 148.174 30.694Z" fill="#A5A6F6"/>
<path d="M143.916 73.9257C143.073 77.4582 142.007 78.299 140.997 78.058C139.988 77.817 139.417 76.5854 140.261 73.0529C141.105 69.5204 144.053 65.2656 144.053 65.2656C144.053 65.2656 144.76 70.3932 143.916 73.9257Z" fill="#A5A6F6"/>
<path d="M141.657 135.473C140.814 139.006 139.748 139.846 138.739 139.605C137.729 139.364 137.158 138.133 138.002 134.6C138.846 131.068 141.794 126.813 141.794 126.813C141.794 126.813 142.501 131.941 141.657 135.473Z" fill="#A5A6F6"/>
<path d="M145.351 110.31C144.836 112.466 144.186 112.979 143.57 112.832C142.954 112.685 142.605 111.933 143.12 109.778C143.635 107.622 145.434 105.026 145.434 105.026C145.434 105.026 145.866 108.155 145.351 110.31Z" fill="#A5A6F6"/>
<path d="M92.5007 133.161C91.7226 132.046 88.2114 133.151 84.6581 135.629C81.1048 138.108 78.8551 141.021 79.6331 142.137C80.4112 143.252 83.9225 142.147 87.4758 139.669C91.0291 137.19 93.2788 134.277 92.5007 133.161Z" fill="#2F2E41"/>
<path d="M108.571 153.045C117.124 151.657 122.932 143.599 121.544 135.046C120.156 126.493 112.098 120.685 103.545 122.073C94.9924 123.461 89.1842 131.519 90.5721 140.072C91.96 148.625 100.019 154.433 108.571 153.045Z" fill="#2F2E41"/>
<path d="M113.208 149.872H108.441V158.411H113.208V149.872Z" fill="#2F2E41"/>
<path d="M103.675 149.872H98.9092V158.411H103.675V149.872Z" fill="#2F2E41"/>
<path d="M109.235 160C111.429 160 113.207 159.333 113.207 158.51C113.207 157.688 111.429 157.021 109.235 157.021C107.042 157.021 105.264 157.688 105.264 158.51C105.264 159.333 107.042 160 109.235 160Z" fill="#2F2E41"/>
<path d="M99.7033 159.801C101.897 159.801 103.675 159.134 103.675 158.312C103.675 157.489 101.897 156.822 99.7033 156.822C97.5097 156.822 95.7314 157.489 95.7314 158.312C95.7314 159.134 97.5097 159.801 99.7033 159.801Z" fill="#2F2E41"/>
<path d="M111.551 129.189C106.605 125.101 103.856 121.354 107.559 116.873C111.262 112.392 118.273 112.072 123.219 116.159C128.165 120.246 129.173 127.192 125.47 131.673C121.767 136.154 116.497 133.276 111.551 129.189Z" fill="#A5A6F6"/>
<path d="M100.792 134.778C103.752 134.691 106.081 132.221 105.994 129.261C105.907 126.301 103.437 123.972 100.477 124.059C97.5168 124.146 95.1877 126.616 95.2747 129.576C95.3617 132.536 97.8318 134.865 100.792 134.778Z" fill="white"/>
<path d="M98.7497 129.877C99.7368 129.877 100.537 129.077 100.537 128.09C100.537 127.103 99.7368 126.303 98.7497 126.303C97.7626 126.303 96.9624 127.103 96.9624 128.09C96.9624 129.077 97.7626 129.877 98.7497 129.877Z" fill="#3F3D56"/>
<path d="M97.7912 142.78C98.7846 141.794 98.0943 140.347 96.697 138.961C95.2997 137.574 92.5854 137.3 91.5921 138.286C91.1167 138.758 91.3494 138.932 91.9586 139.167C93.9797 139.947 94.9926 142.161 96.9386 143.113C97.1889 143.235 97.4315 143.136 97.7912 142.78Z" fill="white"/>
<path d="M120.95 158.539C122.221 158.053 121.997 154.379 120.45 150.332C118.903 146.286 116.62 143.399 115.349 143.884C114.079 144.37 114.303 148.044 115.849 152.091C117.396 156.138 119.68 159.024 120.95 158.539Z" fill="#2F2E41"/>
<path d="M54.3403 134.245C58.6527 134.66 62.2541 133.898 62.3843 132.545C62.5145 131.191 59.1241 129.757 54.8117 129.342C50.4993 128.928 46.8979 129.689 46.7677 131.043C46.6375 132.397 50.0279 133.83 54.3403 134.245Z" fill="#2F2E41"/>
<path d="M52.1317 139.866C53.5196 131.313 47.7114 123.255 39.1586 121.867C30.6059 120.479 22.5474 126.287 21.1595 134.84C19.7716 143.393 25.5798 151.451 34.1325 152.839C42.6853 154.227 50.7438 148.419 52.1317 139.866Z" fill="#2F2E41"/>
<path d="M34.2628 149.666H29.4966V158.205H34.2628V149.666Z" fill="#2F2E41"/>
<path d="M43.795 149.666H39.0288V158.205H43.795V149.666Z" fill="#2F2E41"/>
<path d="M33.4684 159.794C35.662 159.794 37.4402 159.127 37.4402 158.304C37.4402 157.482 35.662 156.815 33.4684 156.815C31.2748 156.815 29.4966 157.482 29.4966 158.304C29.4966 159.127 31.2748 159.794 33.4684 159.794Z" fill="#2F2E41"/>
<path d="M43.0006 159.595C45.1942 159.595 46.9724 158.928 46.9724 158.106C46.9724 157.283 45.1942 156.616 43.0006 156.616C40.8071 156.616 39.0288 157.283 39.0288 158.106C39.0288 158.928 40.8071 159.595 43.0006 159.595Z" fill="#2F2E41"/>
<path d="M37.2005 138.74C40.1606 138.653 42.4896 136.183 42.4026 133.223C42.3157 130.263 39.8456 127.934 36.8855 128.021C33.9255 128.108 31.5964 130.578 31.6834 133.538C31.7704 136.498 34.2405 138.827 37.2005 138.74Z" fill="white"/>
<path d="M37.0432 135.168C38.0303 135.168 38.8305 134.368 38.8305 133.381C38.8305 132.394 38.0303 131.594 37.0432 131.594C36.0561 131.594 35.2559 132.394 35.2559 133.381C35.2559 134.368 36.0561 135.168 37.0432 135.168Z" fill="#3F3D56"/>
<path d="M21.4273 122.763C20.1605 117.09 24.2099 111.357 30.4719 109.959C36.7338 108.561 42.8371 112.026 44.1039 117.699C45.3707 123.373 41.2206 125.465 34.9587 126.863C28.6967 128.261 22.694 128.436 21.4273 122.763Z" fill="#1C9B9A"/>
<path d="M24.6936 141.386C23.8063 140.355 20.4253 141.811 17.142 144.638C13.8587 147.464 11.9163 150.591 12.8036 151.621C13.6909 152.652 17.0718 151.197 20.3552 148.37C23.6385 145.544 25.5809 142.417 24.6936 141.386Z" fill="#2F2E41"/>
<path d="M35.6879 146.24C35.4258 145.82 35.5525 145.311 36.0402 144.826C36.528 144.34 37.3367 143.918 38.2887 143.652C39.2406 143.386 40.2577 143.298 41.1162 143.407C41.9746 143.516 42.6043 143.814 42.8664 144.234L42.8683 144.237C43.4123 145.113 41.428 146.3 39.3655 145.717C37.303 145.133 36.2319 147.116 35.6879 146.24Z" fill="white"/>
</svg>
