<svg width="125" height="150" viewBox="0 0 125 150" fill="none" xmlns="http://www.w3.org/2000/svg">
<g clip-path="url(#clip0)">
<path d="M60.9941 36.4458C60.9941 36.4458 82.7248 47.2362 86.6214 45.7375C90.5179 44.2389 91.8667 30.9007 91.8667 30.9007L75.8309 27.9033L60.9941 36.4458Z" fill="#4A4D9E"/>
<path opacity="0.1" d="M60.9941 36.4458C60.9941 36.4458 82.7248 47.2362 86.6214 45.7375C90.5179 44.2389 91.8667 30.9007 91.8667 30.9007L75.8309 27.9033L60.9941 36.4458Z" fill="black"/>
<path d="M106.029 20.335H91.7917V32.774H106.029V20.335Z" fill="#E2822A"/>
<path opacity="0.1" d="M106.029 20.335H91.7917V32.774H106.029V20.335Z" fill="black"/>
<path d="M78.8284 73.3135C78.8284 73.3135 78.229 86.352 82.2753 86.0522C86.3217 85.7525 82.2753 73.7632 82.2753 73.7632L78.8284 73.3135Z" fill="#FBBEBE"/>
<path d="M95.4635 22.209C95.4635 22.209 96.3628 27.9039 94.7143 28.6532C93.0656 29.4026 92.0166 30.0021 92.0166 30.0021L95.7633 32.5498L102.657 32.9994L104.456 31.6506L106.104 30.152C106.104 30.152 103.406 29.5525 103.406 28.2037C103.406 26.8548 103.257 22.8085 103.257 22.8085L95.4635 22.209Z" fill="#FBBEBE"/>
<path opacity="0.1" d="M95.4635 22.209C95.4635 22.209 96.3628 27.9039 94.7143 28.6532C93.0656 29.4026 92.0166 30.0021 92.0166 30.0021L95.7633 32.5498L102.657 32.9994L104.456 31.6506L106.104 30.152C106.104 30.152 103.406 29.5525 103.406 28.2037C103.406 26.8548 103.257 22.8085 103.257 22.8085L95.4635 22.209Z" fill="black"/>
<path d="M86.0219 75.5605C86.0219 75.5605 81.6759 89.4982 81.6759 99.6892C81.6759 99.6892 74.4821 115.875 74.7819 123.818L72.9835 134.758L75.5313 135.657L77.4795 134.009C77.4795 134.009 78.0791 128.163 80.0272 125.317C81.9755 122.469 86.4715 108.98 86.4715 108.98C86.4715 108.98 98.461 83.8033 98.0113 80.2065C97.5617 76.6097 86.0219 75.5605 86.0219 75.5605Z" fill="#FBBEBE"/>
<path d="M112.548 72.4141C112.548 72.4141 115.396 73.7629 111.349 97.7416C111.349 97.7416 113.597 113.628 111.649 122.32L111.349 131.013H108.202L107.602 130.113C107.602 130.113 107.453 122.32 106.403 120.222C105.355 118.123 104.455 105.984 104.455 105.984C104.455 105.984 99.6596 81.2563 100.709 79.1581C101.758 77.06 112.548 72.4141 112.548 72.4141Z" fill="#FBBEBE"/>
<path d="M72.5339 132.211C72.5339 132.211 73.583 134.609 75.5311 134.01C77.4794 133.41 77.9291 133.41 77.9291 133.41C77.9291 133.41 76.5803 140.305 77.0299 143.601C77.4794 146.898 76.7302 148.996 73.7327 148.996C70.7354 148.996 70.2858 145.399 70.2858 145.399L71.6347 136.857L72.5339 132.211Z" fill="#2F2E41"/>
<path d="M107.003 128.465C107.003 128.465 108.052 130.563 109.701 130.113C111.349 129.664 111.949 128.914 111.949 128.914C111.949 128.914 111.799 133.561 112.399 135.658C112.998 137.756 114.347 143.751 111.2 144.051C110.335 144.156 109.46 143.98 108.704 143.547C107.948 143.115 107.351 142.451 107.003 141.653V128.465Z" fill="#2F2E41"/>
<path d="M99.5099 26.1053C103.152 26.1053 106.104 23.1529 106.104 19.5111C106.104 15.8693 103.152 12.917 99.5099 12.917C95.8681 12.917 92.9158 15.8693 92.9158 19.5111C92.9158 23.1529 95.8681 26.1053 99.5099 26.1053Z" fill="#FBBEBE"/>
<path d="M111.649 31.3496C111.649 31.3496 106.426 29.2986 104.542 29.5748C103.73 30.2647 102.783 30.7787 101.762 31.0843C100.742 31.3897 99.6684 31.4801 98.6109 31.3496C95.0141 30.9 93.6076 29.1738 93.6076 29.1738C93.6076 29.1738 83.9239 31.3496 84.5233 32.2488C85.1228 33.148 88.8298 48.9357 88.8298 48.9357C88.8298 48.9357 88.8004 60.547 86.7022 64.8932C84.604 69.2394 73.569 122.805 74.4681 123.404C75.3674 124.003 80.1841 124.783 81.383 125.531C82.582 126.28 99.0605 79.307 99.8098 79.7566C100.559 80.2062 105.866 122.407 106.915 121.808C107.964 121.209 112.534 121.261 112.234 120.212C111.934 119.163 117.553 73.4038 115.426 69.6804C113.83 64.8932 108.352 49.0338 109.101 47.9848C109.851 46.9357 111.35 45.7368 111.649 42.7395C111.949 39.7421 111.649 31.3496 111.649 31.3496Z" fill="#2F2E41"/>
<path d="M84.8535 31.7861C84.8535 31.7861 83.624 32.6989 83.1743 34.6472C82.7248 36.5955 82.1253 52.1817 82.1253 52.1817C82.1253 52.1817 76.5802 73.6126 77.7791 74.0622C78.9781 74.5119 82.4251 75.411 82.8747 74.9615C83.3242 74.5119 88.4198 56.3779 87.9702 54.4296C87.5205 52.4813 88.5695 46.7864 88.5695 46.7864L84.8535 31.7861Z" fill="#2F2E41"/>
<path d="M112.549 59.6765C112.549 59.6765 104.456 55.6301 103.556 58.3277C102.657 61.0253 112.099 63.8728 112.099 63.8728C112.099 63.8728 115.396 62.6738 115.396 61.9245C115.396 61.1751 112.549 59.6765 112.549 59.6765Z" fill="#FBBEBE"/>
<path d="M110.001 31.9503L111.649 31.3508C111.649 31.3508 112.548 30.7514 113.598 32.9995C114.647 35.2474 126.036 48.4357 123.938 52.632C121.84 56.8283 114.946 65.3707 114.647 64.7713C114.347 64.1718 110.9 59.6757 111.499 59.2262C112.099 58.7766 118.993 52.632 118.094 51.7329C117.195 50.8336 113.448 43.1904 111.349 42.8906C109.251 42.5909 110.001 31.9503 110.001 31.9503Z" fill="#2F2E41"/>
<path d="M92.2414 19.2872C92.2414 19.2872 69.3884 10.0984 49.606 1.2562C49.606 1.2562 39.2652 -1.29154 33.87 3.5042C33.87 3.5042 38.366 2.90473 38.366 5.45248C38.366 5.45248 42.2626 10.548 30.1233 11.4472C21.6691 12.0734 18.3032 17.1336 17.0386 20.148C16.0514 22.5679 14.316 24.6085 12.0861 25.9715C9.16409 27.7178 4.92926 29.0026 0 26.7336C0 26.7336 0.28023 27.1644 0.811789 27.8822C10.329 40.7346 45.7701 51.9202 58.2854 41.9638C66.0199 35.8108 78.2813 28.0338 87.071 31.9509C100.859 38.0955 103.406 35.3978 103.406 35.3978L104.006 33.7493C104.006 33.7493 90.6678 30.1525 90.3681 25.5066C90.0683 20.8608 92.2414 19.2872 92.2414 19.2872Z" fill="#4A4D9E"/>
<path d="M105.579 20.4854C105.579 20.4854 108.801 21.7592 109.401 25.9555C109.401 25.9555 112.848 32.6995 108.951 34.348C105.055 35.9965 104.306 35.5469 104.306 35.5469V34.7976C104.306 34.7976 108.502 32.2499 107.602 30.3016C106.703 28.3533 105.579 20.4854 105.579 20.4854Z" fill="#4A4D9E"/>
<path d="M99.8096 39.5927C99.8096 39.5927 100.859 36.8951 100.559 36.8951C100.259 36.8951 101.778 35.2359 102.368 35.8407C102.957 36.4455 104.006 38.2439 102.807 38.6935C101.608 39.1431 99.8096 39.5927 99.8096 39.5927Z" fill="#4A4D9E"/>
<path d="M107.196 37.9916C107.196 37.9916 104.456 37.0575 104.469 37.357C104.482 37.6564 102.76 36.2089 103.339 35.5945C103.918 34.9803 105.671 33.8561 106.171 35.035C106.67 36.2138 107.196 37.9916 107.196 37.9916Z" fill="#4A4D9E"/>
<path d="M102.807 33.8988C102.807 33.8988 104.175 33.1308 104.99 34.3391C105.804 35.5474 104.006 37.6455 102.807 37.6455C101.608 37.6455 101.608 35.0977 101.608 35.0977L102.807 33.8988Z" fill="#4A4D9E"/>
<path opacity="0.1" d="M102.807 33.8988C102.807 33.8988 104.175 33.1308 104.99 34.3391C105.804 35.5474 104.006 37.6455 102.807 37.6455C101.608 37.6455 101.608 35.0977 101.608 35.0977L102.807 33.8988Z" fill="black"/>
<path d="M93.7927 8.7504C93.0026 9.40177 92.2532 10.1317 91.7618 11.0302C91.5042 11.534 91.2888 12.0585 91.1179 12.598C90.5118 14.3421 89.0053 16.1086 89.6429 17.8415C89.8248 18.3359 90.1085 18.8573 89.9455 19.3583C89.8006 19.8033 89.3535 20.0629 89.0301 20.4011C88.3361 21.127 88.2194 22.2162 88.177 23.2196C88.0994 25.0571 89.1098 27.2226 90.3307 28.5982C90.5958 28.8569 90.8413 29.135 91.0655 29.43C91.2165 29.6652 91.3152 29.9301 91.355 30.2069C91.3947 30.4836 91.3744 30.7656 91.2956 31.0339L93.0741 30.6626C93.1382 31.3193 93.1583 31.9795 93.1341 32.6387C93.5558 32.6851 93.9806 32.5847 94.3369 32.3545C94.6932 32.1241 94.9593 31.7781 95.0902 31.3746C95.1909 31.8447 95.3554 32.2989 95.5789 32.7246C96.1006 32.072 96.5007 31.3311 96.7601 30.5369C97.1005 29.5198 97.1735 28.4321 96.9723 27.3786C96.7839 26.6091 96.5276 25.8579 96.2065 25.1337C95.578 23.5455 95.0648 21.9146 94.5523 20.2853C94.286 19.4391 94.0165 18.5654 94.0973 17.6819L94.7292 17.6132C94.7362 17.2642 94.8038 16.9192 94.9287 16.5933C95.2991 16.6717 95.6555 16.8058 95.9856 16.9911L96.7141 15.1425C97.1949 15.6412 97.8849 15.8669 98.5457 16.0749L101.057 16.8656L101.072 16.3686C102.132 17.307 103.34 18.0644 104.646 18.6103C104.572 18.5212 104.518 18.4174 104.488 18.3058C104.457 18.1944 104.451 18.0775 104.47 17.9634C105.088 19.072 104.841 20.4533 104.459 21.6641C104.077 22.8751 103.57 24.1079 103.724 25.3682C103.839 26.3108 104.322 27.2123 104.232 28.1578C104.188 28.6233 104.006 29.0664 103.95 29.5305C103.815 30.6376 104.397 31.6919 104.959 32.6553L106.051 31.1549C106.451 30.6056 106.863 30.0446 107.43 29.6691C108.011 29.2838 108.731 29.1108 109.237 28.6316C110.142 27.7759 110.027 26.3182 109.733 25.1086C109.577 24.4655 109.387 23.8134 109.445 23.1541C109.543 22.0366 110.319 21.1119 110.756 20.0788C111.068 19.3256 111.203 18.5111 111.151 17.6974C111.099 16.8839 110.862 16.0931 110.457 15.3855C109.915 14.4547 109.095 13.7049 108.583 12.7565C108.073 11.8123 107.88 10.6889 107.182 9.87414C106.842 9.50334 106.445 9.1877 106.008 8.93851C104.025 7.74731 101.798 7.02083 99.4946 6.81364C97.3099 6.58524 95.4668 7.37037 93.7927 8.7504Z" fill="#E2822A"/>
</g>
<defs>
<clipPath id="clip0">
<rect width="124.468" height="150" fill="white"/>
</clipPath>
</defs>
</svg>
