<svg width="195" height="150" viewBox="0 0 195 150" fill="none" xmlns="http://www.w3.org/2000/svg">
<g clip-path="url(#clip0)">
<path d="M12.9312 134.055C-18.7966 122.18 13.3082 73.2439 50.5761 29.7934C74.4471 1.96239 110.595 -5.82511 142.888 4.15575C177.218 14.7659 204.006 52.3262 190.544 85.6413C188.045 91.8282 184.505 97.6688 179.954 102.891L163.426 121.859L159.959 126.066C129.864 162.58 57.2406 150.64 12.9312 134.055Z" fill="white"/>
<path d="M51.4466 69.4442H51.4109L49.7263 67.2715L46.9999 69.9977L47.3015 70.4501L46.9583 70.5334C46.9583 70.5334 52.4605 81.1604 53.3772 77.1267C54.2939 73.093 51.4466 69.4442 51.4466 69.4442Z" fill="#FDB797"/>
<path d="M62.9333 31.4742C62.9333 31.4742 72.9675 34.4841 87.0179 29.9682C101.068 25.4523 130.169 36.49 130.169 36.49C130.169 36.49 153.249 36.49 187.37 21.9404C187.37 21.9404 171.816 36.992 182.854 46.0238C193.892 55.0555 183.858 68.0992 170.812 73.117C157.766 78.1349 156.763 88.1686 157.765 97.7023C158.768 107.236 157.765 98.2043 157.765 98.2043C157.765 98.2043 118.629 91.1805 108.592 115.268L58.9192 36.994C58.9192 36.994 55.9091 30.9742 62.9333 31.4742Z" fill="#4A4D9E"/>
<g opacity="0.1">
<path opacity="0.1" d="M65.8322 38.5556C65.8322 38.5556 75.8664 41.5655 89.9168 37.0496C103.967 32.5338 133.064 43.5734 133.064 43.5734C133.064 43.5734 151.735 43.5734 180.316 32.9861C182.576 27.01 187.755 21.998 187.755 21.998C153.626 36.5477 130.554 36.5477 130.554 36.5477C130.554 36.5477 101.451 25.51 87.4028 30.0258C73.3544 34.5417 63.3182 31.5318 63.3182 31.5318C56.294 31.0298 59.3041 37.0516 59.3041 37.0516L61.3697 40.3076C61.8003 39.2103 63.0007 38.3532 65.8322 38.5556Z" fill="black"/>
<path opacity="0.1" d="M183.245 46.0815C182.729 45.6618 182.248 45.2021 181.804 44.7065C181.689 47.6688 182.711 50.6153 185.753 53.1054C186.564 53.7612 187.307 54.4963 187.971 55.2998C188.068 52.0815 186.674 48.8871 183.245 46.0815Z" fill="black"/>
</g>
<path d="M81.1504 139.042L80.2257 143.667H76.5251L77.4518 137.192L81.1504 139.042Z" fill="#FDB797"/>
<path opacity="0.1" d="M81.0751 139.68L80.8151 140.462L77.1661 139.421L77.4261 138.899L81.0751 139.68Z" fill="black"/>
<path d="M57.1077 139.042L58.0323 143.667H61.7309L60.8063 137.192L57.1077 139.042Z" fill="#FDB797"/>
<path opacity="0.1" d="M57.0936 139.68L57.3536 140.722L61.0045 139.421V138.899L57.0936 139.68Z" fill="black"/>
<path d="M88.9782 13.1922C88.9782 13.1922 88.8751 8.55722 85.6189 6.00563C82.3628 3.45404 84.7994 15.1704 84.7994 15.1704L88.9782 13.1922Z" fill="#FDB797"/>
<path d="M61.7308 142.742H57.1075L56.1828 145.52C56.1828 145.52 51.4564 145.417 51.5596 146.445C51.6628 147.472 54.2304 149.222 60.8061 147.369L62.6554 145.52C62.6554 145.52 63.5801 144.591 61.7308 142.742Z" fill="#333333"/>
<path d="M76.5251 142.742H81.1484L82.073 145.52C82.073 145.52 86.7995 145.417 86.6963 146.445C86.5931 147.472 84.0255 149.222 77.4498 147.369L75.6005 145.52C75.6005 145.52 74.6758 144.591 76.5251 142.742Z" fill="#333333"/>
<path d="M82.0691 79.8628H56.1829C47.7579 102.055 48.7857 112.228 48.7857 112.228L56.1829 139.968L61.7387 139.044L56.1829 111.309C60.8061 107.508 69.13 92.8152 69.13 92.8152C69.13 92.8152 77.4499 107.5 82.0691 111.309L76.5133 139.05L82.0691 139.974L89.4663 112.234C89.4663 112.234 90.5001 102.055 82.0691 79.8628Z" fill="#333333"/>
<path opacity="0.1" d="M56.1829 80.2222C56.1829 80.2222 70.8661 85.7777 82.0751 80.2222H56.1829Z" fill="black"/>
<path d="M55.3655 46.6645L47.9683 54.0613L50.7462 68.8569L47.0476 71.6347L40.575 52.2161C40.575 52.2161 38.6225 48.6208 41.4997 46.6605L52.5975 35.5633C52.5975 35.5633 57.3596 32.3728 60.6336 34.0077C63.9076 35.6427 55.302 46.5474 55.302 46.5474" fill="#86CCC1"/>
<path d="M55.2562 46.5732L56.1809 79.8629C56.1809 79.8629 70.8642 85.4184 82.0731 79.8629L81.1484 48.5256L80.9123 47.4898L81.0829 46.9799L92.1946 37.7656C95.2404 36.089 93.6312 32.3271 93.6312 32.3271L88.9881 12.3926L85.0454 14.8093L86.4344 29.7974L78.5213 36.3609L78.3229 36.351V36.4006L58.0381 35.4779" fill="#86CCC1"/>
<path d="M69.7372 30.9048H68.6221C66.8873 30.9048 65.481 32.311 65.481 34.0457V36.0853C65.481 37.82 66.8873 39.2262 68.6221 39.2262H69.7372C71.4719 39.2262 72.8782 37.82 72.8782 36.0853V34.0457C72.8782 32.311 71.4719 30.9048 69.7372 30.9048Z" fill="#FDB797"/>
<path opacity="0.1" d="M65.7171 34.4583C66.8914 34.8683 68.1426 35.0099 69.3788 34.8725C70.615 34.7352 71.8047 34.3224 72.8603 33.6646C72.5998 32.9514 72.1268 32.3353 71.5052 31.8993C70.8836 31.4633 70.1433 31.2283 69.384 31.2261C68.4849 31.2292 67.6175 31.5586 66.9431 32.1531C66.2686 32.7476 65.833 33.5667 65.7171 34.4583Z" fill="black"/>
<path d="M68.255 34.6029C72.851 34.6029 76.5768 30.8772 76.5768 26.2814C76.5768 21.6856 72.851 17.96 68.255 17.96C63.6589 17.96 59.9331 21.6856 59.9331 26.2814C59.9331 30.8772 63.6589 34.6029 68.255 34.6029Z" fill="#FDB797"/>
<path opacity="0.1" d="M62.4749 21.6926C61.958 21.7578 61.4335 21.7283 60.9272 21.6053C60.4302 21.4248 59.9819 21.1314 59.6176 20.7482C58.5302 19.7045 57.7207 18.3117 57.6155 16.8077C57.5104 15.3037 58.2108 13.7105 59.5144 12.9645C61.3399 11.9248 63.6674 12.7462 65.4274 13.893C66.9414 14.8851 68.749 16.1569 70.3761 15.3692C70.9098 15.1113 71.3226 14.6569 71.8087 14.3176C73.6877 12.9982 76.4855 13.649 78.0193 15.3573C79.5531 17.0656 79.9837 19.5379 79.7198 21.8196C79.4559 24.1014 78.5828 26.2581 77.7812 28.4089C77.6565 28.8333 77.445 29.2272 77.1601 29.5656C76.1839 30.5676 74.3564 29.7899 73.7135 28.5478C72.5964 26.3871 73.7135 22.641 71.0745 21.3811C68.9732 20.3811 64.7309 21.5458 62.4749 21.6926Z" fill="black"/>
<path d="M62.5999 21.4861C62.083 21.5513 61.5585 21.5218 61.0522 21.3988C60.5552 21.2183 60.1069 20.9249 59.7426 20.5417C58.6552 19.498 57.8457 18.1052 57.7405 16.6012C57.6354 15.0972 58.3358 13.504 59.6394 12.758C61.4649 11.7183 63.7924 12.5397 65.5524 13.6865C67.0664 14.6786 68.874 15.9504 70.5011 15.1627C71.0349 14.9048 71.4476 14.4504 71.9337 14.1111C73.8128 12.7917 76.6105 13.4425 78.1443 15.1508C79.6782 16.8591 80.1087 19.3314 79.8448 21.6131C79.5809 23.8949 78.696 26.0516 77.9023 28.2024C77.7775 28.6268 77.566 29.0207 77.2812 29.3591C76.305 30.3611 74.4775 29.5833 73.8346 28.3413C72.7175 26.1806 73.8346 22.4345 71.1956 21.1746C69.1042 20.1746 64.854 21.3413 62.5999 21.4861Z" fill="#333333"/>
<path d="M72.8781 28.131C73.3888 28.131 73.8028 27.3031 73.8028 26.2818C73.8028 25.2605 73.3888 24.4326 72.8781 24.4326C72.3675 24.4326 71.9535 25.2605 71.9535 26.2818C71.9535 27.3031 72.3675 28.131 72.8781 28.131Z" fill="#FDB797"/>
<path opacity="0.1" d="M55.2682 46.5698L57.6155 47.669L55.2682 50.5381V46.5698Z" fill="black"/>
<path opacity="0.1" d="M81.075 46.9741L79.5114 48.7122L80.5531 50.2757L81.1623 48.5376L81.075 46.9741Z" fill="black"/>
<path d="M69.2887 38.4919V39.9979C69.2887 39.9979 58.306 37.9919 58.0262 34.98L65.2746 35.482L69.2887 38.4919Z" fill="#4A4D9E"/>
<path d="M69.2887 38.4919V39.9979C69.2887 39.9979 80.2714 37.9919 80.5512 34.98L73.3028 35.482L69.2887 38.4919Z" fill="#4A4D9E"/>
<path opacity="0.1" d="M136.413 54.8335L172.54 63.3633L159.494 68.8831L136.413 54.8335Z" fill="black"/>
<path d="M58.06 35.0537C58.06 35.0537 58.06 31.9009 60.1633 31.9009C62.2666 31.9009 64.3679 38.2084 64.3679 38.2084L58.06 35.0537Z" fill="#4A4D9E"/>
<path d="M29.4991 91.9879C30.2596 91.9879 30.8761 91.3714 30.8761 90.6109C30.8761 89.8504 30.2596 89.2339 29.4991 89.2339C28.7385 89.2339 28.122 89.8504 28.122 90.6109C28.122 91.3714 28.7385 91.9879 29.4991 91.9879Z" fill="#E2822A"/>
<path opacity="0.5" d="M109.767 4.80751C109.577 4.72497 109.425 4.5757 109.338 4.38805C109.252 4.20041 109.237 3.98745 109.297 3.78965C109.306 3.75939 109.312 3.72808 109.315 3.69639C109.32 3.60562 109.296 3.51546 109.247 3.43928C109.197 3.36311 109.124 3.305 109.039 3.27358C108.953 3.24216 108.86 3.23911 108.773 3.26488C108.686 3.29065 108.609 3.34387 108.555 3.41663C108.535 3.44238 108.519 3.47036 108.507 3.49997C108.424 3.68868 108.275 3.84051 108.088 3.92678C107.901 4.01306 107.688 4.0278 107.491 3.96822C107.461 3.95856 107.43 3.95256 107.398 3.95036C107.307 3.94472 107.217 3.96851 107.141 4.0182C107.065 4.06788 107.006 4.14082 106.975 4.22616C106.944 4.31151 106.941 4.40471 106.966 4.49193C106.992 4.57915 107.045 4.65572 107.118 4.71028C107.144 4.72947 107.172 4.74546 107.201 4.7579C107.389 4.84146 107.54 4.99085 107.626 5.17795C107.711 5.36505 107.726 5.57696 107.666 5.77378C107.656 5.80403 107.65 5.83534 107.648 5.86703C107.642 5.9578 107.666 6.04797 107.716 6.12414C107.765 6.20031 107.838 6.25843 107.924 6.28985C108.009 6.32127 108.102 6.32432 108.189 6.29854C108.277 6.27277 108.353 6.21955 108.408 6.14679C108.427 6.12104 108.443 6.09306 108.455 6.06346C108.538 5.87395 108.687 5.72136 108.875 5.63467C109.063 5.54798 109.276 5.53323 109.473 5.59322C109.504 5.60288 109.535 5.60888 109.567 5.61108C109.657 5.61655 109.747 5.59281 109.823 5.54337C109.899 5.49393 109.957 5.42141 109.988 5.33648C110.02 5.25156 110.023 5.15875 109.998 5.07172C109.973 4.9847 109.92 4.90807 109.848 4.85314C109.823 4.83478 109.796 4.81947 109.767 4.80751Z" fill="#4A4D9E"/>
<path opacity="0.5" d="M177.441 88.5355C177.251 88.453 177.099 88.3037 177.012 88.1161C176.925 87.9284 176.911 87.7155 176.971 87.5177C176.98 87.4874 176.986 87.4561 176.989 87.4244C176.994 87.3337 176.97 87.2435 176.921 87.1673C176.871 87.0911 176.798 87.033 176.713 87.0016C176.627 86.9702 176.534 86.9671 176.447 86.9929C176.36 87.0187 176.283 87.0719 176.229 87.1447C176.209 87.1704 176.193 87.1984 176.181 87.228C176.098 87.4175 175.949 87.5701 175.762 87.6568C175.574 87.7435 175.361 87.7582 175.163 87.6982C175.133 87.6886 175.102 87.6826 175.07 87.6804C174.979 87.6747 174.889 87.6985 174.813 87.7482C174.737 87.7979 174.678 87.8708 174.647 87.9562C174.616 88.0415 174.613 88.1347 174.638 88.222C174.664 88.3092 174.717 88.3857 174.79 88.4403C174.816 88.4595 174.844 88.4755 174.873 88.4879C175.063 88.5705 175.216 88.7197 175.302 88.9074C175.389 89.095 175.404 89.308 175.344 89.5058C175.334 89.5361 175.328 89.5674 175.326 89.5991C175.32 89.6898 175.344 89.78 175.394 89.8562C175.443 89.9323 175.516 89.9905 175.602 90.0219C175.687 90.0533 175.78 90.0563 175.867 90.0306C175.955 90.0048 176.031 89.9516 176.086 89.8788C176.105 89.8531 176.121 89.8251 176.133 89.7955C176.216 89.606 176.365 89.4534 176.553 89.3667C176.741 89.28 176.953 89.2653 177.151 89.3252C177.182 89.3349 177.213 89.3409 177.245 89.3431C177.335 89.3487 177.425 89.325 177.502 89.2753C177.578 89.2256 177.636 89.1526 177.667 89.0673C177.699 88.982 177.702 88.8887 177.676 88.8015C177.65 88.7143 177.597 88.6377 177.524 88.5832C177.499 88.564 177.471 88.548 177.441 88.5355Z" fill="#4A4D9E"/>
<path opacity="0.5" d="M126.538 129.149C127.298 129.149 127.915 128.532 127.915 127.772C127.915 127.011 127.298 126.395 126.538 126.395C125.777 126.395 125.161 127.011 125.161 127.772C125.161 128.532 125.777 129.149 126.538 129.149Z" fill="#4A4D9E"/>
<path d="M12.2937 119.516C13.0543 119.516 13.6708 118.899 13.6708 118.139C13.6708 117.378 13.0543 116.762 12.2937 116.762C11.5332 116.762 10.9167 117.378 10.9167 118.139C10.9167 118.899 11.5332 119.516 12.2937 119.516Z" fill="#86CCC1"/>
<path opacity="0.5" d="M122.408 19.7281C123.169 19.7281 123.785 19.1116 123.785 18.3511C123.785 17.5906 123.169 16.9741 122.408 16.9741C121.648 16.9741 121.031 17.5906 121.031 18.3511C121.031 19.1116 121.648 19.7281 122.408 19.7281Z" fill="#47E6B1"/>
<g opacity="0.5">
<path opacity="0.5" d="M151.085 20.645H150.396V24.5438H151.085V20.645Z" fill="#86CCC1"/>
<path opacity="0.5" d="M152.692 22.9385V22.25H148.793V22.9385H152.692Z" fill="#86CCC1"/>
</g>
</g>
<defs>
<clipPath id="clip0">
<rect width="195" height="150" fill="white"/>
</clipPath>
</defs>
</svg>
