<svg width="195" height="150" viewBox="0 0 195 150" fill="none" xmlns="http://www.w3.org/2000/svg">
<g clip-path="url(#clip0)">
<path d="M12.9312 134.055C-18.7966 122.18 13.3082 73.2439 50.5761 29.7934C74.4471 1.96239 110.595 -5.82511 142.888 4.15575C177.218 14.7659 204.006 52.3262 190.544 85.6413C188.045 91.8282 184.505 97.6688 179.954 102.891L163.426 121.859L159.959 126.066C129.864 162.58 57.2406 150.64 12.9312 134.055Z" fill="white"/>
<path d="M76.6552 33.5338C76.6552 33.5338 86.6894 36.5437 100.74 32.0278C114.79 27.5119 143.891 38.5496 143.891 38.5496C143.891 38.5496 166.971 38.5496 201.092 24C201.092 24 185.538 39.0516 196.576 48.0834C207.614 57.1151 197.58 70.1588 184.534 75.1766C171.488 80.1945 170.485 90.2282 171.487 99.7619C172.49 109.296 171.487 100.264 171.487 100.264C171.487 100.264 132.351 93.2401 122.314 117.328L72.6411 39.0536C72.6411 39.0536 69.631 33.0338 76.6552 33.5338Z" fill="#4A4D9E"/>
<g opacity="0.1">
<path opacity="0.1" d="M65.1692 38.5576C65.1692 38.5576 75.2034 41.5675 89.2538 37.0516C103.304 32.5358 132.401 43.5754 132.401 43.5754C132.401 43.5754 151.072 43.5754 179.653 32.9881C181.913 27.012 187.092 22 187.092 22C152.963 36.5497 129.891 36.5497 129.891 36.5497C129.891 36.5497 100.788 25.512 86.7398 30.0278C72.6914 34.5437 62.6552 31.5338 62.6552 31.5338C55.631 31.0318 58.6411 37.0536 58.6411 37.0536L60.7067 40.3096C61.1373 39.2123 62.3377 38.3552 65.1692 38.5576Z" fill="black"/>
<path opacity="0.1" d="M182.582 46.084C182.066 45.6643 181.585 45.2046 181.141 44.709C181.026 47.6713 182.048 50.6178 185.09 53.1079C185.901 53.7637 186.644 54.4988 187.308 55.3023C187.405 52.084 186.011 48.8896 182.582 46.084Z" fill="black"/>
</g>
<path opacity="0.1" d="M81.075 46.9736L79.5114 48.7117L80.5531 50.2752L81.1623 48.5371L81.075 46.9736Z" fill="black"/>
<path opacity="0.1" d="M136.413 54.834L172.54 63.3638L159.494 68.8836L136.413 54.834Z" fill="black"/>
<path d="M29.4991 91.9884C30.2596 91.9884 30.8761 91.3719 30.8761 90.6114C30.8761 89.8509 30.2596 89.2344 29.4991 89.2344C28.7385 89.2344 28.122 89.8509 28.122 90.6114C28.122 91.3719 28.7385 91.9884 29.4991 91.9884Z" fill="#E2822A"/>
<path opacity="0.5" d="M109.767 4.80702C109.577 4.72448 109.425 4.57521 109.338 4.38756C109.252 4.19992 109.237 3.98696 109.297 3.78916C109.306 3.7589 109.312 3.72759 109.315 3.6959C109.32 3.60513 109.296 3.51497 109.247 3.43879C109.197 3.36262 109.124 3.30451 109.039 3.27309C108.953 3.24167 108.86 3.23862 108.773 3.26439C108.686 3.29016 108.609 3.34338 108.555 3.41614C108.535 3.44189 108.519 3.46987 108.507 3.49948C108.424 3.68819 108.275 3.84002 108.088 3.92629C107.901 4.01257 107.688 4.02731 107.491 3.96773C107.461 3.95807 107.43 3.95207 107.398 3.94987C107.307 3.94423 107.217 3.96802 107.141 4.01771C107.065 4.06739 107.006 4.14033 106.975 4.22567C106.944 4.31102 106.941 4.40422 106.966 4.49144C106.992 4.57866 107.045 4.65523 107.118 4.70979C107.144 4.72898 107.172 4.74497 107.201 4.75741C107.389 4.84097 107.54 4.99036 107.626 5.17746C107.711 5.36456 107.726 5.57647 107.666 5.77329C107.656 5.80354 107.65 5.83485 107.648 5.86654C107.642 5.95731 107.666 6.04748 107.716 6.12365C107.765 6.19982 107.838 6.25794 107.924 6.28936C108.009 6.32078 108.102 6.32383 108.189 6.29805C108.277 6.27228 108.353 6.21906 108.408 6.1463C108.427 6.12055 108.443 6.09257 108.455 6.06297C108.538 5.87346 108.687 5.72087 108.875 5.63418C109.063 5.54749 109.276 5.53274 109.473 5.59273C109.504 5.60239 109.535 5.60839 109.567 5.61059C109.657 5.61606 109.747 5.59232 109.823 5.54288C109.899 5.49344 109.957 5.42092 109.988 5.33599C110.02 5.25107 110.023 5.15826 109.998 5.07123C109.973 4.98421 109.92 4.90758 109.848 4.85265C109.823 4.83429 109.796 4.81898 109.767 4.80702Z" fill="#4A4D9E"/>
<path opacity="0.5" d="M177.441 88.5355C177.251 88.453 177.099 88.3037 177.012 88.1161C176.925 87.9284 176.911 87.7155 176.971 87.5177C176.98 87.4874 176.986 87.4561 176.989 87.4244C176.994 87.3337 176.97 87.2435 176.921 87.1673C176.871 87.0911 176.798 87.033 176.713 87.0016C176.627 86.9702 176.534 86.9671 176.447 86.9929C176.36 87.0187 176.283 87.0719 176.229 87.1447C176.209 87.1704 176.193 87.1984 176.181 87.228C176.098 87.4175 175.949 87.5701 175.762 87.6568C175.574 87.7435 175.361 87.7582 175.163 87.6982C175.133 87.6886 175.102 87.6826 175.07 87.6804C174.979 87.6747 174.889 87.6985 174.813 87.7482C174.737 87.7979 174.678 87.8708 174.647 87.9562C174.616 88.0415 174.613 88.1347 174.638 88.222C174.664 88.3092 174.717 88.3857 174.79 88.4403C174.816 88.4595 174.844 88.4755 174.873 88.4879C175.063 88.5705 175.216 88.7197 175.302 88.9074C175.389 89.095 175.404 89.308 175.344 89.5058C175.334 89.5361 175.328 89.5674 175.326 89.5991C175.32 89.6898 175.344 89.78 175.394 89.8562C175.443 89.9323 175.516 89.9905 175.602 90.0219C175.687 90.0533 175.78 90.0563 175.867 90.0306C175.955 90.0048 176.031 89.9516 176.086 89.8788C176.105 89.8531 176.121 89.8251 176.133 89.7955C176.216 89.606 176.365 89.4534 176.553 89.3667C176.741 89.28 176.953 89.2653 177.151 89.3252C177.182 89.3349 177.213 89.3409 177.245 89.3431C177.335 89.3487 177.425 89.325 177.502 89.2753C177.578 89.2256 177.636 89.1526 177.667 89.0673C177.699 88.982 177.702 88.8887 177.676 88.8015C177.65 88.7143 177.597 88.6377 177.524 88.5832C177.499 88.564 177.471 88.548 177.441 88.5355Z" fill="#4A4D9E"/>
<path opacity="0.5" d="M126.538 129.149C127.298 129.149 127.915 128.532 127.915 127.772C127.915 127.011 127.298 126.395 126.538 126.395C125.777 126.395 125.161 127.011 125.161 127.772C125.161 128.532 125.777 129.149 126.538 129.149Z" fill="#4A4D9E"/>
<path d="M12.2937 119.516C13.0543 119.516 13.6708 118.899 13.6708 118.139C13.6708 117.378 13.0543 116.762 12.2937 116.762C11.5332 116.762 10.9167 117.378 10.9167 118.139C10.9167 118.899 11.5332 119.516 12.2937 119.516Z" fill="#86CCC1"/>
<path opacity="0.5" d="M122.408 19.7276C123.169 19.7276 123.785 19.1111 123.785 18.3506C123.785 17.5901 123.169 16.9736 122.408 16.9736C121.648 16.9736 121.031 17.5901 121.031 18.3506C121.031 19.1111 121.648 19.7276 122.408 19.7276Z" fill="#47E6B1"/>
<g opacity="0.5">
<path opacity="0.5" d="M151.085 20.6445H150.396V24.5433H151.085V20.6445Z" fill="#86CCC1"/>
<path opacity="0.5" d="M152.692 22.9385V22.25H148.793V22.9385H152.692Z" fill="#86CCC1"/>
</g>
<path d="M94 127L91.3469 137.222L91.7551 141L84 139.222C84 139.222 87.2653 133.222 86.8571 130.111L94 127Z" fill="#D5838E"/>
<path d="M57.6812 89.7073L60 102L52.3478 100.862L52 88L57.6812 89.7073Z" fill="#D5838E"/>
<path d="M80.344 10.4645C86.7707 12.303 90.4144 19.8991 88.4823 27.4308L86.0275 37L83.2406 36.2027L82.5366 32.1957L82.0305 35.8566L64.117 30.7321L63.477 27.0894L63.0169 30.4174L61 29.8405L62.9274 22.327C65.1508 13.6599 72.9484 8.3489 80.344 10.4645Z" fill="#2F2E41"/>
<path d="M78.5 32C74.3579 32 71 28.4183 71 24C71 19.5817 74.3579 16 78.5 16C82.6421 16 86 19.5817 86 24C86 28.4183 82.6421 32 78.5 32Z" fill="#D5838E"/>
<path d="M81.1081 29.9924L81.5405 34.4198L85 36.4122L75.9189 57L69 39.9542L73.5405 36.4122L73.973 28L81.1081 29.9924Z" fill="#D5838E"/>
<path d="M74.303 52.3977L83.153 36C83.153 36 90.2937 36.4822 92.0224 38.0296L88.5649 60.5766L89.6454 63.4502C89.6454 63.4502 98.505 72.7343 96.7763 92.8497C95.0476 112.965 95.0476 128.66 95.0476 128.66C95.0476 128.66 88.781 136.175 75.8157 128.66V88.6498L57.4481 87.1025V91.9655C57.4481 91.9655 38.4322 87.1025 38 79.8078L42.8919 71.1164C43.837 69.4373 45.3083 68.1334 47.0677 67.4159C48.8272 66.6984 50.7718 66.6092 52.587 67.1626L68.6847 72.0711L70.4134 65.4396L68.6847 60.5766C68.6847 60.5766 64.1468 57.0398 64.1468 52.3977C64.1468 47.7557 62.8503 42.2295 62.8503 42.2295L71.2559 38.2624L74.303 52.3977Z" fill="#86CCC1"/>
<path d="M90.3404 38H91.9787C91.9787 38 94.5532 39.5063 96.6596 45.962C98.766 52.4177 99 52.6329 99 52.6329L88 55L90.3404 38Z" fill="#2F2E41"/>
<path d="M82 40.165L82 42C82 42 70.5217 45.5829 70 37L76.7826 37.9979L78.3478 39.0814L81.4783 40.165H82Z" fill="#4A4D9E"/>
<path d="M80.9738 39.9978L82 42C82 42 92.6756 39.3003 92.9738 35.0986L82.9738 35.5986L82.4738 37.0986L80.9738 39.9978Z" fill="#4A4D9E"/>
<path d="M70 36.9991C70 36.9991 70 34 72.6675 34C75.335 34 78 40 78 40L70 36.9991Z" fill="#4A4D9E"/>
<path d="M58.9704 50L55.7622 58.7778C55.7622 58.7778 52.3536 63.2792 51.7521 68.2308L50.7495 74.0826C50.7495 74.0826 48.3435 84.4359 52.1531 83.9857C55.9627 83.5356 54.9602 73.6325 54.9602 73.6325L55.5617 70.7065L58.9704 64.4046L64 53.6731L58.9704 50Z" fill="#D5838E"/>
<path d="M58.639 100.243C58.639 100.243 52.4081 100.867 51.1685 98L44.9206 103.132C44.9206 103.132 33.6049 106.224 39.9123 108.909C45.7915 111.411 51.6709 108.74 51.6709 109.353C51.6709 109.353 53.413 107.798 55.3727 108.909C57.3325 110.02 63.2119 108.909 62.9941 107.131C62.7764 105.354 61.9053 98.9102 58.639 100.243Z" fill="#2F2E41"/>
<path d="M91.6421 138.252C91.6421 138.252 85.4155 138.878 84.1768 136L77.9332 141.151C77.9332 141.151 66.5818 144.365 72.9284 146.951C78.7975 149.341 84.6758 146.817 84.6788 147.397C84.6788 147.397 86.4197 145.835 88.3781 146.951C90.3365 148.066 96.2117 146.951 95.9941 145.166C95.7765 143.382 94.9061 136.914 91.6421 138.252Z" fill="#2F2E41"/>
<path d="M66.0392 41L63.4902 41.9L58 51.35L68 59L66.0392 41Z" fill="#2F2E41"/>
<path d="M76.8023 13.4463C78.3194 12.1837 80.2267 11.667 82.0785 12.2209L82.2984 12.2867C86.5387 13.555 88.9367 18.8197 87.6546 24.0459V24.0459L86.2337 23.6209L86.4774 21.6238L85.6679 23.4516L77.2411 20.9311L76.9354 19.0885L76.7116 20.7728L75.0538 20.2769C73.2395 24.2874 73.3103 28.8618 75.2662 34L72.4422 33.1553L71.8308 29.47L71.3832 32.8386L66 31.2284L66.7823 23.4067C68.1612 17.7862 72.2882 13.9048 76.8023 13.4463Z" fill="#2F2E41"/>
<path d="M74.5 13C72.567 13 71 11.2091 71 9C71 6.79086 72.567 5 74.5 5C76.433 5 78 6.79086 78 9C78 11.2091 76.433 13 74.5 13Z" fill="#2F2E41"/>
<path d="M75.383 10.7767C76.0749 10.7773 76.745 10.4474 77.2764 9.84463C77.8077 9.2419 78.1666 8.40457 78.2903 7.47874C78.4141 6.55292 78.2949 5.59738 77.9536 4.77885C77.6123 3.96031 77.0705 3.33075 76.4227 3C76.8363 3.07219 77.234 3.26268 77.5896 3.55895C77.9452 3.85522 78.2506 4.25055 78.4857 4.71891C78.7209 5.18727 78.8804 5.71805 78.9538 6.27631C79.0273 6.83457 79.013 7.40765 78.9118 7.95784C78.8107 8.50803 78.625 9.02285 78.367 9.46842C78.109 9.91399 77.7846 10.2802 77.4151 10.5429C77.0455 10.8057 76.6392 10.959 76.223 10.9929C75.8067 11.0267 75.3899 10.9402 75 10.7392C75.127 10.7629 75.2549 10.7755 75.383 10.7767Z" fill="#2F2E41"/>
<path d="M73.5 25C72.6716 25 72 24.5523 72 24C72 23.4477 72.6716 23 73.5 23C74.3284 23 75 23.4477 75 24C75 24.5523 74.3284 25 73.5 25Z" fill="#D5838E"/>
<path d="M94.9892 51L95.5591 59.9879C95.5591 59.9879 98.2186 64.9312 98.7885 75.4919L98.9785 82.0081C98.9785 82.0081 102.968 91.2206 99.7383 90.996C96.5089 90.7713 96.6989 82.2328 96.6989 82.2328L91 62.6842V53.247L94.9892 51Z" fill="#D5838E"/>
<path d="M84.4782 36.812L83.0584 35.0913L86.4336 35.0919L86.4782 36.3125L85.9782 37.3123L84.4782 36.812Z" fill="#2F2E41"/>
</g>
<defs>
<clipPath id="clip0">
<rect width="195" height="150" fill="white"/>
</clipPath>
</defs>
</svg>
