<svg width="79" height="30" viewBox="0 0 79 30" fill="none" xmlns="http://www.w3.org/2000/svg">
<path fill-rule="evenodd" clip-rule="evenodd" d="M14.8331 9.08086C13.576 9.23324 13.176 9.47609 13.1141 10.3999C13.0665 11.138 13.0141 11.8856 13.0141 13.6951V21.7904H12.0046L3.4617 11.4809V16.2428C3.4617 18.0285 3.50932 18.8618 3.5617 19.4523C3.62837 20.4047 4.08551 20.8047 5.57122 20.8809V21.5666H0.571224V20.8999C1.76646 20.7999 2.26646 20.4761 2.38075 19.5237C2.47962 18.4298 2.51777 17.3313 2.49503 16.2332V11.2951C2.55445 10.7479 2.40475 10.1985 2.07599 9.75705C1.70456 9.24752 1.23789 9.16657 0.337891 9.08086V8.39038H3.96646L12.0046 17.8094V13.6951C12.0046 11.8856 11.9807 11.1475 11.9188 10.4428C11.8569 9.55705 11.4855 9.18086 9.81884 9.08086V8.39038H14.8331V9.08086Z" fill="black"/>
<path fill-rule="evenodd" clip-rule="evenodd" d="M26.3667 21.5856V20.8999C27.9524 20.7428 28.1286 20.638 28.1286 18.9237V11.0761C28.1286 9.35705 27.9381 9.22371 26.3667 9.08086V8.39038H32.3477V9.08086C30.7715 9.23324 30.581 9.35705 30.581 11.0761V18.9237C30.581 20.6285 30.7572 20.7332 32.3477 20.8999V21.5856H26.3667Z" fill="black"/>
<path fill-rule="evenodd" clip-rule="evenodd" d="M76.5807 11.6476C76.1997 10.3333 75.6283 8.9095 73.7473 8.9095C73.477 8.89698 73.2071 8.94148 72.9552 9.0401C72.7032 9.13873 72.4748 9.28927 72.2848 9.48194C72.0949 9.67461 71.9475 9.9051 71.8525 10.1584C71.7574 10.4118 71.7167 10.6823 71.733 10.9524C71.733 12.1666 72.5378 12.8571 74.2854 13.7381C76.5521 14.8762 77.8188 15.8905 77.8188 17.8714C77.8188 20.1762 75.8759 21.8762 73.0569 21.8762C71.9277 21.8425 70.8115 21.6254 69.7521 21.2333C69.614 20.7571 69.3045 18.8762 69.1616 17.8714L69.8997 17.6952C70.3045 19.0047 71.3569 21.0619 73.3902 21.0619C73.6767 21.0801 73.9637 21.0362 74.2317 20.9333C74.4997 20.8304 74.7423 20.6709 74.943 20.4657C75.1437 20.2605 75.2978 20.0143 75.3947 19.7441C75.4916 19.4739 75.529 19.186 75.5045 18.9C75.5045 17.5857 74.7378 16.9143 73.0045 15.9809C70.8854 14.8381 69.5711 13.8381 69.5711 11.8047C69.5711 9.77141 71.1807 8.09521 74.095 8.09521C75.0462 8.12487 75.9922 8.2493 76.9188 8.46664C77.0045 9.2095 77.1235 10.1809 77.2854 11.4714L76.5807 11.6476Z" fill="black"/>
<path fill-rule="evenodd" clip-rule="evenodd" d="M58.0044 9.08086C56.7139 9.18562 56.3235 9.55705 56.2568 10.3523C56.2092 10.9142 56.1711 11.657 56.1711 13.238V15.7142C56.1711 17.5713 55.8997 19.2761 54.7425 20.4999C53.7901 21.4809 52.3616 21.8666 50.933 21.8666C49.6773 21.9258 48.437 21.5693 47.4044 20.8523C46.2139 19.9475 45.6378 18.6523 45.6378 16.3428V11.2094C45.6378 9.35705 45.4616 9.21895 43.8901 9.08086V8.39038H49.8378V9.08086C48.2806 9.20467 48.1044 9.35705 48.1044 11.2094V16.4951C48.1044 19.0094 49.3187 20.557 51.5854 20.557C54.1663 20.557 55.1711 18.7713 55.1711 15.6094V13.2285C55.1711 11.6618 55.1092 10.919 55.0663 10.3285C54.9949 9.40467 54.4616 9.15228 53.0139 9.07133V8.39038H57.9901L58.0044 9.08086Z" fill="black"/>
</svg>
