<svg width="69" height="30" viewBox="0 0 69 30" fill="none" xmlns="http://www.w3.org/2000/svg">
<g clip-path="url(#clip0)">
<path d="M68.4349 0H0V30H61.873L68.4349 0Z" fill="black"/>
<path d="M35.9985 20.2491C35.9985 19.6873 36.1858 18.7491 36.1858 17.8127C36.1858 16.8746 35.9985 15.9381 35.9985 15.3746C34.4985 14.8127 30.7493 13.8746 25.3112 14.8127V20.6254C27.1874 20.8127 28.8747 20.8127 30.1858 20.8127C33.562 20.8127 35.2493 20.4381 35.9985 20.2491ZM54.5604 20.2491C54.5604 19.6873 54.7477 18.7491 54.7477 17.8127C54.7477 16.8746 54.5604 15.9381 54.5604 15.3746C53.0604 14.8127 49.3112 13.8746 43.8731 14.8127V20.6254C45.7493 20.8127 47.4366 20.8127 48.7493 20.8127C51.9366 20.8127 53.6239 20.4381 54.5604 20.2491ZM57.1858 17.6254C57.1858 21.1873 56.6239 22.1254 56.6239 22.1254C56.6239 22.1254 54.9366 23.4364 48.7493 23.4364C45.3731 23.4364 41.4366 22.8746 41.4366 22.8746V6.56348H43.8731V12C45.3731 11.8127 46.8731 11.6254 47.9985 11.6254C53.8112 11.6254 56.6239 13.3127 56.6239 13.3127C56.6239 13.3127 57.1858 14.0618 57.1858 17.6254ZM38.6239 17.6254C38.6239 21.1873 38.062 22.1254 38.062 22.1254C38.062 22.1254 36.3747 23.4364 30.1858 23.4364C26.8112 23.4364 22.8747 22.8746 22.8747 22.8746V6.56348H25.3112V12C26.8112 11.8127 28.3112 11.6254 29.4366 11.6254C35.2493 11.6254 38.062 13.3127 38.062 13.3127C38.062 13.3127 38.6239 14.0618 38.6239 17.6254ZM20.062 14.4381C13.6874 14.4381 10.3128 15.5618 9.18742 15.9381V23.2491H6.56201V14.2508C6.56201 14.2508 10.3128 12 20.062 11.8127V14.4381Z" fill="white"/>
</g>
<defs>
<clipPath id="clip0">
<rect width="68.4349" height="30" fill="white"/>
</clipPath>
</defs>
</svg>
