<svg width="108" height="30" viewBox="0 0 108 30" fill="none" xmlns="http://www.w3.org/2000/svg">
<path d="M58.8717 4.43164C58.7451 5.74504 58.8591 7.03984 58.7721 8.35384C58.7121 8.19424 58.6935 7.99504 58.6563 7.81564C58.3821 6.95824 58.2885 5.84224 57.2745 5.49844C55.8621 5.09284 54.1107 5.12344 53.1087 6.35224C52.2075 7.34284 52.1403 8.75584 52.2129 10.0308C52.3251 11.385 53.1339 12.783 54.4653 13.2684C55.4793 13.5726 56.5551 13.4586 57.5127 13.1652C57.6519 13.0866 57.6531 12.9468 57.6747 12.8076C57.7191 11.8716 57.7041 10.9362 57.5691 10.0194C57.2127 9.55984 56.6349 9.61624 56.1381 9.47404V9.45424L60.3603 9.39724C60.0003 9.59464 59.5611 9.75124 59.3409 10.128C59.2767 10.9842 59.2719 11.88 59.3865 12.7164C59.5647 12.9762 59.8821 13.1172 60.0801 13.3374C58.3881 13.2684 56.9697 14.0172 55.2777 13.9686C54.0039 13.9416 52.6899 13.716 51.7803 12.735C50.5323 11.4738 50.0259 9.40084 50.7123 7.67224C50.9949 6.97684 51.4365 6.32224 52.0761 5.80804C53.6355 4.58224 56.1453 4.41604 57.9123 5.30164C58.0119 5.34184 58.1115 5.46184 58.2309 5.38324C58.4913 5.10604 58.6527 4.74844 58.8333 4.41064L58.8717 4.43164Z" fill="#1E1E1C"/>
<path d="M84.3539 4.92603C84.4289 4.93803 84.5741 4.90743 84.6923 4.90803C85.4297 4.93203 86.1653 4.83603 86.8823 4.76043L86.9219 4.84023L86.8715 6.79083C86.5751 6.37143 86.4587 5.71383 85.9235 5.49183C85.1663 5.36823 84.3497 5.52303 83.6123 5.57943C83.5115 5.69823 83.5511 5.87763 83.5103 6.03663C83.3195 8.14623 83.3873 10.3764 83.4551 12.4674C83.4737 12.8454 83.5709 13.2444 83.9087 13.4652C84.1463 13.5858 84.3857 13.6668 84.6233 13.7676V13.8072C83.2697 13.6206 81.9359 13.5144 80.5817 13.7262V13.6866C81.0413 13.4502 81.6191 13.2738 81.7817 12.7176L81.8663 11.8818L81.8255 8.45703C81.8105 7.50123 81.7961 6.50583 81.7409 5.52963C81.5825 5.38983 81.3035 5.48763 81.1043 5.44683C80.4269 5.44323 79.3337 5.17863 78.9305 5.95263C78.7901 6.27063 78.6095 6.60783 78.4877 6.94563C78.4493 6.94563 78.4493 6.88563 78.4493 6.84603C78.4331 6.12903 78.3977 5.39223 78.4397 4.65603L78.4607 4.63623C80.3729 4.92483 82.3829 4.95543 84.3539 4.92603Z" fill="#1E1E1C"/>
<path d="M9.5351 4.34708C9.4697 5.38208 9.4637 6.47709 9.5579 7.49349C9.5579 7.51329 9.5183 7.49349 9.5183 7.51329C9.2633 6.75549 8.8697 5.91668 8.0351 5.57408C7.3001 5.29148 6.2453 5.20628 5.6447 5.83988C5.3243 6.19628 5.1821 6.69368 5.3393 7.15268C5.9501 8.41028 7.4435 8.29869 8.4557 8.96109C9.5471 9.58389 10.1783 10.7227 9.9929 11.9557C9.8687 12.7915 9.1481 13.5835 8.3303 13.8181C7.1135 14.3089 5.6213 14.1025 4.4693 13.5583C4.2503 13.5373 4.1891 13.7959 4.1087 13.9543C3.9887 14.0929 3.9275 14.3515 3.7283 14.4103C3.6689 14.2711 3.7493 14.1517 3.7505 14.0125C3.7559 13.0369 3.7217 11.9413 3.6875 10.9657C3.7667 11.0257 3.7259 11.1649 3.8051 11.2447C3.8633 11.5639 4.0607 11.8831 4.1981 12.2023C4.6331 12.8221 5.3279 13.1641 6.0233 13.3669C6.8585 13.5511 7.7951 13.4359 8.3759 12.7825C8.6567 12.4453 8.6789 11.9077 8.5019 11.5285C8.1083 10.6105 7.1141 10.3465 6.2999 10.0435C5.3459 9.70029 4.0751 9.05588 3.9623 7.88109C3.7883 6.94448 4.1711 6.09009 4.8509 5.49669C5.8715 4.58588 7.5227 4.75448 8.7155 5.13908C9.1931 5.18168 9.2759 4.60448 9.4961 4.30688L9.5351 4.34708Z" fill="#1E1E1C"/>
<path d="M94.7284 4.86187C94.684 5.69767 94.7392 6.43507 94.7146 7.29067L94.6762 7.23067C94.4608 6.59227 94.3654 5.73547 93.5896 5.49247C92.6344 5.32867 91.6186 5.44267 90.6634 5.49667C90.5824 5.53627 90.5026 5.61547 90.5242 5.69527C90.5158 6.83047 90.3532 7.84507 90.4858 8.94067L90.5458 9.00067C91.2628 9.02467 92.1184 9.02887 92.8156 8.97307C93.3544 8.89627 93.6358 8.32027 93.7576 7.86307V7.84327H93.7774C93.6916 8.71867 93.727 9.77467 93.7222 10.6705C93.5452 10.2709 93.4084 9.73267 92.8912 9.57067C92.1352 9.44707 91.3186 9.54247 90.5416 9.55807L90.4816 9.63727C90.5356 10.7923 90.4498 11.9467 90.5428 13.1023C90.5416 13.1815 90.6412 13.1623 90.7024 13.1827C91.6378 13.2475 92.5738 13.1533 93.49 13.1779C94.1278 13.0621 94.5682 12.4075 94.7524 11.8507C94.8334 11.5921 94.9726 11.3743 95.0548 11.1157C95.0734 11.3347 95.0326 11.5735 95.0314 11.8321C95.0278 12.4891 95.0044 13.1659 95.041 13.8229C94.741 13.8613 94.4434 13.7599 94.1446 13.7785L90.5818 13.7395C89.644 13.7347 88.729 13.8289 87.793 13.8241C88.1326 13.6069 88.5538 13.4893 88.7926 13.1125L88.9156 12.4159L88.9096 9.82747C88.8568 8.51347 88.9048 7.15987 88.8112 5.86507C88.7548 5.40667 88.3378 5.02627 87.9406 4.84507C90.1096 5.07547 92.5006 4.98907 94.6522 4.80127C94.7086 4.80187 94.7086 4.84207 94.7284 4.86187Z" fill="#1E1E1C"/>
<path d="M49.5121 4.87921C49.4689 5.53621 49.4647 6.27241 49.3819 6.86942C49.2055 6.39061 49.0693 5.69341 48.4531 5.57041C47.7169 5.46721 46.9597 5.58241 46.2427 5.67781C46.0219 5.95561 46.1791 6.39421 46.1173 6.75241L46.1011 9.83882C46.1947 10.9344 45.9901 12.0084 46.3033 13.0254C46.6195 13.485 47.1367 13.5672 47.5531 13.8282L47.5333 13.848C46.6975 13.7238 45.9409 13.74 45.0655 13.6956C44.4079 13.752 43.7311 13.8078 43.0933 13.8642V13.8444C43.4719 13.767 43.7917 13.5492 44.1313 13.3524C44.2519 13.1934 44.2723 13.0146 44.2735 12.7956L44.3179 11.9202L44.2627 7.30081C44.2657 6.76321 44.1889 6.24541 44.1721 5.68801C44.1523 5.62801 44.1127 5.58781 44.0731 5.56801C43.2967 5.60401 42.5209 5.42041 41.8033 5.59561C41.2441 5.87101 41.1415 6.48781 40.9399 6.98461H40.9201C40.9039 6.24781 40.8877 5.57101 40.8115 4.87321L40.8517 4.83361C43.6579 5.06761 46.6441 5.08381 49.4137 4.69981C49.5331 4.66021 49.5121 4.79941 49.5121 4.87921Z" fill="#1E1E1C"/>
<path d="M40.1544 4.80895C40.071 5.52535 40.047 6.32155 40.0032 7.03795C39.807 6.55915 39.771 5.80195 39.0948 5.65915C38.3394 5.45635 37.5624 5.53135 36.7656 5.58715C36.6462 5.62615 36.6852 5.76595 36.645 5.84515C36.5946 7.89535 36.603 9.96655 36.6318 12.0174C36.669 12.5154 36.5856 13.1916 37.1418 13.4934L37.857 13.8156V13.8354C37.2594 13.812 36.6432 13.7094 36.006 13.7262C35.2296 13.722 34.4322 13.8768 33.6756 13.893V13.833C34.0746 13.6956 34.5732 13.5588 34.7346 13.1022C34.9416 11.61 34.8108 10.0362 34.8588 8.54335C34.8444 7.56775 34.7898 6.61195 34.7346 5.65555L34.6356 5.55535C33.7992 5.53075 32.9238 5.42695 32.2056 5.76115C31.7454 6.13675 31.7628 6.73435 31.5414 7.19095H31.5018C31.4862 6.43435 31.4304 5.59795 31.395 4.82095C31.6938 4.78255 31.9722 4.90375 32.2908 4.88515L33.3258 4.95055L36.1926 4.96555C37.4868 4.95295 38.781 4.91995 40.0362 4.78735L40.1544 4.80895Z" fill="#1E1E1C"/>
<path d="M24.3061 4.86414C23.9869 4.96194 23.6077 5.11914 23.5063 5.47674C23.3647 5.85414 23.3425 6.29214 23.3005 6.68994L23.2879 9.13914C23.4199 10.5137 23.0131 12.1643 24.3223 13.0271C25.3933 13.7693 27.0265 13.6187 28.0855 12.9479C28.9645 12.3353 28.9699 11.3399 29.0545 10.3847C29.1223 8.91175 29.0509 7.39794 28.8793 5.94414C28.7827 5.40654 28.1671 5.10414 27.7297 4.92234V4.90254C28.6453 4.96734 29.6413 4.93254 30.5371 4.85814C30.2377 5.01594 29.8381 5.21274 29.7571 5.59074C29.7157 5.90934 29.6737 6.26694 29.6719 6.58554L29.6521 10.3091C29.6053 11.6225 29.1793 13.0343 27.8623 13.5845C26.5255 14.1551 24.7735 14.1455 23.4223 13.6007C21.8929 12.9359 21.6829 11.2619 21.7507 9.74935L21.6841 7.25994C21.5683 6.60234 21.9325 5.52954 21.0979 5.18634C20.8597 5.06574 20.6011 5.02434 20.3227 4.98294C20.3035 4.86354 20.4829 4.90434 20.5621 4.88454C21.6571 4.87074 22.7515 4.95594 23.8273 4.82214C23.9869 4.82274 24.1459 4.78374 24.3049 4.82454V4.86414H24.3061Z" fill="#1E1E1C"/>
<path d="M19.4674 4.8977L19.507 4.9577C19.3438 5.7137 19.4782 6.6497 19.3942 7.4261C19.3552 7.3067 19.3162 7.1471 19.297 7.0073C19.1398 6.5483 18.8842 5.9897 18.367 5.8679C17.671 5.6849 16.954 5.8007 16.2568 5.7965L16.1368 5.8955L16.135 10.0367L16.1422 12.3659C16.1794 12.8441 16.2358 13.4417 16.7926 13.6235C16.9312 13.7441 17.1502 13.7453 17.1892 13.9241C16.453 13.8407 15.6766 13.7969 14.9002 13.7927C14.362 13.8689 13.7452 13.8461 13.2262 13.9829C13.2064 13.9829 13.2262 13.9631 13.2064 13.9433C13.5466 13.6463 14.065 13.5095 14.2066 13.0325C14.3692 12.4163 14.3134 11.7191 14.3368 11.0423C14.3224 10.0067 14.4076 8.9921 14.353 7.9361C14.317 7.2593 14.3206 6.5225 14.3248 5.8457L14.2456 5.7857C13.3696 5.8211 12.5146 5.5769 11.7166 5.8913C11.2168 6.2867 11.2534 6.9245 11.0314 7.4411H10.9918C11.1358 6.6257 11.0416 5.6693 10.8862 4.8323L10.9258 4.8125C13.69 5.3447 16.7176 5.3015 19.4674 4.8977Z" fill="#1E1E1C"/>
<path d="M99.006 9.14514L98.9664 9.08514C98.9538 7.91034 98.9394 6.75594 99.0048 5.56134C99.0858 5.26314 99.4428 5.30514 99.7032 5.28654C100.56 5.27094 101.474 5.57454 101.788 6.41214C101.984 7.03074 102.02 7.80714 101.678 8.34294C101.077 9.17634 99.981 9.17034 99.006 9.14514ZM105.715 13.0835C105.514 13.2815 105.274 13.5191 105.014 13.6175C104.536 13.7741 104.179 13.4339 103.822 13.2527C102.633 12.2309 101.942 10.9331 101.353 9.59575C101.314 9.55554 101.293 9.47575 101.354 9.43614C102.032 9.32034 102.632 8.88594 103.072 8.35014C103.533 7.79514 103.479 6.87894 103.204 6.26034C102.553 4.86294 101 4.77534 99.666 4.80834C98.5518 4.92174 97.4556 4.79634 96.3414 4.81014L96.3216 4.82994C96.66 4.95114 96.978 5.11194 97.2342 5.39214C97.35 6.04974 97.3068 6.78654 97.323 7.44354L97.3842 10.8683L97.3536 12.8591L97.2726 13.1369C97.0524 13.5143 96.633 13.7111 96.2346 13.7885L96.2334 13.8083C97.5282 13.7555 98.8632 13.6433 100.216 13.8497V13.8299C99.9576 13.7291 99.6798 13.6277 99.4608 13.4873C99.1434 13.3259 99.1254 12.9677 99.048 12.6887C99.0714 11.8523 98.9364 11.0753 99.0012 10.2593C99.021 10.0601 98.9424 9.88074 99.0234 9.72174L99.681 9.70554C100.214 10.6043 100.766 11.4833 101.339 12.3227C101.912 13.1819 102.745 13.8035 103.72 13.9481C104.457 14.0717 105.255 13.9163 105.676 13.2617C105.674 13.2029 105.773 13.1441 105.715 13.0835Z" fill="#1E1E1C"/>
<path d="M65.7109 10.0823L63.6205 10.0511C63.5221 9.99052 63.6031 9.89152 63.6031 9.83212C63.9451 8.99752 64.2487 8.16292 64.6519 7.36912C64.7119 7.36912 64.7515 7.42972 64.7689 7.46932C65.1637 8.20792 65.3983 9.02572 65.7733 9.78412C65.8315 9.94492 65.8711 10.0439 65.7109 10.0823ZM69.1993 13.3067C68.7247 12.6869 68.4295 11.9885 68.1739 11.2901L67.1521 8.83612C66.4633 7.27912 65.8747 5.68372 65.2855 4.06732L65.2267 4.00732C65.1457 4.10632 65.1259 4.22572 65.0851 4.34512L63.8125 7.78252L61.8553 12.6899L61.6141 13.0871C61.2541 13.4039 60.8749 13.6607 60.4363 13.7777L60.4351 13.7975C61.2121 13.7225 62.0299 13.6073 62.8057 13.7105C63.1033 13.7321 63.4423 13.7735 63.7207 13.7555C63.2833 13.4945 62.4877 13.4303 62.4715 12.7133C62.7139 11.9777 63.0163 11.2631 63.3385 10.5677C64.2763 10.5527 65.0707 10.5767 66.0067 10.5617L66.0865 10.6019C66.3031 11.0015 66.4801 11.4203 66.6373 11.8391C66.7543 12.1985 66.9913 12.5381 67.0285 12.9563C66.9067 13.4933 66.2893 13.6091 65.8507 13.7861L65.8495 13.8257C67.2043 13.7135 68.6173 13.5221 69.9709 13.7879L69.9895 13.7681C69.7537 13.5887 69.4147 13.5863 69.1993 13.3067Z" fill="#1E1E1C"/>
<path d="M85.9216 17.1787L85.9672 19.6081V19.6279H85.9486C85.7914 18.9895 85.516 18.3703 85.141 17.8315C84.2302 16.9699 82.7374 16.7437 81.601 17.2549C80.3236 17.8057 79.5808 19.1161 79.5136 20.4493C79.426 22.1215 80.0524 23.7973 81.541 24.6811C82.4938 25.2235 83.8096 24.9919 84.7672 24.5791C84.9292 24.3415 84.8296 24.0415 84.8518 23.7637C84.8554 23.2057 84.8578 22.6879 84.82 22.1101C84.8224 21.8521 84.5644 21.6121 84.3466 21.4915C83.9092 21.3499 83.4514 21.3073 82.993 21.2257C82.993 21.1861 83.0338 21.1657 83.074 21.1657C84.5656 21.2335 86.0188 21.2407 87.5128 21.1891C87.5326 21.1891 87.5524 21.2089 87.5524 21.2503C87.1924 21.3673 86.8342 21.4447 86.5144 21.6631C86.3524 22.4587 86.3866 23.4151 86.5414 24.2119C86.6398 24.4309 86.8792 24.5119 87.037 24.6523C86.956 24.7519 86.8378 24.6313 86.7184 24.6511C85.9216 24.6865 85.2628 25.0813 84.5056 25.2757C82.6906 25.8841 80.5822 25.4923 79.1152 24.3313C77.8072 23.1499 77.3188 21.3349 77.866 19.6261C78.4918 17.8567 80.3518 16.5127 82.2232 16.4035C83.2006 16.3297 84.0748 16.6333 84.9094 16.9555C85.0288 16.9765 85.1674 17.0167 85.267 16.9579C85.5082 16.7203 85.6492 16.3825 85.8694 16.1245L85.909 16.1629L85.9216 17.1787Z" fill="#1E1E1C"/>
<path d="M77.4845 16.2978C77.0249 16.6128 76.2467 16.8288 76.1837 17.5248C76.0619 18.0414 76.1579 18.6006 76.1159 19.1574L76.0619 25.4892C76.0223 25.5492 76.1003 25.6284 76.0211 25.6686C75.7433 25.4484 75.5267 25.1484 75.2885 24.9078C74.6759 24.267 74.0207 23.6856 73.4273 23.0256L70.4753 20.1426L68.7713 18.5406C68.6717 18.6204 68.6891 18.7782 68.6693 18.9378L68.6567 21.447C68.6123 22.4022 68.6459 23.2986 68.6813 24.2748C68.7773 24.8922 69.4535 25.1148 69.9503 25.2966L69.9107 25.3164C68.9555 25.191 67.9007 25.1064 66.9635 25.3596C66.8639 25.3794 66.7445 25.4184 66.6257 25.3782C67.0841 25.2012 67.5635 25.0242 67.8431 24.567C67.9439 24.4074 67.9847 24.2094 67.9859 24.0102L68.0657 20.0478L67.9787 17.8578C67.4033 17.3562 66.9485 16.797 66.3335 16.3752C66.3335 16.3356 66.3743 16.3152 66.4133 16.3152C67.3097 16.3794 68.2049 16.404 69.1013 16.3092C69.2807 16.4298 69.3383 16.6704 69.5159 16.8492C70.6829 18.288 72.1103 19.4904 73.4369 20.8326L75.3785 22.635C75.4571 22.6548 75.5165 22.5966 75.5381 22.5168C75.5489 20.8248 75.6353 19.272 75.5639 17.6382C75.5285 16.8612 74.7539 16.5786 74.2175 16.2576C74.2175 16.218 74.2571 16.2378 74.2787 16.218C75.3341 16.4052 76.4681 16.4112 77.4845 16.2978Z" fill="#1E1E1C"/>
<path d="M66.1351 16.4358C65.7565 16.5528 65.3569 16.6902 65.1367 17.0874C64.8343 17.6442 64.9105 18.3414 64.8673 19.0176C64.8811 20.0136 64.8355 21.1296 64.8709 22.1826C64.8847 23.139 64.5817 24.0726 63.8023 24.666C62.4631 25.6152 60.4333 25.5834 58.9027 25.0584C58.0285 24.675 57.2161 23.775 57.1423 22.7988C57.0319 21.0258 57.1213 19.2354 57.0307 17.442C56.9743 16.725 56.1985 16.5804 55.7017 16.3794C55.8823 16.3206 56.0401 16.4016 56.2393 16.383C57.4135 16.4688 58.5877 16.5144 59.7433 16.4016C59.8033 16.44 59.8429 16.4016 59.9029 16.4214C59.8219 16.521 59.6839 16.4802 59.5843 16.5384C59.2045 16.6554 58.8049 16.9518 58.7629 17.3718C58.6141 19.1412 58.7443 21.0138 58.7545 22.7658C58.8109 23.463 59.0251 24.2214 59.7199 24.5448C60.8119 24.948 62.2861 24.9348 63.2845 24.3432C63.5647 24.1062 63.9241 23.85 64.0651 23.4912C64.1659 23.2536 64.2667 22.9758 64.2889 22.6968C64.3969 21.1842 64.4263 19.611 64.3135 18.0588C64.2373 17.4414 63.9409 16.8624 63.3655 16.5798C63.2473 16.5186 63.0679 16.539 63.0079 16.4394C63.8437 16.4628 64.7401 16.5672 65.5567 16.4124C65.7559 16.3938 65.9551 16.395 66.1345 16.3758V16.4358H66.1351Z" fill="#1E1E1C"/>
<path d="M49.47 16.506L51.9588 16.4988C52.9146 16.485 53.8704 16.4496 54.8664 16.3362C54.885 16.5954 54.8244 16.8528 54.8232 17.1318C54.7998 17.6298 54.8172 18.108 54.8352 18.585C54.5796 18.0072 54.3054 17.1894 53.529 17.085C52.8522 17.0418 52.1952 17.0778 51.5574 17.1738L51.4974 17.2734C51.4902 18.567 51.4236 19.9206 51.4764 21.1758L51.4998 24.2616C51.498 24.6 51.6756 24.9402 52.0128 25.0806C52.311 25.1826 52.629 25.323 52.9266 25.4238C51.3348 25.296 49.7412 25.3476 48.168 25.4178V25.3992C48.687 25.1226 49.5036 25.1076 49.647 24.3714C49.719 22.1412 49.6506 19.9512 49.6824 17.7606L49.626 17.1228L49.527 17.0616C48.7302 17.0982 47.8356 16.8528 47.1366 17.2278C46.677 17.5842 46.5948 18.081 46.353 18.5382H46.3332C46.3374 17.781 46.4604 17.0466 46.2456 16.3266L46.2852 16.2666C47.2998 16.4148 48.414 16.4802 49.47 16.506Z" fill="#1E1E1C"/>
<path d="M26.0359 16.5L29.4001 16.4382C29.8585 16.3806 30.3757 16.404 30.8341 16.347C30.8935 16.3668 30.8539 16.4268 30.8137 16.4664L29.1907 18.3288C28.4695 19.2018 27.7477 20.0922 27.0463 21.0054L24.4207 24.2574C24.3205 24.4356 24.0007 24.5736 24.1393 24.7728L26.0311 24.7422L28.6387 24.816C29.1955 24.8994 29.6953 24.5244 29.9767 24.066C30.1975 23.7096 30.3589 23.331 30.5005 22.9338L30.5401 22.935C30.5947 23.8104 30.4903 24.8466 30.8041 25.6632L30.7645 25.7028C29.0737 25.3758 27.1831 25.2654 25.4899 25.3158C24.0961 25.3686 22.7227 25.302 21.3277 25.5324C21.2683 25.4724 21.3283 25.3932 21.3685 25.353C23.5333 22.6566 25.7773 19.9614 27.7831 17.205C27.8233 17.1252 27.7237 17.0844 27.6841 17.0844C26.3899 17.0376 25.0567 16.9908 23.7415 17.1828C22.9837 17.3982 22.7401 18.2526 22.4779 18.8892C22.4185 18.7884 22.4995 18.6504 22.4797 18.5304C22.4839 17.7534 22.3885 16.9962 22.3129 16.2594C22.4329 16.161 22.5715 16.3002 22.7107 16.2816C23.8057 16.449 24.9403 16.4748 26.0359 16.5Z" fill="#1E1E1C"/>
<path d="M38.8176 16.5083C38.7144 17.2655 38.7498 18.0611 38.6658 18.8183C38.5464 18.7985 38.6274 18.6191 38.5482 18.5183C38.3916 18.0215 38.2554 17.4029 37.6992 17.1809C36.7458 16.8179 35.61 16.9901 34.5936 17.1047L34.5336 17.1635L34.5288 18.0797L34.536 20.4491C34.5756 20.5091 34.635 20.5487 34.695 20.5487C35.4114 20.5535 36.1086 20.5361 36.8058 20.4809C37.284 20.4035 37.7046 19.9679 37.8462 19.5305H37.8858C37.9002 20.5067 37.8954 21.5213 37.8894 22.5179H37.8498C37.6932 22.0583 37.5372 21.4211 36.9606 21.2993C36.2448 21.1355 35.4084 21.1703 34.6716 21.2069C34.6314 21.2267 34.572 21.2267 34.5516 21.2867C34.4862 22.4009 34.5396 23.5955 34.5336 24.6713L34.593 24.7325C36.126 24.7607 38.055 25.1885 38.9592 23.6405C39.18 23.3039 39.2814 22.9259 39.4428 22.5485C39.48 23.0465 39.378 23.5433 39.3948 24.0215C39.3924 24.4799 39.4296 24.9377 39.447 25.4159C38.8896 25.4525 38.3724 25.3505 37.7952 25.3667C35.844 25.3559 33.9126 25.3271 31.9602 25.5341C31.881 25.5143 31.8006 25.6337 31.7214 25.5329C31.662 25.4333 31.8216 25.3949 31.8816 25.3733C32.181 25.2575 32.5602 25.0595 32.6616 24.7205C32.7834 24.3233 32.7456 23.8649 32.7876 23.4467L32.8266 19.8629C32.811 19.0475 32.835 18.2903 32.7594 17.4935C32.721 17.2343 32.6226 16.9769 32.3646 16.8347C32.1462 16.6943 31.8876 16.6529 31.6494 16.5323C31.6296 16.4711 31.6896 16.4723 31.7292 16.4723C33.8784 16.7231 36.0696 16.4159 38.22 16.4675C38.4192 16.4675 38.6184 16.4297 38.7972 16.4501L38.8176 16.5083Z" fill="#1E1E1C"/>
<path d="M44.9108 16.5011V16.5407C44.5316 16.7177 43.9538 16.8335 43.8716 17.3519C43.787 18.2873 43.8608 19.2833 43.856 20.2397L43.9208 23.0477C43.9376 23.5643 43.8956 24.0425 43.9922 24.5405C44.1686 25.0199 44.7056 25.1813 45.1226 25.3631V25.4027C43.7096 25.3151 42.335 25.3877 40.9214 25.4603V25.4207C41.3606 25.2239 41.9984 25.0877 42.101 24.5315C42.1862 23.5763 42.1316 22.5605 42.1166 21.5855L42.0728 18.5585C41.9762 17.9807 42.2594 17.2061 41.6042 16.8839C41.3858 16.7633 41.147 16.6823 40.9292 16.5419C42.1832 16.6085 43.5368 16.6955 44.792 16.5035C44.8112 16.5011 44.8712 16.4813 44.9108 16.5011Z" fill="#1E1E1C"/>
<path d="M73.0043 8.88723L72.9443 8.78703C72.9101 7.59243 72.8975 6.43743 72.9827 5.26323L73.0625 5.18403C73.9589 5.06943 74.9939 5.15463 75.4871 6.01323C75.8819 6.61263 75.8177 7.50843 75.4169 8.10363C74.9153 8.95743 73.9007 8.93163 73.0043 8.88723ZM76.4543 11.5938C76.1177 11.0148 75.8237 10.4358 75.5873 9.81723C75.5495 9.61803 75.3305 9.47763 75.4115 9.27903C75.9893 9.16263 76.5683 8.90703 76.9289 8.39163C77.3909 7.73703 77.5757 6.68283 77.1023 5.96343C76.2329 4.68483 74.6393 4.57623 73.1459 4.66803C72.2297 4.76283 71.2931 4.69803 70.4177 4.71303C70.5161 4.83303 70.7153 4.87443 70.8335 5.01423C71.2709 5.21523 71.2085 5.69283 71.2661 6.07143L71.3495 9.25743L71.3189 11.2086C71.2769 11.8254 71.3903 12.5826 71.1305 13.1388C70.9487 13.4766 70.5503 13.5534 70.2905 13.7712C70.8083 13.6944 71.3663 13.6374 71.9255 13.581C72.7025 13.5654 73.4573 13.689 74.2343 13.713C73.7771 13.4916 73.0415 13.2486 73.0061 12.5916C72.9911 11.7156 72.8759 10.8588 72.9191 9.98283C72.9803 9.78423 72.8219 9.56463 72.9623 9.40623C73.2011 9.44703 73.4405 9.34863 73.6781 9.40983C73.8761 9.70983 74.0333 10.029 74.1515 10.3278C74.7035 11.247 75.2153 12.2052 76.1087 12.927C77.0207 13.8276 78.5111 14.154 79.6889 13.6428C78.2543 13.833 77.0645 12.7914 76.4543 11.5938Z" fill="#1E1E1C"/>
</svg>
