<?xml version="1.0" encoding="UTF-8" standalone="no"?>
<svg
   xmlns:dc="http://purl.org/dc/elements/1.1/"
   xmlns:cc="http://creativecommons.org/ns#"
   xmlns:rdf="http://www.w3.org/1999/02/22-rdf-syntax-ns#"
   xmlns:svg="http://www.w3.org/2000/svg"
   xmlns="http://www.w3.org/2000/svg"
   xmlns:sodipodi="http://sodipodi.sourceforge.net/DTD/sodipodi-0.dtd"
   xmlns:inkscape="http://www.inkscape.org/namespaces/inkscape"
   version="1.1"
   id="svg2"
   xml:space="preserve"
   width="828.84003"
   height="256.94666"
   viewBox="0 0 828.84003 256.94666"
   sodipodi:docname="t3n-logo-press-2019_black_rechts.eps"><metadata
     id="metadata8"><rdf:RDF><cc:Work
         rdf:about=""><dc:format>image/svg+xml</dc:format><dc:type
           rdf:resource="http://purl.org/dc/dcmitype/StillImage" /></cc:Work></rdf:RDF></metadata><defs
     id="defs6" /><sodipodi:namedview
     pagecolor="#ffffff"
     bordercolor="#666666"
     borderopacity="1"
     objecttolerance="10"
     gridtolerance="10"
     guidetolerance="10"
     inkscape:pageopacity="0"
     inkscape:pageshadow="2"
     inkscape:window-width="640"
     inkscape:window-height="480"
     id="namedview4" /><g
     id="g10"
     inkscape:groupmode="layer"
     inkscape:label="ink_ext_XXXXXX"
     transform="matrix(1.3333333,0,0,-1.3333333,0,256.94667)"><g
       id="g12"
       transform="scale(0.1)"><path
         d="m 1168.06,1032.26 v 408.38 H 769.934 v 477.67 H 305.445 V 1440.64 H -0.00390625 V 1032.26 H 305.445 V 794.051 C 305.445,483.941 428.02,203.191 626.176,0 L 954.551,336.84 C 840.5,453.852 769.934,615.488 769.934,794.051 v 238.209 z m 232.25,0 H 1168.06 V 794.051 c 0,-131.563 103.98,-238.223 232.25,-238.223 128.26,0 232.24,106.66 232.24,238.223 0,131.558 -103.98,238.209 -232.24,238.209 m -33.18,408.38 c 109.94,0 199.06,91.41 199.06,204.18 0,112.77 -89.12,204.18 -199.06,204.18 -109.93,0 -199.07,-91.41 -199.07,-204.18 v -204.18 z m 1276.74,476.75 c -110.56,-18.62 -215.04,-62.75 -307.91,-125.38 -5.66,42.93 -13.68,85.09 -24.06,126.31 h -410.42 c 40.12,-82.35 62.83,-175.18 62.83,-273.5 0,-144.43 -48.83,-277.05 -130.35,-381.76 121.1,-117.84 196.72,-284.31 196.72,-469.009 0,-110.821 -27.23,-215.121 -75.12,-306.281 h 456.06 v 865.55 c 51.1,55.3 132.32,125.38 232.25,140.91 128.52,19.96 232.24,-67.53 232.24,-199.1 V 487.77 h 464.8 v 832.08 c 0,394.88 -312.08,662.4 -697.04,597.54 z M 6086.2,811.129 c 38.14,0 67.95,-9.418 89.44,-28.258 21.48,-18.859 33.63,-43.641 36.44,-74.371 l -87.34,-4.91 c -1.2,25.808 -14.45,38.711 -39.74,38.711 -23.7,0 -35.54,-9.012 -35.54,-27.031 0,-2.461 0.2,-4.719 0.6,-6.77 0.4,-2.051 1.3,-3.891 2.71,-5.531 1.41,-1.641 2.72,-3.071 3.92,-4.289 1.2,-1.231 3.2,-2.461 6.02,-3.692 2.81,-1.226 5.12,-2.258 6.93,-3.078 1.8,-0.82 4.61,-1.84 8.42,-3.07 3.82,-1.231 6.94,-2.141 9.34,-2.762 2.41,-0.609 6.12,-1.539 11.14,-2.769 5.02,-1.219 8.94,-2.258 11.75,-3.071 35.73,-9.429 62.34,-20.797 79.81,-34.109 17.46,-13.309 26.2,-33.277 26.2,-59.91 0,-32.789 -11.25,-58.59 -33.73,-77.43 -22.49,-18.848 -53.81,-28.269 -93.96,-28.269 -39.75,0 -70.98,8.91 -93.66,26.73 -22.69,17.82 -35.64,43.32 -38.85,76.512 l 87.94,4.918 c 1.2,-26.219 16.26,-39.328 45.17,-39.328 12.05,0 21.58,2.546 28.61,7.679 7.02,5.11 10.54,12.188 10.54,21.199 0,9.418 -3.72,16.379 -11.15,20.899 -7.43,4.5 -22.58,9.621 -45.46,15.359 -16.07,4.09 -28.62,7.582 -37.65,10.442 -9.03,2.859 -18.88,6.859 -29.51,11.992 -10.65,5.117 -18.58,10.75 -23.79,16.887 -5.23,6.152 -9.74,14.043 -13.56,23.671 -3.81,9.622 -5.72,20.782 -5.72,33.481 0,30.73 11.05,55.098 33.13,73.129 22.08,18.031 52.59,27.039 91.55,27.039 z m -154.79,-3.07 V 721.41 c -25.29,0 -45.37,-6.66 -60.22,-19.969 -14.86,-13.32 -22.29,-31.031 -22.29,-53.152 V 487.281 h -87.93 v 317.707 h 84.93 V 768.73 c 16.45,26.211 44.96,39.329 85.51,39.329 z m -376.06,-66.981 c -18.88,0 -34.02,-5.637 -45.47,-16.898 -11.44,-11.27 -17.76,-26.95 -18.97,-47.02 h 125.27 c -0.8,20.07 -6.32,35.75 -16.56,47.02 -10.24,11.261 -24.99,16.898 -44.27,16.898 z m 149.37,-123.527 h -213.81 c 0.8,-20.071 6.92,-35.84 18.37,-47.313 11.44,-11.468 27,-17.207 46.68,-17.207 31.31,0 50.38,11.68 57.21,35.028 l 88.54,-4.297 c -5.63,-30.332 -21.79,-55.102 -48.49,-74.364 -26.7,-19.257 -58.32,-28.878 -94.85,-28.878 -48.19,0 -87.03,14.949 -116.55,44.859 -29.51,29.902 -44.26,70.062 -44.26,120.449 0,50.793 14.65,91.043 43.96,120.75 29.31,29.703 67.45,44.551 114.44,44.551 45.37,0 81.5,-14.027 108.4,-42.09 26.91,-28.07 40.36,-66.68 40.36,-115.84 z m -495.75,123.527 c -18.87,0 -34.02,-5.637 -45.47,-16.898 -11.44,-11.27 -17.76,-26.95 -18.97,-47.02 h 125.27 c -0.8,20.07 -6.32,35.75 -16.56,47.02 -10.23,11.261 -24.99,16.898 -44.27,16.898 z m 149.38,-123.527 h -213.82 c 0.8,-20.071 6.92,-35.84 18.37,-47.313 11.44,-11.468 27,-17.207 46.68,-17.207 31.32,0 50.38,11.68 57.22,35.028 l 88.53,-4.297 c -5.62,-30.332 -21.79,-55.102 -48.49,-74.364 -26.7,-19.257 -58.32,-28.878 -94.85,-28.878 -48.18,0 -87.03,14.949 -116.54,44.859 -29.51,29.902 -44.27,70.062 -44.27,120.449 0,50.793 14.65,91.043 43.96,120.75 29.31,29.703 67.46,44.551 114.44,44.551 45.37,0 81.5,-14.027 108.41,-42.09 26.9,-28.07 40.36,-66.68 40.36,-115.84 z m -480.62,193.578 c 36.53,0 65.95,-11.481 88.24,-34.41 22.28,-22.949 33.42,-54.688 33.42,-95.25 V 487.281 h -87.93 v 176.981 c 0,20.066 -4.92,35.636 -14.76,46.699 -9.84,11.07 -23.18,16.59 -40.05,16.59 -17.27,0 -31.23,-5.832 -41.86,-17.5 -10.65,-11.68 -15.96,-27.153 -15.96,-46.403 V 487.281 h -87.93 v 317.707 h 83.12 v -32.566 c 16.05,25.808 43.96,38.707 83.71,38.707 z M 4547.08,710.66 c -14.06,15.762 -32.52,23.649 -55.41,23.649 -22.89,0 -41.35,-7.887 -55.41,-23.649 -14.06,-15.781 -21.08,-37.39 -21.08,-64.832 0,-27.449 7.02,-48.957 21.08,-64.527 14.06,-15.571 32.52,-23.34 55.41,-23.34 22.89,0 41.35,7.769 55.41,23.34 14.06,15.57 21.09,37.078 21.09,64.527 0,27.442 -7.03,49.051 -21.09,64.832 z m -174.36,55 c 31.11,30.309 70.77,45.469 118.95,45.469 48.19,0 87.83,-15.16 118.96,-45.469 31.11,-30.32 46.68,-70.269 46.68,-119.832 0,-49.156 -15.57,-89.008 -46.68,-119.527 -31.13,-30.52 -70.77,-45.781 -118.96,-45.781 -48.18,0 -87.84,15.261 -118.95,45.781 -31.12,30.519 -46.67,70.371 -46.67,119.527 0,49.563 15.55,89.512 46.67,119.832 z m -99.06,-278.379 h -87.93 v 317.707 h 87.93 z m -43.97,475.637 c 14.84,0 27.4,-5.227 37.64,-15.676 10.24,-10.437 15.36,-23.254 15.36,-38.414 0,-14.738 -5.12,-27.34 -15.36,-37.789 -10.24,-10.437 -22.8,-15.66 -37.64,-15.66 -14.86,0 -27.31,5.223 -37.34,15.66 -10.04,10.449 -15.06,23.051 -15.06,37.789 0,14.762 5.21,27.449 15.66,38.113 10.43,10.649 22.68,15.977 36.74,15.977 z m -262.6,-228.609 c -22.08,0 -39.85,-7.27 -53.3,-21.809 -13.46,-14.539 -20.17,-34.32 -20.17,-59.301 v -14.75 c 0,-24.988 6.71,-44.758 20.17,-59.301 13.45,-14.539 31.22,-21.808 53.3,-21.808 22.48,0 40.66,7.769 54.51,23.351 13.85,15.571 20.79,37.278 20.79,65.137 0,27.852 -6.94,49.563 -20.79,65.133 -13.85,15.57 -32.03,23.348 -54.51,23.348 z m 13.86,76.82 c 44.57,0 80.8,-15.16 108.71,-45.469 27.9,-30.32 41.86,-70.269 41.86,-119.832 0,-49.566 -13.96,-89.527 -41.86,-119.84 -27.91,-30.316 -64.14,-45.468 -108.71,-45.468 -38.15,0 -67.27,11.261 -87.33,33.8 V 330.578 h -87.93 v 474.41 h 83.11 v -33.187 c 19.27,26.211 49.99,39.328 92.15,39.328 z m 1589.46,311.291 h -87.93 v 477.47 h 87.93 z m -240.91,127.81 -46.97,-3.07 c -30.12,-1.23 -45.18,-12.28 -45.18,-33.18 0,-19.26 12.05,-28.88 36.14,-28.88 16.46,0 29.91,4.5 40.36,13.52 10.43,9 15.65,21.71 15.65,38.1 z m -41.55,196.04 c 42.16,0 74.27,-10.86 96.36,-32.57 22.07,-21.72 33.13,-53.47 33.13,-95.25 v -196.03 h -84.92 v 25.81 c -20.48,-21.72 -46.98,-32.57 -79.5,-32.57 -32.13,0 -57.44,8.08 -75.89,24.27 -18.48,16.18 -27.71,39.43 -27.71,69.75 0,60.62 41.55,92.79 124.67,96.48 l 55.41,3.07 v 12.29 c 0,32.77 -13.46,49.16 -40.35,49.16 -14.06,0 -24.8,-4.1 -32.22,-12.29 -7.44,-8.2 -11.14,-18.03 -11.14,-29.5 l -87.94,3.7 c 0,29.48 12.14,55.81 36.44,78.96 24.29,23.14 55.5,34.72 93.66,34.72 z m -255.98,-83.58 -0.6,-117.98 c 0,-16.39 4.42,-28.48 13.25,-36.26 8.83,-7.79 20.08,-11.68 33.73,-11.68 6.82,0 15.86,1.02 27.11,3.07 v -79.88 c -16.87,-2.46 -33.14,-3.69 -48.79,-3.69 -35.34,0 -63.15,8.91 -83.42,26.73 -20.28,17.82 -30.21,44.55 -29.81,80.2 l 0.61,139.49 h -56.63 v 77.43 h 57.22 l 0.61,105.09 h 87.93 l -0.6,-105.09 h 72.88 v -77.43 z m -200.54,-240.27 h -87.93 v 317.7 h 87.93 z m -43.97,475.63 c 14.85,0 27.41,-5.22 37.64,-15.67 10.24,-10.45 15.36,-23.25 15.36,-38.4 0,-14.75 -5.12,-27.35 -15.36,-37.8 -10.23,-10.45 -22.79,-15.66 -37.64,-15.66 -14.86,0 -27.31,5.21 -37.34,15.66 -10.04,10.45 -15.06,23.05 -15.06,37.8 0,14.74 5.22,27.44 15.67,38.09 10.43,10.66 22.67,15.98 36.73,15.98 z m -281.15,-228.6 c -22.49,0 -40.65,-7.78 -54.51,-23.35 -13.85,-15.57 -20.78,-37.28 -20.78,-65.14 0,-27.86 6.93,-49.57 20.78,-65.14 13.86,-15.57 32.02,-23.35 54.51,-23.35 22.08,0 39.85,7.27 53.3,21.82 13.45,14.53 20.18,34.3 20.18,59.3 v 14.75 c 0,24.98 -6.73,44.75 -20.18,59.3 -13.45,14.54 -31.22,21.81 -53.3,21.81 z m -14.45,76.82 c 42.55,0 73.47,-13.12 92.74,-39.33 v 33.18 h 82.52 v -329.38 c 0,-45.88 -14.26,-82.54 -42.76,-110 -28.52,-27.439 -66.66,-41.17 -114.44,-41.17 -46.98,0 -83.92,10.969 -110.82,32.879 -26.9,21.921 -43.36,51.721 -49.39,89.411 l 87.33,3.07 c 2.01,-15.56 9.24,-27.65 21.68,-36.25 12.44,-8.61 28.51,-12.91 48.19,-12.91 22.49,0 40.25,5.84 53.31,17.52 13.03,11.67 19.57,28.57 19.57,50.69 v 45.48 c -20.48,-22.54 -49.8,-33.8 -87.93,-33.8 -44.18,0 -80.22,15.15 -108.12,45.47 -27.91,30.32 -41.85,70.26 -41.85,119.83 0,49.57 13.94,89.51 41.85,119.83 27.9,30.32 63.94,45.48 108.12,45.48 z m -210.97,-323.85 h -87.93 v 317.7 h 87.93 z m -43.96,475.63 c 14.84,0 27.4,-5.22 37.63,-15.67 10.25,-10.45 15.36,-23.25 15.36,-38.4 0,-14.75 -5.11,-27.35 -15.36,-37.8 -10.23,-10.45 -22.79,-15.66 -37.63,-15.66 -14.87,0 -27.32,5.21 -37.35,15.66 -10.04,10.45 -15.06,23.05 -15.06,37.8 0,14.74 5.22,27.44 15.67,38.09 10.43,10.66 22.67,15.98 36.74,15.98 z m -283.69,-228.6 c -22.49,0 -40.65,-7.78 -54.51,-23.35 -13.84,-15.57 -20.78,-37.28 -20.78,-65.14 0,-27.86 6.94,-49.46 20.78,-64.83 13.86,-15.36 32.02,-23.04 54.51,-23.04 22.09,0 39.85,7.16 53.31,21.51 13.44,14.33 20.17,34.2 20.17,59.6 v 14.14 c 0,24.98 -6.73,44.75 -20.17,59.3 -13.46,14.54 -31.22,21.81 -53.31,21.81 z m 160.82,-247.03 h -82.52 v 32.57 c -8.83,-11.48 -21.28,-20.9 -37.34,-28.27 -16.06,-7.37 -34.54,-11.06 -55.41,-11.06 -44.18,0 -80.21,15.15 -108.11,45.47 -27.91,30.32 -41.86,70.26 -41.86,119.83 0,49.57 13.95,89.51 41.86,119.83 27.9,30.32 63.93,45.48 108.11,45.48 39.35,0 68.65,-11.27 87.93,-33.8 v 187.42 h 87.34 v -477.47"
         style="fill:#231f20;fill-opacity:1;fill-rule:nonzero;stroke:none"
         id="path14" /></g></g></svg>
