<svg width="115" height="30" viewBox="0 0 115 30" fill="none" xmlns="http://www.w3.org/2000/svg">
<g clip-path="url(#clip0)">
<path d="M99.3751 29.3782V7.18563H91.0776V0.688965H114.942V7.18563H106.665V29.3782H99.3751Z" fill="black"/>
<path d="M75.689 29.3782V0.688965H82.9792V22.8805H95.0284V29.3782H75.689Z" fill="black"/>
<path d="M58.386 0.0671387C49.8731 0.0671387 44.1533 6.11691 44.1533 15.121C44.1534 24.0206 50.025 29.9999 58.7641 29.9999C63.7238 29.9999 67.473 28.6785 70.5632 25.8416L70.654 25.7581L66.1868 20.8651L66.0955 20.9421C64.0929 22.6297 61.7084 23.5209 59.2009 23.5209C55.3718 23.5209 52.904 21.5644 52.0649 17.8616L52.0311 17.6968L71.9007 17.6959C71.9069 17.6584 71.9125 17.631 71.9191 17.5818C72.0061 16.9376 72.0656 15.8847 72.0656 15.0031C72.036 6.06944 66.5384 0.0671387 58.386 0.0671387ZM52.0547 12.2546L52.0896 12.0912C52.8683 8.46932 54.967 6.63346 58.3278 6.63346C61.499 6.63346 63.5856 8.52013 64.3619 12.0904L64.3975 12.2546H52.0547Z" fill="black"/>
<path d="M27.3677 29.3782L22.0618 11.2313L16.7557 29.3782H8.05563L0 0.688965H7.52483L12.7384 20.8395L18.2139 0.688965H26.0102L31.4862 20.8801L36.7002 0.688965H44.1225L36.0677 29.3782H27.3677Z" fill="black"/>
</g>
<defs>
<clipPath id="clip0">
<rect width="114.943" height="30" fill="white"/>
</clipPath>
</defs>
</svg>
