<svg width="48" height="49" viewBox="0 0 48 49" fill="none" xmlns="http://www.w3.org/2000/svg">
<path fill-rule="evenodd" clip-rule="evenodd" d="M24 0.777344C10.7452 0.777344 0 11.5225 0 24.7773C0 38.0322 10.7452 48.7773 24 48.7773C37.2548 48.7773 48 38.0322 48 24.7773C48 11.5225 37.2548 0.777344 24 0.777344ZM18.7233 12.0547C20.0886 11.9925 20.5249 11.9773 24.0012 11.9773H23.9972C27.4746 11.9773 27.9092 11.9925 29.2746 12.0547C30.6373 12.1171 31.5679 12.3328 32.384 12.6494C33.2266 12.976 33.9386 13.4134 34.6506 14.1254C35.3627 14.8368 35.8 15.551 36.128 16.3929C36.4427 17.2067 36.6587 18.1369 36.7227 19.4996C36.784 20.8649 36.8 21.3012 36.8 24.7775C36.8 28.2538 36.784 28.689 36.7227 30.0543C36.6587 31.4165 36.4427 32.3469 36.128 33.161C35.8 34.0026 35.3627 34.7168 34.6506 35.4283C33.9394 36.1403 33.2264 36.5787 32.3848 36.9056C31.5703 37.2221 30.6391 37.4379 29.2765 37.5003C27.9111 37.5624 27.4762 37.5776 23.9996 37.5776C20.5236 37.5776 20.0876 37.5624 18.7222 37.5003C17.3598 37.4379 16.4294 37.2221 15.615 36.9056C14.7736 36.5787 14.0595 36.1403 13.3483 35.4283C12.6365 34.7168 12.1992 34.0026 11.872 33.1608C11.5557 32.3469 11.34 31.4167 11.2773 30.0541C11.2155 28.6887 11.2 28.2538 11.2 24.7775C11.2 21.3012 11.216 20.8646 11.2771 19.4993C11.3384 18.1371 11.5544 17.2067 11.8717 16.3926C12.1997 15.551 12.6371 14.8368 13.3491 14.1254C14.0606 13.4136 14.7747 12.9763 15.6166 12.6494C16.4305 12.3328 17.3606 12.1171 18.7233 12.0547Z" fill="black"/>
<path fill-rule="evenodd" clip-rule="evenodd" d="M22.853 14.2841C23.0759 14.2837 23.3158 14.2838 23.5746 14.284L24.0013 14.2841C27.4189 14.2841 27.824 14.2964 29.1736 14.3577C30.4216 14.4148 31.0989 14.6233 31.5501 14.7985C32.1475 15.0305 32.5733 15.3078 33.0211 15.7558C33.4691 16.2038 33.7464 16.6305 33.979 17.2278C34.1542 17.6785 34.363 18.3559 34.4198 19.6039C34.4811 20.9532 34.4944 21.3586 34.4944 24.7746C34.4944 28.1906 34.4811 28.596 34.4198 29.9453C34.3627 31.1933 34.1542 31.8707 33.979 32.3213C33.747 32.9187 33.4691 33.344 33.0211 33.7918C32.5731 34.2398 32.1477 34.5171 31.5501 34.7491C31.0995 34.9251 30.4216 35.1331 29.1736 35.1902C27.8242 35.2515 27.4189 35.2648 24.0013 35.2648C20.5834 35.2648 20.1783 35.2515 18.8289 35.1902C17.5809 35.1326 16.9036 34.924 16.4521 34.7488C15.8548 34.5168 15.4281 34.2395 14.9801 33.7915C14.5321 33.3435 14.2548 32.9179 14.0222 32.3203C13.847 31.8696 13.6382 31.1923 13.5814 29.9442C13.5201 28.5949 13.5078 28.1896 13.5078 24.7714C13.5078 21.3532 13.5201 20.95 13.5814 19.6007C13.6385 18.3527 13.847 17.6753 14.0222 17.2241C14.2542 16.6268 14.5321 16.2001 14.9801 15.7521C15.4281 15.3041 15.8548 15.0268 16.4521 14.7942C16.9033 14.6182 17.5809 14.4102 18.8289 14.3529C20.0097 14.2996 20.4674 14.2836 22.853 14.2809V14.2841ZM30.8339 16.4094C29.9859 16.4094 29.2978 17.0966 29.2978 17.9449C29.2978 18.7929 29.9859 19.4809 30.8339 19.4809C31.6819 19.4809 32.3699 18.7929 32.3699 17.9449C32.3699 17.0969 31.6819 16.4089 30.8339 16.4089V16.4094ZM17.4279 24.7775C17.4279 21.1474 20.3709 18.2043 24.001 18.2041C27.6312 18.2041 30.5736 21.1474 30.5736 24.7775C30.5736 28.4077 27.6314 31.3496 24.0013 31.3496C20.3711 31.3496 17.4279 28.4077 17.4279 24.7775Z" fill="black"/>
<path d="M24.0011 20.5107C26.3574 20.5107 28.2678 22.4209 28.2678 24.7775C28.2678 27.1337 26.3574 29.0442 24.0011 29.0442C21.6445 29.0442 19.7344 27.1337 19.7344 24.7775C19.7344 22.4209 21.6445 20.5107 24.0011 20.5107Z" fill="black"/>
</svg>
