<svg width="48" height="49" viewBox="0 0 48 49" fill="none" xmlns="http://www.w3.org/2000/svg">
<path fill-rule="evenodd" clip-rule="evenodd" d="M24 0.777344C10.7452 0.777344 0 11.5225 0 24.7773C0 38.0322 10.7452 48.7773 24 48.7773C37.2548 48.7773 48 38.0322 48 24.7773C48 11.5225 37.2548 0.777344 24 0.777344ZM23.3316 21.1153L23.2812 20.2848C23.1301 18.1324 24.4563 16.1665 26.5548 15.4038C27.327 15.1326 28.6364 15.0987 29.4926 15.336C29.8283 15.4377 30.4663 15.7767 30.9195 16.0817L31.7421 16.641L32.6486 16.3529C33.1523 16.2004 33.8238 15.9461 34.1259 15.7767C34.4113 15.6241 34.6631 15.5394 34.6631 15.5902C34.6631 15.8784 34.042 16.8613 33.5216 17.4037C32.8165 18.1663 33.018 18.2341 34.4449 17.7257C35.3011 17.4376 35.3178 17.4376 35.15 17.7596C35.0492 17.9291 34.5288 18.5222 33.9748 19.0646C33.0347 19.9967 32.9844 20.0984 32.9844 20.878C32.9844 22.0813 32.4136 24.5896 31.8428 25.9624C30.7852 28.5385 28.5189 31.1994 26.2526 32.5383C23.063 34.4195 18.8157 34.8941 15.24 33.7924C14.0481 33.4196 12 32.4705 12 32.301C12 32.2502 12.6211 32.1824 13.3766 32.1654C14.9546 32.1315 16.5326 31.6909 17.8756 30.9113L18.7822 30.3689L17.7413 30.013C16.264 29.5046 14.9378 28.3352 14.6021 27.2335C14.5013 26.8776 14.5349 26.8607 15.475 26.8607L16.4487 26.8437L15.6261 26.4539C14.6524 25.9624 13.7627 25.132 13.3262 24.2846C13.0072 23.6745 12.6044 22.1322 12.7219 22.0135C12.7554 21.9627 13.108 22.0644 13.5109 22.2C14.6692 22.6237 14.8203 22.522 14.1488 21.8102C12.8897 20.5221 12.5036 18.607 13.108 16.7935L13.3934 15.98L14.5013 17.0817C16.7677 19.3019 19.4369 20.6238 22.4922 21.0136L23.3316 21.1153Z" fill="black"/>
</svg>
