<svg width="48" height="49" viewBox="0 0 48 49" fill="none" xmlns="http://www.w3.org/2000/svg">
<path fill-rule="evenodd" clip-rule="evenodd" d="M24 0.777344C10.7452 0.777344 0 11.5225 0 24.7773C0 38.0322 10.7452 48.7773 24 48.7773C37.2548 48.7773 48 38.0322 48 24.7773C48 11.5225 37.2548 0.777344 24 0.777344ZM34.0016 16.5267C35.1031 16.8289 35.9706 17.7196 36.265 18.8506C36.8 20.9004 36.8 25.1773 36.8 25.1773C36.8 25.1773 36.8 29.4542 36.265 31.5041C35.9706 32.6351 35.1031 33.5257 34.0016 33.8282C32.0054 34.3773 24 34.3773 24 34.3773C24 34.3773 15.9946 34.3773 13.9983 33.8282C12.8967 33.5257 12.0292 32.6351 11.7348 31.5041C11.2 29.4542 11.2 25.1773 11.2 25.1773C11.2 25.1773 11.2 20.9004 11.7348 18.8506C12.0292 17.7196 12.8967 16.8289 13.9983 16.5267C15.9946 15.9773 24 15.9773 24 15.9773C24 15.9773 32.0054 15.9773 34.0016 16.5267Z" fill="black"/>
<path d="M21.6001 29.5774V21.5774L28.0001 25.5775L21.6001 29.5774Z" fill="black"/>
</svg>
